G04 #@! TF.GenerationSoftware,KiCad,Pcbnew,(6.0.6)*
G04 #@! TF.CreationDate,2022-11-01T20:53:13+09:00*
G04 #@! TF.ProjectId,KZ80-YM2149,4b5a3830-2d59-44d3-9231-34392e6b6963,rev?*
G04 #@! TF.SameCoordinates,Original*
G04 #@! TF.FileFunction,Legend,Bot*
G04 #@! TF.FilePolarity,Positive*
%FSLAX46Y46*%
G04 Gerber Fmt 4.6, Leading zero omitted, Abs format (unit mm)*
G04 Created by KiCad (PCBNEW (6.0.6)) date 2022-11-01 20:53:13*
%MOMM*%
%LPD*%
G01*
G04 APERTURE LIST*
%ADD10C,2.000000*%
%ADD11O,2.000000X2.000000*%
%ADD12C,3.600000*%
%ADD13C,1.900000*%
%ADD14C,6.400000*%
%ADD15O,2.400000X3.400000*%
%ADD16O,3.400000X2.400000*%
%ADD17O,2.100000X2.100000*%
%ADD18O,2.000000X2.800000*%
G04 APERTURE END LIST*
%LPC*%
D10*
X95400000Y-88600000D03*
D11*
X105560000Y-88600000D03*
D10*
X95400000Y-91680000D03*
D11*
X105560000Y-91680000D03*
D10*
X105581000Y-97820000D03*
D11*
X95421000Y-97820000D03*
D10*
X105581000Y-100820000D03*
D11*
X95421000Y-100820000D03*
D10*
X95421300Y-103820000D03*
D11*
X105581300Y-103820000D03*
G36*
G01*
X113425000Y-76565000D02*
X111825000Y-76565000D01*
G75*
G02*
X111625000Y-76365000I0J200000D01*
G01*
X111625000Y-74765000D01*
G75*
G02*
X111825000Y-74565000I200000J0D01*
G01*
X113425000Y-74565000D01*
G75*
G02*
X113625000Y-74765000I0J-200000D01*
G01*
X113625000Y-76365000D01*
G75*
G02*
X113425000Y-76565000I-200000J0D01*
G01*
G37*
X115165000Y-75565000D03*
X117705000Y-75565000D03*
X120245000Y-75565000D03*
X122785000Y-75565000D03*
X125325000Y-75565000D03*
X127865000Y-75565000D03*
X127865000Y-67945000D03*
X125325000Y-67945000D03*
X122785000Y-67945000D03*
X120245000Y-67945000D03*
X117705000Y-67945000D03*
X115165000Y-67945000D03*
X112625000Y-67945000D03*
D12*
X95500000Y-119500000D03*
X184500000Y-119500000D03*
D13*
X173000000Y-103635000D03*
X168120000Y-103635000D03*
D10*
X175310000Y-108350000D03*
X172810000Y-108350000D03*
X165820000Y-108370000D03*
X168320000Y-108370000D03*
X109550000Y-67400000D03*
X109550000Y-69900000D03*
X131730000Y-67400000D03*
X131730000Y-69900000D03*
X109110000Y-79110000D03*
X109110000Y-81610000D03*
X183550000Y-110730000D03*
D11*
X183550000Y-100570000D03*
D10*
X180230000Y-110680000D03*
D11*
X180230000Y-100520000D03*
G36*
G01*
X120300000Y-131900000D02*
X118700000Y-131900000D01*
G75*
G02*
X118500000Y-131700000I0J200000D01*
G01*
X118500000Y-130100000D01*
G75*
G02*
X118700000Y-129900000I200000J0D01*
G01*
X120300000Y-129900000D01*
G75*
G02*
X120500000Y-130100000I0J-200000D01*
G01*
X120500000Y-131700000D01*
G75*
G02*
X120300000Y-131900000I-200000J0D01*
G01*
G37*
X122040000Y-130900000D03*
X124580000Y-130900000D03*
X127120000Y-130900000D03*
X129660000Y-130900000D03*
X132200000Y-130900000D03*
X134740000Y-130900000D03*
X137280000Y-130900000D03*
X137280000Y-123280000D03*
X134740000Y-123280000D03*
X132200000Y-123280000D03*
X129660000Y-123280000D03*
X127120000Y-123280000D03*
X124580000Y-123280000D03*
X122040000Y-123280000D03*
X119500000Y-123280000D03*
D14*
X149550000Y-142910000D03*
X174580000Y-142910000D03*
G36*
G01*
X155500000Y-142300000D02*
X155500000Y-140700000D01*
G75*
G02*
X155700000Y-140500000I200000J0D01*
G01*
X157300000Y-140500000D01*
G75*
G02*
X157500000Y-140700000I0J-200000D01*
G01*
X157500000Y-142300000D01*
G75*
G02*
X157300000Y-142500000I-200000J0D01*
G01*
X155700000Y-142500000D01*
G75*
G02*
X155500000Y-142300000I0J200000D01*
G01*
G37*
D10*
X159270000Y-141500000D03*
X162040000Y-141500000D03*
X164810000Y-141500000D03*
X167580000Y-141500000D03*
X157885000Y-144040000D03*
X160655000Y-144040000D03*
X163425000Y-144040000D03*
X166195000Y-144040000D03*
X116460000Y-122790000D03*
X116460000Y-125290000D03*
X164910000Y-87910000D03*
X164910000Y-90410000D03*
G36*
G01*
X118500000Y-135700000D02*
X118500000Y-134100000D01*
G75*
G02*
X118700000Y-133900000I200000J0D01*
G01*
X120300000Y-133900000D01*
G75*
G02*
X120500000Y-134100000I0J-200000D01*
G01*
X120500000Y-135700000D01*
G75*
G02*
X120300000Y-135900000I-200000J0D01*
G01*
X118700000Y-135900000D01*
G75*
G02*
X118500000Y-135700000I0J200000D01*
G01*
G37*
D11*
X122040000Y-134900000D03*
X124580000Y-134900000D03*
X127120000Y-134900000D03*
X129660000Y-134900000D03*
X132200000Y-134900000D03*
X134740000Y-134900000D03*
X137280000Y-134900000D03*
X139820000Y-134900000D03*
G36*
G01*
X143300000Y-135740000D02*
X143300000Y-134140000D01*
G75*
G02*
X143500000Y-133940000I200000J0D01*
G01*
X145100000Y-133940000D01*
G75*
G02*
X145300000Y-134140000I0J-200000D01*
G01*
X145300000Y-135740000D01*
G75*
G02*
X145100000Y-135940000I-200000J0D01*
G01*
X143500000Y-135940000D01*
G75*
G02*
X143300000Y-135740000I0J200000D01*
G01*
G37*
X146840000Y-134940000D03*
X149380000Y-134940000D03*
X151920000Y-134940000D03*
X154460000Y-134940000D03*
X157000000Y-134940000D03*
X159540000Y-134940000D03*
X162080000Y-134940000D03*
X164620000Y-134940000D03*
D10*
X164820000Y-75940000D03*
X164820000Y-78440000D03*
X142860000Y-122700000D03*
X142860000Y-125200000D03*
D15*
X93380000Y-72300000D03*
D16*
X101880000Y-66900000D03*
X100180000Y-69400000D03*
D15*
X104680000Y-76600000D03*
D16*
X96880000Y-76800000D03*
G36*
G01*
X158850000Y-73050000D02*
X157150000Y-73050000D01*
G75*
G02*
X156950000Y-72850000I0J200000D01*
G01*
X156950000Y-71150000D01*
G75*
G02*
X157150000Y-70950000I200000J0D01*
G01*
X158850000Y-70950000D01*
G75*
G02*
X159050000Y-71150000I0J-200000D01*
G01*
X159050000Y-72850000D01*
G75*
G02*
X158850000Y-73050000I-200000J0D01*
G01*
G37*
D17*
X158000000Y-69460000D03*
X160540000Y-72000000D03*
X160540000Y-69460000D03*
X163080000Y-72000000D03*
X163080000Y-69460000D03*
X165620000Y-72000000D03*
X165620000Y-69460000D03*
X168160000Y-72000000D03*
X168160000Y-69460000D03*
X170700000Y-72000000D03*
X170700000Y-69460000D03*
X173240000Y-72000000D03*
X173240000Y-69460000D03*
X175780000Y-72000000D03*
X175780000Y-69460000D03*
G36*
G01*
X116880000Y-63430000D02*
X115180000Y-63430000D01*
G75*
G02*
X114980000Y-63230000I0J200000D01*
G01*
X114980000Y-61530000D01*
G75*
G02*
X115180000Y-61330000I200000J0D01*
G01*
X116880000Y-61330000D01*
G75*
G02*
X117080000Y-61530000I0J-200000D01*
G01*
X117080000Y-63230000D01*
G75*
G02*
X116880000Y-63430000I-200000J0D01*
G01*
G37*
X116030000Y-59840000D03*
X118570000Y-62380000D03*
X118570000Y-59840000D03*
X121110000Y-62380000D03*
X121110000Y-59840000D03*
X123650000Y-62380000D03*
X123650000Y-59840000D03*
X126190000Y-62380000D03*
X126190000Y-59840000D03*
X128730000Y-62380000D03*
X128730000Y-59840000D03*
X131270000Y-62380000D03*
X131270000Y-59840000D03*
X133810000Y-62380000D03*
X133810000Y-59840000D03*
X136350000Y-62380000D03*
X136350000Y-59840000D03*
X138890000Y-62380000D03*
X138890000Y-59840000D03*
X141430000Y-62380000D03*
X141430000Y-59840000D03*
X143970000Y-62380000D03*
X143970000Y-59840000D03*
X146510000Y-62380000D03*
X146510000Y-59840000D03*
X149050000Y-62380000D03*
X149050000Y-59840000D03*
X151590000Y-62380000D03*
X151590000Y-59840000D03*
X154130000Y-62380000D03*
X154130000Y-59840000D03*
X156670000Y-62380000D03*
X156670000Y-59840000D03*
X159210000Y-62380000D03*
X159210000Y-59840000D03*
X161750000Y-62380000D03*
X161750000Y-59840000D03*
X164290000Y-62380000D03*
X164290000Y-59840000D03*
D10*
X95420000Y-94790000D03*
D11*
X105580000Y-94790000D03*
G36*
G01*
X135480000Y-76480000D02*
X133880000Y-76480000D01*
G75*
G02*
X133680000Y-76280000I0J200000D01*
G01*
X133680000Y-74680000D01*
G75*
G02*
X133880000Y-74480000I200000J0D01*
G01*
X135480000Y-74480000D01*
G75*
G02*
X135680000Y-74680000I0J-200000D01*
G01*
X135680000Y-76280000D01*
G75*
G02*
X135480000Y-76480000I-200000J0D01*
G01*
G37*
X137220000Y-75480000D03*
X139760000Y-75480000D03*
X142300000Y-75480000D03*
X144840000Y-75480000D03*
X147380000Y-75480000D03*
X149920000Y-75480000D03*
X152460000Y-75480000D03*
X152460000Y-67860000D03*
X149920000Y-67860000D03*
X147380000Y-67860000D03*
X144840000Y-67860000D03*
X142300000Y-67860000D03*
X139760000Y-67860000D03*
X137220000Y-67860000D03*
X134680000Y-67860000D03*
G36*
G01*
X168800000Y-97000000D02*
X167200000Y-97000000D01*
G75*
G02*
X167000000Y-96800000I0J200000D01*
G01*
X167000000Y-95200000D01*
G75*
G02*
X167200000Y-95000000I200000J0D01*
G01*
X168800000Y-95000000D01*
G75*
G02*
X169000000Y-95200000I0J-200000D01*
G01*
X169000000Y-96800000D01*
G75*
G02*
X168800000Y-97000000I-200000J0D01*
G01*
G37*
X170540000Y-96000000D03*
X173080000Y-96000000D03*
X175620000Y-96000000D03*
X178160000Y-96000000D03*
X180700000Y-96000000D03*
X183240000Y-96000000D03*
X183240000Y-88380000D03*
X180700000Y-88380000D03*
X178160000Y-88380000D03*
X175620000Y-88380000D03*
X173080000Y-88380000D03*
X170540000Y-88380000D03*
X168000000Y-88380000D03*
G36*
G01*
X146610000Y-131970000D02*
X145010000Y-131970000D01*
G75*
G02*
X144810000Y-131770000I0J200000D01*
G01*
X144810000Y-130170000D01*
G75*
G02*
X145010000Y-129970000I200000J0D01*
G01*
X146610000Y-129970000D01*
G75*
G02*
X146810000Y-130170000I0J-200000D01*
G01*
X146810000Y-131770000D01*
G75*
G02*
X146610000Y-131970000I-200000J0D01*
G01*
G37*
X148350000Y-130970000D03*
X150890000Y-130970000D03*
X153430000Y-130970000D03*
X155970000Y-130970000D03*
X158510000Y-130970000D03*
X161050000Y-130970000D03*
X163590000Y-130970000D03*
X163590000Y-123350000D03*
X161050000Y-123350000D03*
X158510000Y-123350000D03*
X155970000Y-123350000D03*
X153430000Y-123350000D03*
X150890000Y-123350000D03*
X148350000Y-123350000D03*
X145810000Y-123350000D03*
G36*
G01*
X168800000Y-85000000D02*
X167200000Y-85000000D01*
G75*
G02*
X167000000Y-84800000I0J200000D01*
G01*
X167000000Y-83200000D01*
G75*
G02*
X167200000Y-83000000I200000J0D01*
G01*
X168800000Y-83000000D01*
G75*
G02*
X169000000Y-83200000I0J-200000D01*
G01*
X169000000Y-84800000D01*
G75*
G02*
X168800000Y-85000000I-200000J0D01*
G01*
G37*
X170540000Y-84000000D03*
X173080000Y-84000000D03*
X175620000Y-84000000D03*
X178160000Y-84000000D03*
X180700000Y-84000000D03*
X183240000Y-84000000D03*
X183240000Y-76380000D03*
X180700000Y-76380000D03*
X178160000Y-76380000D03*
X175620000Y-76380000D03*
X173080000Y-76380000D03*
X170540000Y-76380000D03*
X168000000Y-76380000D03*
G36*
G01*
X112970000Y-95870000D02*
X111370000Y-95870000D01*
G75*
G02*
X111170000Y-95670000I0J200000D01*
G01*
X111170000Y-94070000D01*
G75*
G02*
X111370000Y-93870000I200000J0D01*
G01*
X112970000Y-93870000D01*
G75*
G02*
X113170000Y-94070000I0J-200000D01*
G01*
X113170000Y-95670000D01*
G75*
G02*
X112970000Y-95870000I-200000J0D01*
G01*
G37*
X114710000Y-94870000D03*
X117250000Y-94870000D03*
X119790000Y-94870000D03*
X122330000Y-94870000D03*
X124870000Y-94870000D03*
X127410000Y-94870000D03*
X129950000Y-94870000D03*
X132490000Y-94870000D03*
X135030000Y-94870000D03*
X137570000Y-94870000D03*
X140110000Y-94870000D03*
X142650000Y-94870000D03*
X145190000Y-94870000D03*
X147730000Y-94870000D03*
X150270000Y-94870000D03*
X152810000Y-94870000D03*
X155350000Y-94870000D03*
X157890000Y-94870000D03*
X160430000Y-94870000D03*
X160430000Y-79630000D03*
X157890000Y-79630000D03*
X155350000Y-79630000D03*
X152810000Y-79630000D03*
X150270000Y-79630000D03*
X147730000Y-79630000D03*
X145190000Y-79630000D03*
X142650000Y-79630000D03*
X140110000Y-79630000D03*
X137570000Y-79630000D03*
X135030000Y-79630000D03*
X132490000Y-79630000D03*
X129950000Y-79630000D03*
X127410000Y-79630000D03*
X124870000Y-79630000D03*
X122330000Y-79630000D03*
X119790000Y-79630000D03*
X117250000Y-79630000D03*
X114710000Y-79630000D03*
X112170000Y-79630000D03*
D14*
X110370000Y-143050000D03*
X135400000Y-143050000D03*
G36*
G01*
X116320000Y-142440000D02*
X116320000Y-140840000D01*
G75*
G02*
X116520000Y-140640000I200000J0D01*
G01*
X118120000Y-140640000D01*
G75*
G02*
X118320000Y-140840000I0J-200000D01*
G01*
X118320000Y-142440000D01*
G75*
G02*
X118120000Y-142640000I-200000J0D01*
G01*
X116520000Y-142640000D01*
G75*
G02*
X116320000Y-142440000I0J200000D01*
G01*
G37*
D10*
X120090000Y-141640000D03*
X122860000Y-141640000D03*
X125630000Y-141640000D03*
X128400000Y-141640000D03*
X118705000Y-144180000D03*
X121475000Y-144180000D03*
X124245000Y-144180000D03*
X127015000Y-144180000D03*
D12*
X184500000Y-54500000D03*
X95500000Y-54500000D03*
D10*
X128100000Y-109200000D03*
X128100000Y-111700000D03*
X102000000Y-122000000D03*
X104500000Y-122000000D03*
D15*
X93200000Y-130500000D03*
D16*
X101700000Y-125100000D03*
X100000000Y-127600000D03*
D15*
X104500000Y-134800000D03*
D16*
X96700000Y-135000000D03*
D12*
X95500000Y-145500000D03*
X184500000Y-145500000D03*
D10*
X112000000Y-107200000D03*
D11*
X122160000Y-107200000D03*
D10*
X122100000Y-100400000D03*
D11*
X111940000Y-100400000D03*
D10*
X122200000Y-103700000D03*
D11*
X112040000Y-103700000D03*
D10*
X109100000Y-120500000D03*
D11*
X109100000Y-130660000D03*
D10*
X112400000Y-120500000D03*
D11*
X112400000Y-130660000D03*
G36*
G01*
X95010000Y-110940000D02*
X95010000Y-112640000D01*
G75*
G02*
X94810000Y-112840000I-200000J0D01*
G01*
X93110000Y-112840000D01*
G75*
G02*
X92910000Y-112640000I0J200000D01*
G01*
X92910000Y-110940000D01*
G75*
G02*
X93110000Y-110740000I200000J0D01*
G01*
X94810000Y-110740000D01*
G75*
G02*
X95010000Y-110940000I0J-200000D01*
G01*
G37*
D17*
X93960000Y-109250000D03*
D10*
X108360000Y-109040000D03*
D11*
X98200000Y-109040000D03*
D10*
X108360000Y-112040000D03*
D11*
X98200000Y-112040000D03*
G36*
G01*
X99300000Y-84500000D02*
X97700000Y-84500000D01*
G75*
G02*
X97500000Y-84300000I0J200000D01*
G01*
X97500000Y-82700000D01*
G75*
G02*
X97700000Y-82500000I200000J0D01*
G01*
X99300000Y-82500000D01*
G75*
G02*
X99500000Y-82700000I0J-200000D01*
G01*
X99500000Y-84300000D01*
G75*
G02*
X99300000Y-84500000I-200000J0D01*
G01*
G37*
D10*
X98500000Y-81000000D03*
G36*
G01*
X111690000Y-112800000D02*
X111690000Y-111200000D01*
G75*
G02*
X111890000Y-111000000I200000J0D01*
G01*
X113490000Y-111000000D01*
G75*
G02*
X113690000Y-111200000I0J-200000D01*
G01*
X113690000Y-112800000D01*
G75*
G02*
X113490000Y-113000000I-200000J0D01*
G01*
X111890000Y-113000000D01*
G75*
G02*
X111690000Y-112800000I0J200000D01*
G01*
G37*
D11*
X120310000Y-112000000D03*
G36*
G01*
X103794900Y-61800000D02*
X103794900Y-60200000D01*
G75*
G02*
X103994900Y-60000000I200000J0D01*
G01*
X105594900Y-60000000D01*
G75*
G02*
X105794900Y-60200000I0J-200000D01*
G01*
X105794900Y-61800000D01*
G75*
G02*
X105594900Y-62000000I-200000J0D01*
G01*
X103994900Y-62000000D01*
G75*
G02*
X103794900Y-61800000I0J200000D01*
G01*
G37*
D10*
X107294900Y-61000000D03*
G36*
G01*
X132500000Y-118700000D02*
X130900000Y-118700000D01*
G75*
G02*
X130700000Y-118500000I0J200000D01*
G01*
X130700000Y-116100000D01*
G75*
G02*
X130900000Y-115900000I200000J0D01*
G01*
X132500000Y-115900000D01*
G75*
G02*
X132700000Y-116100000I0J-200000D01*
G01*
X132700000Y-118500000D01*
G75*
G02*
X132500000Y-118700000I-200000J0D01*
G01*
G37*
D18*
X134240000Y-117300000D03*
X136780000Y-117300000D03*
X139320000Y-117300000D03*
X139320000Y-109680000D03*
X136780000Y-109680000D03*
X134240000Y-109680000D03*
X131700000Y-109680000D03*
G36*
G01*
X95294900Y-63300000D02*
X95294900Y-61700000D01*
G75*
G02*
X95494900Y-61500000I200000J0D01*
G01*
X97094900Y-61500000D01*
G75*
G02*
X97294900Y-61700000I0J-200000D01*
G01*
X97294900Y-63300000D01*
G75*
G02*
X97094900Y-63500000I-200000J0D01*
G01*
X95494900Y-63500000D01*
G75*
G02*
X95294900Y-63300000I0J200000D01*
G01*
G37*
D10*
X98794900Y-62500000D03*
G36*
G01*
X111690000Y-116800000D02*
X111690000Y-115200000D01*
G75*
G02*
X111890000Y-115000000I200000J0D01*
G01*
X113490000Y-115000000D01*
G75*
G02*
X113690000Y-115200000I0J-200000D01*
G01*
X113690000Y-116800000D01*
G75*
G02*
X113490000Y-117000000I-200000J0D01*
G01*
X111890000Y-117000000D01*
G75*
G02*
X111690000Y-116800000I0J200000D01*
G01*
G37*
D11*
X120310000Y-116000000D03*
M02*
