G04 #@! TF.GenerationSoftware,KiCad,Pcbnew,(5.0.0-3-g5ebb6b6)*
G04 #@! TF.CreationDate,2019-08-10T22:52:30+09:00*
G04 #@! TF.ProjectId,KZ80-YM2149,4B5A38302D594D323134392E6B696361,rev?*
G04 #@! TF.SameCoordinates,Original*
G04 #@! TF.FileFunction,Legend,Top*
G04 #@! TF.FilePolarity,Positive*
%FSLAX46Y46*%
G04 Gerber Fmt 4.6, Leading zero omitted, Abs format (unit mm)*
G04 Created by KiCad (PCBNEW (5.0.0-3-g5ebb6b6)) date 2019 August 10, Saturday 22:52:30*
%MOMM*%
%LPD*%
G01*
G04 APERTURE LIST*
%ADD10C,0.300000*%
%ADD11C,0.150000*%
%ADD12C,0.120000*%
%ADD13C,0.200000*%
%ADD14C,0.254000*%
%ADD15R,2.000000X2.000000*%
%ADD16C,2.000000*%
%ADD17O,2.000000X2.000000*%
%ADD18C,6.400000*%
%ADD19C,1.900000*%
%ADD20C,3.600000*%
%ADD21O,2.400000X3.400000*%
%ADD22O,3.400000X2.400000*%
%ADD23R,2.100000X2.100000*%
%ADD24O,2.100000X2.100000*%
G04 APERTURE END LIST*
D10*
X155226428Y-119828571D02*
X155226428Y-120900000D01*
X155155000Y-121114285D01*
X155012142Y-121257142D01*
X154797857Y-121328571D01*
X154655000Y-121328571D01*
X156155000Y-121328571D02*
X156012142Y-121257142D01*
X155940714Y-121185714D01*
X155869285Y-121042857D01*
X155869285Y-120614285D01*
X155940714Y-120471428D01*
X156012142Y-120400000D01*
X156155000Y-120328571D01*
X156369285Y-120328571D01*
X156512142Y-120400000D01*
X156583571Y-120471428D01*
X156655000Y-120614285D01*
X156655000Y-121042857D01*
X156583571Y-121185714D01*
X156512142Y-121257142D01*
X156369285Y-121328571D01*
X156155000Y-121328571D01*
X157155000Y-120328571D02*
X157512142Y-121328571D01*
X157869285Y-120328571D02*
X157512142Y-121328571D01*
X157369285Y-121685714D01*
X157297857Y-121757142D01*
X157155000Y-121828571D01*
X158369285Y-121257142D02*
X158583571Y-121328571D01*
X158940714Y-121328571D01*
X159083571Y-121257142D01*
X159155000Y-121185714D01*
X159226428Y-121042857D01*
X159226428Y-120900000D01*
X159155000Y-120757142D01*
X159083571Y-120685714D01*
X158940714Y-120614285D01*
X158655000Y-120542857D01*
X158512142Y-120471428D01*
X158440714Y-120400000D01*
X158369285Y-120257142D01*
X158369285Y-120114285D01*
X158440714Y-119971428D01*
X158512142Y-119900000D01*
X158655000Y-119828571D01*
X159012142Y-119828571D01*
X159226428Y-119900000D01*
X159655000Y-120328571D02*
X160226428Y-120328571D01*
X159869285Y-119828571D02*
X159869285Y-121114285D01*
X159940714Y-121257142D01*
X160083571Y-121328571D01*
X160226428Y-121328571D01*
X160726428Y-121328571D02*
X160726428Y-120328571D01*
X160726428Y-119828571D02*
X160655000Y-119900000D01*
X160726428Y-119971428D01*
X160797857Y-119900000D01*
X160726428Y-119828571D01*
X160726428Y-119971428D01*
X162083571Y-121257142D02*
X161940714Y-121328571D01*
X161655000Y-121328571D01*
X161512142Y-121257142D01*
X161440714Y-121185714D01*
X161369285Y-121042857D01*
X161369285Y-120614285D01*
X161440714Y-120471428D01*
X161512142Y-120400000D01*
X161655000Y-120328571D01*
X161940714Y-120328571D01*
X162083571Y-120400000D01*
X162726428Y-121328571D02*
X162726428Y-119828571D01*
X162869285Y-120757142D02*
X163297857Y-121328571D01*
X163297857Y-120328571D02*
X162726428Y-120900000D01*
X163940714Y-120757142D02*
X165083571Y-120757142D01*
X165726428Y-119971428D02*
X165797857Y-119900000D01*
X165940714Y-119828571D01*
X166297857Y-119828571D01*
X166440714Y-119900000D01*
X166512142Y-119971428D01*
X166583571Y-120114285D01*
X166583571Y-120257142D01*
X166512142Y-120471428D01*
X165655000Y-121328571D01*
X166583571Y-121328571D01*
X115856428Y-119828571D02*
X115856428Y-120900000D01*
X115785000Y-121114285D01*
X115642142Y-121257142D01*
X115427857Y-121328571D01*
X115285000Y-121328571D01*
X116785000Y-121328571D02*
X116642142Y-121257142D01*
X116570714Y-121185714D01*
X116499285Y-121042857D01*
X116499285Y-120614285D01*
X116570714Y-120471428D01*
X116642142Y-120400000D01*
X116785000Y-120328571D01*
X116999285Y-120328571D01*
X117142142Y-120400000D01*
X117213571Y-120471428D01*
X117285000Y-120614285D01*
X117285000Y-121042857D01*
X117213571Y-121185714D01*
X117142142Y-121257142D01*
X116999285Y-121328571D01*
X116785000Y-121328571D01*
X117785000Y-120328571D02*
X118142142Y-121328571D01*
X118499285Y-120328571D02*
X118142142Y-121328571D01*
X117999285Y-121685714D01*
X117927857Y-121757142D01*
X117785000Y-121828571D01*
X118999285Y-121257142D02*
X119213571Y-121328571D01*
X119570714Y-121328571D01*
X119713571Y-121257142D01*
X119785000Y-121185714D01*
X119856428Y-121042857D01*
X119856428Y-120900000D01*
X119785000Y-120757142D01*
X119713571Y-120685714D01*
X119570714Y-120614285D01*
X119285000Y-120542857D01*
X119142142Y-120471428D01*
X119070714Y-120400000D01*
X118999285Y-120257142D01*
X118999285Y-120114285D01*
X119070714Y-119971428D01*
X119142142Y-119900000D01*
X119285000Y-119828571D01*
X119642142Y-119828571D01*
X119856428Y-119900000D01*
X120285000Y-120328571D02*
X120856428Y-120328571D01*
X120499285Y-119828571D02*
X120499285Y-121114285D01*
X120570714Y-121257142D01*
X120713571Y-121328571D01*
X120856428Y-121328571D01*
X121356428Y-121328571D02*
X121356428Y-120328571D01*
X121356428Y-119828571D02*
X121285000Y-119900000D01*
X121356428Y-119971428D01*
X121427857Y-119900000D01*
X121356428Y-119828571D01*
X121356428Y-119971428D01*
X122713571Y-121257142D02*
X122570714Y-121328571D01*
X122285000Y-121328571D01*
X122142142Y-121257142D01*
X122070714Y-121185714D01*
X121999285Y-121042857D01*
X121999285Y-120614285D01*
X122070714Y-120471428D01*
X122142142Y-120400000D01*
X122285000Y-120328571D01*
X122570714Y-120328571D01*
X122713571Y-120400000D01*
X123356428Y-121328571D02*
X123356428Y-119828571D01*
X123499285Y-120757142D02*
X123927857Y-121328571D01*
X123927857Y-120328571D02*
X123356428Y-120900000D01*
X124570714Y-120757142D02*
X125713571Y-120757142D01*
X127213571Y-121328571D02*
X126356428Y-121328571D01*
X126785000Y-121328571D02*
X126785000Y-119828571D01*
X126642142Y-120042857D01*
X126499285Y-120185714D01*
X126356428Y-120257142D01*
X144797142Y-101968571D02*
X145797142Y-101968571D01*
X145154285Y-103468571D01*
X147011428Y-102468571D02*
X147011428Y-103468571D01*
X146654285Y-101897142D02*
X146297142Y-102968571D01*
X147225714Y-102968571D01*
X147797142Y-103468571D02*
X147797142Y-101968571D01*
X147797142Y-102682857D02*
X148654285Y-102682857D01*
X148654285Y-103468571D02*
X148654285Y-101968571D01*
X150225714Y-103325714D02*
X150154285Y-103397142D01*
X149940000Y-103468571D01*
X149797142Y-103468571D01*
X149582857Y-103397142D01*
X149440000Y-103254285D01*
X149368571Y-103111428D01*
X149297142Y-102825714D01*
X149297142Y-102611428D01*
X149368571Y-102325714D01*
X149440000Y-102182857D01*
X149582857Y-102040000D01*
X149797142Y-101968571D01*
X149940000Y-101968571D01*
X150154285Y-102040000D01*
X150225714Y-102111428D01*
X151654285Y-103468571D02*
X150797142Y-103468571D01*
X151225714Y-103468571D02*
X151225714Y-101968571D01*
X151082857Y-102182857D01*
X150940000Y-102325714D01*
X150797142Y-102397142D01*
X153011428Y-101968571D02*
X152297142Y-101968571D01*
X152225714Y-102682857D01*
X152297142Y-102611428D01*
X152440000Y-102540000D01*
X152797142Y-102540000D01*
X152940000Y-102611428D01*
X153011428Y-102682857D01*
X153082857Y-102825714D01*
X153082857Y-103182857D01*
X153011428Y-103325714D01*
X152940000Y-103397142D01*
X152797142Y-103468571D01*
X152440000Y-103468571D01*
X152297142Y-103397142D01*
X152225714Y-103325714D01*
X153582857Y-101968571D02*
X154582857Y-101968571D01*
X153940000Y-103468571D01*
X119637142Y-101878571D02*
X120637142Y-101878571D01*
X119994285Y-103378571D01*
X121851428Y-102378571D02*
X121851428Y-103378571D01*
X121494285Y-101807142D02*
X121137142Y-102878571D01*
X122065714Y-102878571D01*
X122637142Y-103378571D02*
X122637142Y-101878571D01*
X122637142Y-102592857D02*
X123494285Y-102592857D01*
X123494285Y-103378571D02*
X123494285Y-101878571D01*
X125065714Y-103235714D02*
X124994285Y-103307142D01*
X124780000Y-103378571D01*
X124637142Y-103378571D01*
X124422857Y-103307142D01*
X124280000Y-103164285D01*
X124208571Y-103021428D01*
X124137142Y-102735714D01*
X124137142Y-102521428D01*
X124208571Y-102235714D01*
X124280000Y-102092857D01*
X124422857Y-101950000D01*
X124637142Y-101878571D01*
X124780000Y-101878571D01*
X124994285Y-101950000D01*
X125065714Y-102021428D01*
X126494285Y-103378571D02*
X125637142Y-103378571D01*
X126065714Y-103378571D02*
X126065714Y-101878571D01*
X125922857Y-102092857D01*
X125780000Y-102235714D01*
X125637142Y-102307142D01*
X127851428Y-101878571D02*
X127137142Y-101878571D01*
X127065714Y-102592857D01*
X127137142Y-102521428D01*
X127280000Y-102450000D01*
X127637142Y-102450000D01*
X127780000Y-102521428D01*
X127851428Y-102592857D01*
X127922857Y-102735714D01*
X127922857Y-103092857D01*
X127851428Y-103235714D01*
X127780000Y-103307142D01*
X127637142Y-103378571D01*
X127280000Y-103378571D01*
X127137142Y-103307142D01*
X127065714Y-103235714D01*
X128422857Y-101878571D02*
X129422857Y-101878571D01*
X128780000Y-103378571D01*
D11*
X175750120Y-66889726D02*
X175750120Y-66556392D01*
X176273929Y-66413535D02*
X176273929Y-66889726D01*
X175273929Y-66889726D01*
X175273929Y-66413535D01*
X175273929Y-65794488D02*
X175273929Y-65699250D01*
X175321549Y-65604011D01*
X175369168Y-65556392D01*
X175464406Y-65508773D01*
X175654882Y-65461154D01*
X175892977Y-65461154D01*
X176083453Y-65508773D01*
X176178691Y-65556392D01*
X176226310Y-65604011D01*
X176273929Y-65699250D01*
X176273929Y-65794488D01*
X176226310Y-65889726D01*
X176178691Y-65937345D01*
X176083453Y-65984964D01*
X175892977Y-66032583D01*
X175654882Y-66032583D01*
X175464406Y-65984964D01*
X175369168Y-65937345D01*
X175321549Y-65889726D01*
X175273929Y-65794488D01*
X173678691Y-66365916D02*
X173726310Y-66413535D01*
X173773929Y-66556392D01*
X173773929Y-66651630D01*
X173726310Y-66794488D01*
X173631072Y-66889726D01*
X173535834Y-66937345D01*
X173345358Y-66984964D01*
X173202501Y-66984964D01*
X173012025Y-66937345D01*
X172916787Y-66889726D01*
X172821549Y-66794488D01*
X172773929Y-66651630D01*
X172773929Y-66556392D01*
X172821549Y-66413535D01*
X172869168Y-66365916D01*
X172773929Y-65746869D02*
X172773929Y-65651630D01*
X172821549Y-65556392D01*
X172869168Y-65508773D01*
X172964406Y-65461154D01*
X173154882Y-65413535D01*
X173392977Y-65413535D01*
X173583453Y-65461154D01*
X173678691Y-65508773D01*
X173726310Y-65556392D01*
X173773929Y-65651630D01*
X173773929Y-65746869D01*
X173726310Y-65842107D01*
X173678691Y-65889726D01*
X173583453Y-65937345D01*
X173392977Y-65984964D01*
X173154882Y-65984964D01*
X172964406Y-65937345D01*
X172869168Y-65889726D01*
X172821549Y-65842107D01*
X172773929Y-65746869D01*
X170988215Y-66913535D02*
X170988215Y-66437345D01*
X171273929Y-67008773D02*
X170273929Y-66675440D01*
X171273929Y-66342107D01*
X170273929Y-65818297D02*
X170273929Y-65723059D01*
X170321549Y-65627821D01*
X170369168Y-65580202D01*
X170464406Y-65532583D01*
X170654882Y-65484964D01*
X170892977Y-65484964D01*
X171083453Y-65532583D01*
X171178691Y-65580202D01*
X171226310Y-65627821D01*
X171273929Y-65723059D01*
X171273929Y-65818297D01*
X171226310Y-65913535D01*
X171178691Y-65961154D01*
X171083453Y-66008773D01*
X170892977Y-66056392D01*
X170654882Y-66056392D01*
X170464406Y-66008773D01*
X170369168Y-65961154D01*
X170321549Y-65913535D01*
X170273929Y-65818297D01*
X168202501Y-66770678D02*
X168154882Y-66865916D01*
X168107263Y-66913535D01*
X168012025Y-66961154D01*
X167964406Y-66961154D01*
X167869168Y-66913535D01*
X167821549Y-66865916D01*
X167773929Y-66770678D01*
X167773929Y-66580202D01*
X167821549Y-66484964D01*
X167869168Y-66437345D01*
X167964406Y-66389726D01*
X168012025Y-66389726D01*
X168107263Y-66437345D01*
X168154882Y-66484964D01*
X168202501Y-66580202D01*
X168202501Y-66770678D01*
X168250120Y-66865916D01*
X168297739Y-66913535D01*
X168392977Y-66961154D01*
X168583453Y-66961154D01*
X168678691Y-66913535D01*
X168726310Y-66865916D01*
X168773929Y-66770678D01*
X168773929Y-66580202D01*
X168726310Y-66484964D01*
X168678691Y-66437345D01*
X168583453Y-66389726D01*
X168392977Y-66389726D01*
X168297739Y-66437345D01*
X168250120Y-66484964D01*
X168202501Y-66580202D01*
X167773929Y-65770678D02*
X167773929Y-65675440D01*
X167821549Y-65580202D01*
X167869168Y-65532583D01*
X167964406Y-65484964D01*
X168154882Y-65437345D01*
X168392977Y-65437345D01*
X168583453Y-65484964D01*
X168678691Y-65532583D01*
X168726310Y-65580202D01*
X168773929Y-65675440D01*
X168773929Y-65770678D01*
X168726310Y-65865916D01*
X168678691Y-65913535D01*
X168583453Y-65961154D01*
X168392977Y-66008773D01*
X168154882Y-66008773D01*
X167964406Y-65961154D01*
X167869168Y-65913535D01*
X167821549Y-65865916D01*
X167773929Y-65770678D01*
X165273929Y-66484964D02*
X165273929Y-66675440D01*
X165321549Y-66770678D01*
X165369168Y-66818297D01*
X165512025Y-66913535D01*
X165702501Y-66961154D01*
X166083453Y-66961154D01*
X166178691Y-66913535D01*
X166226310Y-66865916D01*
X166273929Y-66770678D01*
X166273929Y-66580202D01*
X166226310Y-66484964D01*
X166178691Y-66437345D01*
X166083453Y-66389726D01*
X165845358Y-66389726D01*
X165750120Y-66437345D01*
X165702501Y-66484964D01*
X165654882Y-66580202D01*
X165654882Y-66770678D01*
X165702501Y-66865916D01*
X165750120Y-66913535D01*
X165845358Y-66961154D01*
X165273929Y-65770678D02*
X165273929Y-65675440D01*
X165321549Y-65580202D01*
X165369168Y-65532583D01*
X165464406Y-65484964D01*
X165654882Y-65437345D01*
X165892977Y-65437345D01*
X166083453Y-65484964D01*
X166178691Y-65532583D01*
X166226310Y-65580202D01*
X166273929Y-65675440D01*
X166273929Y-65770678D01*
X166226310Y-65865916D01*
X166178691Y-65913535D01*
X166083453Y-65961154D01*
X165892977Y-66008773D01*
X165654882Y-66008773D01*
X165464406Y-65961154D01*
X165369168Y-65913535D01*
X165321549Y-65865916D01*
X165273929Y-65770678D01*
X163107263Y-66484964D02*
X163773929Y-66484964D01*
X162726310Y-66723059D02*
X163440596Y-66961154D01*
X163440596Y-66342107D01*
X162773929Y-65770678D02*
X162773929Y-65675440D01*
X162821549Y-65580202D01*
X162869168Y-65532583D01*
X162964406Y-65484964D01*
X163154882Y-65437345D01*
X163392977Y-65437345D01*
X163583453Y-65484964D01*
X163678691Y-65532583D01*
X163726310Y-65580202D01*
X163773929Y-65675440D01*
X163773929Y-65770678D01*
X163726310Y-65865916D01*
X163678691Y-65913535D01*
X163583453Y-65961154D01*
X163392977Y-66008773D01*
X163154882Y-66008773D01*
X162964406Y-65961154D01*
X162869168Y-65913535D01*
X162821549Y-65865916D01*
X162773929Y-65770678D01*
X160369168Y-66961154D02*
X160321549Y-66913535D01*
X160273929Y-66818297D01*
X160273929Y-66580202D01*
X160321549Y-66484964D01*
X160369168Y-66437345D01*
X160464406Y-66389726D01*
X160559644Y-66389726D01*
X160702501Y-66437345D01*
X161273929Y-67008773D01*
X161273929Y-66389726D01*
X160273929Y-65770678D02*
X160273929Y-65675440D01*
X160321549Y-65580202D01*
X160369168Y-65532583D01*
X160464406Y-65484964D01*
X160654882Y-65437345D01*
X160892977Y-65437345D01*
X161083453Y-65484964D01*
X161178691Y-65532583D01*
X161226310Y-65580202D01*
X161273929Y-65675440D01*
X161273929Y-65770678D01*
X161226310Y-65865916D01*
X161178691Y-65913535D01*
X161083453Y-65961154D01*
X160892977Y-66008773D01*
X160654882Y-66008773D01*
X160464406Y-65961154D01*
X160369168Y-65913535D01*
X160321549Y-65865916D01*
X160273929Y-65770678D01*
X157773929Y-66723059D02*
X157773929Y-66627821D01*
X157821549Y-66532583D01*
X157869168Y-66484964D01*
X157964406Y-66437345D01*
X158154882Y-66389726D01*
X158392977Y-66389726D01*
X158583453Y-66437345D01*
X158678691Y-66484964D01*
X158726310Y-66532583D01*
X158773929Y-66627821D01*
X158773929Y-66723059D01*
X158726310Y-66818297D01*
X158678691Y-66865916D01*
X158583453Y-66913535D01*
X158392977Y-66961154D01*
X158154882Y-66961154D01*
X157964406Y-66913535D01*
X157869168Y-66865916D01*
X157821549Y-66818297D01*
X157773929Y-66723059D01*
X157773929Y-65770678D02*
X157773929Y-65675440D01*
X157821549Y-65580202D01*
X157869168Y-65532583D01*
X157964406Y-65484964D01*
X158154882Y-65437345D01*
X158392977Y-65437345D01*
X158583453Y-65484964D01*
X158678691Y-65532583D01*
X158726310Y-65580202D01*
X158773929Y-65675440D01*
X158773929Y-65770678D01*
X158726310Y-65865916D01*
X158678691Y-65913535D01*
X158583453Y-65961154D01*
X158392977Y-66008773D01*
X158154882Y-66008773D01*
X157964406Y-65961154D01*
X157869168Y-65913535D01*
X157821549Y-65865916D01*
X157773929Y-65770678D01*
D10*
X91972142Y-108718571D02*
X91972142Y-107218571D01*
X92829285Y-108718571D02*
X92186428Y-107861428D01*
X92829285Y-107218571D02*
X91972142Y-108075714D01*
X93329285Y-107218571D02*
X94329285Y-107218571D01*
X93329285Y-108718571D01*
X94329285Y-108718571D01*
X95115000Y-107861428D02*
X94972142Y-107790000D01*
X94900714Y-107718571D01*
X94829285Y-107575714D01*
X94829285Y-107504285D01*
X94900714Y-107361428D01*
X94972142Y-107290000D01*
X95115000Y-107218571D01*
X95400714Y-107218571D01*
X95543571Y-107290000D01*
X95615000Y-107361428D01*
X95686428Y-107504285D01*
X95686428Y-107575714D01*
X95615000Y-107718571D01*
X95543571Y-107790000D01*
X95400714Y-107861428D01*
X95115000Y-107861428D01*
X94972142Y-107932857D01*
X94900714Y-108004285D01*
X94829285Y-108147142D01*
X94829285Y-108432857D01*
X94900714Y-108575714D01*
X94972142Y-108647142D01*
X95115000Y-108718571D01*
X95400714Y-108718571D01*
X95543571Y-108647142D01*
X95615000Y-108575714D01*
X95686428Y-108432857D01*
X95686428Y-108147142D01*
X95615000Y-108004285D01*
X95543571Y-107932857D01*
X95400714Y-107861428D01*
X96615000Y-107218571D02*
X96757857Y-107218571D01*
X96900714Y-107290000D01*
X96972142Y-107361428D01*
X97043571Y-107504285D01*
X97115000Y-107790000D01*
X97115000Y-108147142D01*
X97043571Y-108432857D01*
X96972142Y-108575714D01*
X96900714Y-108647142D01*
X96757857Y-108718571D01*
X96615000Y-108718571D01*
X96472142Y-108647142D01*
X96400714Y-108575714D01*
X96329285Y-108432857D01*
X96257857Y-108147142D01*
X96257857Y-107790000D01*
X96329285Y-107504285D01*
X96400714Y-107361428D01*
X96472142Y-107290000D01*
X96615000Y-107218571D01*
X97757857Y-108147142D02*
X98900714Y-108147142D01*
X99615000Y-108718571D02*
X99615000Y-107218571D01*
X100186428Y-107218571D01*
X100329285Y-107290000D01*
X100400714Y-107361428D01*
X100472142Y-107504285D01*
X100472142Y-107718571D01*
X100400714Y-107861428D01*
X100329285Y-107932857D01*
X100186428Y-108004285D01*
X99615000Y-108004285D01*
X101043571Y-108647142D02*
X101257857Y-108718571D01*
X101615000Y-108718571D01*
X101757857Y-108647142D01*
X101829285Y-108575714D01*
X101900714Y-108432857D01*
X101900714Y-108290000D01*
X101829285Y-108147142D01*
X101757857Y-108075714D01*
X101615000Y-108004285D01*
X101329285Y-107932857D01*
X101186428Y-107861428D01*
X101115000Y-107790000D01*
X101043571Y-107647142D01*
X101043571Y-107504285D01*
X101115000Y-107361428D01*
X101186428Y-107290000D01*
X101329285Y-107218571D01*
X101686428Y-107218571D01*
X101900714Y-107290000D01*
X103329285Y-107290000D02*
X103186428Y-107218571D01*
X102972142Y-107218571D01*
X102757857Y-107290000D01*
X102615000Y-107432857D01*
X102543571Y-107575714D01*
X102472142Y-107861428D01*
X102472142Y-108075714D01*
X102543571Y-108361428D01*
X102615000Y-108504285D01*
X102757857Y-108647142D01*
X102972142Y-108718571D01*
X103115000Y-108718571D01*
X103329285Y-108647142D01*
X103400714Y-108575714D01*
X103400714Y-108075714D01*
X103115000Y-108075714D01*
X106043571Y-108718571D02*
X105543571Y-108004285D01*
X105186428Y-108718571D02*
X105186428Y-107218571D01*
X105757857Y-107218571D01*
X105900714Y-107290000D01*
X105972142Y-107361428D01*
X106043571Y-107504285D01*
X106043571Y-107718571D01*
X105972142Y-107861428D01*
X105900714Y-107932857D01*
X105757857Y-108004285D01*
X105186428Y-108004285D01*
X106686428Y-107932857D02*
X107186428Y-107932857D01*
X107400714Y-108718571D02*
X106686428Y-108718571D01*
X106686428Y-107218571D01*
X107400714Y-107218571D01*
X107829285Y-107218571D02*
X108329285Y-108718571D01*
X108829285Y-107218571D01*
X110115000Y-108718571D02*
X109257857Y-108718571D01*
X109686428Y-108718571D02*
X109686428Y-107218571D01*
X109543571Y-107432857D01*
X109400714Y-107575714D01*
X109257857Y-107647142D01*
X91972142Y-111268571D02*
X91972142Y-109768571D01*
X92543571Y-109768571D01*
X92686428Y-109840000D01*
X92757857Y-109911428D01*
X92829285Y-110054285D01*
X92829285Y-110268571D01*
X92757857Y-110411428D01*
X92686428Y-110482857D01*
X92543571Y-110554285D01*
X91972142Y-110554285D01*
X93400714Y-111197142D02*
X93615000Y-111268571D01*
X93972142Y-111268571D01*
X94115000Y-111197142D01*
X94186428Y-111125714D01*
X94257857Y-110982857D01*
X94257857Y-110840000D01*
X94186428Y-110697142D01*
X94115000Y-110625714D01*
X93972142Y-110554285D01*
X93686428Y-110482857D01*
X93543571Y-110411428D01*
X93472142Y-110340000D01*
X93400714Y-110197142D01*
X93400714Y-110054285D01*
X93472142Y-109911428D01*
X93543571Y-109840000D01*
X93686428Y-109768571D01*
X94043571Y-109768571D01*
X94257857Y-109840000D01*
X95686428Y-109840000D02*
X95543571Y-109768571D01*
X95329285Y-109768571D01*
X95115000Y-109840000D01*
X94972142Y-109982857D01*
X94900714Y-110125714D01*
X94829285Y-110411428D01*
X94829285Y-110625714D01*
X94900714Y-110911428D01*
X94972142Y-111054285D01*
X95115000Y-111197142D01*
X95329285Y-111268571D01*
X95472142Y-111268571D01*
X95686428Y-111197142D01*
X95757857Y-111125714D01*
X95757857Y-110625714D01*
X95472142Y-110625714D01*
X98757857Y-111268571D02*
X98686428Y-111268571D01*
X98543571Y-111197142D01*
X98329285Y-110982857D01*
X97972142Y-110554285D01*
X97829285Y-110340000D01*
X97757857Y-110125714D01*
X97757857Y-109982857D01*
X97829285Y-109840000D01*
X97972142Y-109768571D01*
X98043571Y-109768571D01*
X98186428Y-109840000D01*
X98257857Y-109982857D01*
X98257857Y-110054285D01*
X98186428Y-110197142D01*
X98115000Y-110268571D01*
X97686428Y-110554285D01*
X97615000Y-110625714D01*
X97543571Y-110768571D01*
X97543571Y-110982857D01*
X97615000Y-111125714D01*
X97686428Y-111197142D01*
X97829285Y-111268571D01*
X98043571Y-111268571D01*
X98186428Y-111197142D01*
X98257857Y-111125714D01*
X98472142Y-110840000D01*
X98543571Y-110625714D01*
X98543571Y-110482857D01*
X100972142Y-109768571D02*
X100972142Y-110840000D01*
X100900714Y-111054285D01*
X100757857Y-111197142D01*
X100543571Y-111268571D01*
X100400714Y-111268571D01*
X101972142Y-109768571D02*
X102257857Y-109768571D01*
X102400714Y-109840000D01*
X102543571Y-109982857D01*
X102615000Y-110268571D01*
X102615000Y-110768571D01*
X102543571Y-111054285D01*
X102400714Y-111197142D01*
X102257857Y-111268571D01*
X101972142Y-111268571D01*
X101829285Y-111197142D01*
X101686428Y-111054285D01*
X101615000Y-110768571D01*
X101615000Y-110268571D01*
X101686428Y-109982857D01*
X101829285Y-109840000D01*
X101972142Y-109768571D01*
X103543571Y-110554285D02*
X103543571Y-111268571D01*
X103043571Y-109768571D02*
X103543571Y-110554285D01*
X104043571Y-109768571D01*
X104472142Y-111197142D02*
X104686428Y-111268571D01*
X105043571Y-111268571D01*
X105186428Y-111197142D01*
X105257857Y-111125714D01*
X105329285Y-110982857D01*
X105329285Y-110840000D01*
X105257857Y-110697142D01*
X105186428Y-110625714D01*
X105043571Y-110554285D01*
X104757857Y-110482857D01*
X104615000Y-110411428D01*
X104543571Y-110340000D01*
X104472142Y-110197142D01*
X104472142Y-110054285D01*
X104543571Y-109911428D01*
X104615000Y-109840000D01*
X104757857Y-109768571D01*
X105115000Y-109768571D01*
X105329285Y-109840000D01*
X105757857Y-109768571D02*
X106615000Y-109768571D01*
X106186428Y-111268571D02*
X106186428Y-109768571D01*
X107115000Y-111268571D02*
X107115000Y-109768571D01*
X108686428Y-111125714D02*
X108615000Y-111197142D01*
X108400714Y-111268571D01*
X108257857Y-111268571D01*
X108043571Y-111197142D01*
X107900714Y-111054285D01*
X107829285Y-110911428D01*
X107757857Y-110625714D01*
X107757857Y-110411428D01*
X107829285Y-110125714D01*
X107900714Y-109982857D01*
X108043571Y-109840000D01*
X108257857Y-109768571D01*
X108400714Y-109768571D01*
X108615000Y-109840000D01*
X108686428Y-109911428D01*
X109329285Y-111268571D02*
X109329285Y-109768571D01*
X110186428Y-111268571D02*
X109543571Y-110411428D01*
X110186428Y-109768571D02*
X109329285Y-110625714D01*
X92472142Y-113032857D02*
X92686428Y-113104285D01*
X92757857Y-113175714D01*
X92829285Y-113318571D01*
X92829285Y-113532857D01*
X92757857Y-113675714D01*
X92686428Y-113747142D01*
X92543571Y-113818571D01*
X91972142Y-113818571D01*
X91972142Y-112318571D01*
X92472142Y-112318571D01*
X92615000Y-112390000D01*
X92686428Y-112461428D01*
X92757857Y-112604285D01*
X92757857Y-112747142D01*
X92686428Y-112890000D01*
X92615000Y-112961428D01*
X92472142Y-113032857D01*
X91972142Y-113032857D01*
X93757857Y-112318571D02*
X94043571Y-112318571D01*
X94186428Y-112390000D01*
X94329285Y-112532857D01*
X94400714Y-112818571D01*
X94400714Y-113318571D01*
X94329285Y-113604285D01*
X94186428Y-113747142D01*
X94043571Y-113818571D01*
X93757857Y-113818571D01*
X93615000Y-113747142D01*
X93472142Y-113604285D01*
X93400714Y-113318571D01*
X93400714Y-112818571D01*
X93472142Y-112532857D01*
X93615000Y-112390000D01*
X93757857Y-112318571D01*
X94972142Y-113390000D02*
X95686428Y-113390000D01*
X94829285Y-113818571D02*
X95329285Y-112318571D01*
X95829285Y-113818571D01*
X97186428Y-113818571D02*
X96686428Y-113104285D01*
X96329285Y-113818571D02*
X96329285Y-112318571D01*
X96900714Y-112318571D01*
X97043571Y-112390000D01*
X97115000Y-112461428D01*
X97186428Y-112604285D01*
X97186428Y-112818571D01*
X97115000Y-112961428D01*
X97043571Y-113032857D01*
X96900714Y-113104285D01*
X96329285Y-113104285D01*
X97829285Y-113818571D02*
X97829285Y-112318571D01*
X98186428Y-112318571D01*
X98400714Y-112390000D01*
X98543571Y-112532857D01*
X98615000Y-112675714D01*
X98686428Y-112961428D01*
X98686428Y-113175714D01*
X98615000Y-113461428D01*
X98543571Y-113604285D01*
X98400714Y-113747142D01*
X98186428Y-113818571D01*
X97829285Y-113818571D01*
D11*
X167404761Y-63571428D02*
X167452380Y-63428571D01*
X167452380Y-63190476D01*
X167404761Y-63095238D01*
X167357142Y-63047619D01*
X167261904Y-63000000D01*
X167166666Y-63000000D01*
X167071428Y-63047619D01*
X167023809Y-63095238D01*
X166976190Y-63190476D01*
X166928571Y-63380952D01*
X166880952Y-63476190D01*
X166833333Y-63523809D01*
X166738095Y-63571428D01*
X166642857Y-63571428D01*
X166547619Y-63523809D01*
X166500000Y-63476190D01*
X166452380Y-63380952D01*
X166452380Y-63142857D01*
X166500000Y-63000000D01*
X166928571Y-62238095D02*
X166976190Y-62095238D01*
X167023809Y-62047619D01*
X167119047Y-62000000D01*
X167261904Y-62000000D01*
X167357142Y-62047619D01*
X167404761Y-62095238D01*
X167452380Y-62190476D01*
X167452380Y-62571428D01*
X166452380Y-62571428D01*
X166452380Y-62238095D01*
X166500000Y-62142857D01*
X166547619Y-62095238D01*
X166642857Y-62047619D01*
X166738095Y-62047619D01*
X166833333Y-62095238D01*
X166880952Y-62142857D01*
X166928571Y-62238095D01*
X166928571Y-62571428D01*
X167357142Y-61000000D02*
X167404761Y-61047619D01*
X167452380Y-61190476D01*
X167452380Y-61285714D01*
X167404761Y-61428571D01*
X167309523Y-61523809D01*
X167214285Y-61571428D01*
X167023809Y-61619047D01*
X166880952Y-61619047D01*
X166690476Y-61571428D01*
X166595238Y-61523809D01*
X166500000Y-61428571D01*
X166452380Y-61285714D01*
X166452380Y-61190476D01*
X166500000Y-61047619D01*
X166547619Y-61000000D01*
X166880952Y-60428571D02*
X166833333Y-60523809D01*
X166785714Y-60571428D01*
X166690476Y-60619047D01*
X166642857Y-60619047D01*
X166547619Y-60571428D01*
X166500000Y-60523809D01*
X166452380Y-60428571D01*
X166452380Y-60238095D01*
X166500000Y-60142857D01*
X166547619Y-60095238D01*
X166642857Y-60047619D01*
X166690476Y-60047619D01*
X166785714Y-60095238D01*
X166833333Y-60142857D01*
X166880952Y-60238095D01*
X166880952Y-60428571D01*
X166928571Y-60523809D01*
X166976190Y-60571428D01*
X167071428Y-60619047D01*
X167261904Y-60619047D01*
X167357142Y-60571428D01*
X167404761Y-60523809D01*
X167452380Y-60428571D01*
X167452380Y-60238095D01*
X167404761Y-60142857D01*
X167357142Y-60095238D01*
X167261904Y-60047619D01*
X167071428Y-60047619D01*
X166976190Y-60095238D01*
X166928571Y-60142857D01*
X166880952Y-60238095D01*
X166452380Y-59428571D02*
X166452380Y-59333333D01*
X166500000Y-59238095D01*
X166547619Y-59190476D01*
X166642857Y-59142857D01*
X166833333Y-59095238D01*
X167071428Y-59095238D01*
X167261904Y-59142857D01*
X167357142Y-59190476D01*
X167404761Y-59238095D01*
X167452380Y-59333333D01*
X167452380Y-59428571D01*
X167404761Y-59523809D01*
X167357142Y-59571428D01*
X167261904Y-59619047D01*
X167071428Y-59666666D01*
X166833333Y-59666666D01*
X166642857Y-59619047D01*
X166547619Y-59571428D01*
X166500000Y-59523809D01*
X166452380Y-59428571D01*
X166880952Y-58523809D02*
X166833333Y-58619047D01*
X166785714Y-58666666D01*
X166690476Y-58714285D01*
X166642857Y-58714285D01*
X166547619Y-58666666D01*
X166500000Y-58619047D01*
X166452380Y-58523809D01*
X166452380Y-58333333D01*
X166500000Y-58238095D01*
X166547619Y-58190476D01*
X166642857Y-58142857D01*
X166690476Y-58142857D01*
X166785714Y-58190476D01*
X166833333Y-58238095D01*
X166880952Y-58333333D01*
X166880952Y-58523809D01*
X166928571Y-58619047D01*
X166976190Y-58666666D01*
X167071428Y-58714285D01*
X167261904Y-58714285D01*
X167357142Y-58666666D01*
X167404761Y-58619047D01*
X167452380Y-58523809D01*
X167452380Y-58333333D01*
X167404761Y-58238095D01*
X167357142Y-58190476D01*
X167261904Y-58142857D01*
X167071428Y-58142857D01*
X166976190Y-58190476D01*
X166928571Y-58238095D01*
X166880952Y-58333333D01*
X166452380Y-57523809D02*
X166452380Y-57428571D01*
X166500000Y-57333333D01*
X166547619Y-57285714D01*
X166642857Y-57238095D01*
X166833333Y-57190476D01*
X167071428Y-57190476D01*
X167261904Y-57238095D01*
X167357142Y-57285714D01*
X167404761Y-57333333D01*
X167452380Y-57428571D01*
X167452380Y-57523809D01*
X167404761Y-57619047D01*
X167357142Y-57666666D01*
X167261904Y-57714285D01*
X167071428Y-57761904D01*
X166833333Y-57761904D01*
X166642857Y-57714285D01*
X166547619Y-57666666D01*
X166500000Y-57619047D01*
X166452380Y-57523809D01*
X166928571Y-55666666D02*
X166976190Y-55523809D01*
X167023809Y-55476190D01*
X167119047Y-55428571D01*
X167261904Y-55428571D01*
X167357142Y-55476190D01*
X167404761Y-55523809D01*
X167452380Y-55619047D01*
X167452380Y-56000000D01*
X166452380Y-56000000D01*
X166452380Y-55666666D01*
X166500000Y-55571428D01*
X166547619Y-55523809D01*
X166642857Y-55476190D01*
X166738095Y-55476190D01*
X166833333Y-55523809D01*
X166880952Y-55571428D01*
X166928571Y-55666666D01*
X166928571Y-56000000D01*
X166452380Y-55000000D02*
X167261904Y-55000000D01*
X167357142Y-54952380D01*
X167404761Y-54904761D01*
X167452380Y-54809523D01*
X167452380Y-54619047D01*
X167404761Y-54523809D01*
X167357142Y-54476190D01*
X167261904Y-54428571D01*
X166452380Y-54428571D01*
X167404761Y-54000000D02*
X167452380Y-53857142D01*
X167452380Y-53619047D01*
X167404761Y-53523809D01*
X167357142Y-53476190D01*
X167261904Y-53428571D01*
X167166666Y-53428571D01*
X167071428Y-53476190D01*
X167023809Y-53523809D01*
X166976190Y-53619047D01*
X166928571Y-53809523D01*
X166880952Y-53904761D01*
X166833333Y-53952380D01*
X166738095Y-54000000D01*
X166642857Y-54000000D01*
X166547619Y-53952380D01*
X166500000Y-53904761D01*
X166452380Y-53809523D01*
X166452380Y-53571428D01*
X166500000Y-53428571D01*
D10*
X171301428Y-91628571D02*
X172301428Y-91628571D01*
X171658571Y-93128571D01*
X173515714Y-92128571D02*
X173515714Y-93128571D01*
X173158571Y-91557142D02*
X172801428Y-92628571D01*
X173730000Y-92628571D01*
X174301428Y-93128571D02*
X174301428Y-91628571D01*
X174301428Y-92342857D02*
X175158571Y-92342857D01*
X175158571Y-93128571D02*
X175158571Y-91628571D01*
X176730000Y-92985714D02*
X176658571Y-93057142D01*
X176444285Y-93128571D01*
X176301428Y-93128571D01*
X176087142Y-93057142D01*
X175944285Y-92914285D01*
X175872857Y-92771428D01*
X175801428Y-92485714D01*
X175801428Y-92271428D01*
X175872857Y-91985714D01*
X175944285Y-91842857D01*
X176087142Y-91700000D01*
X176301428Y-91628571D01*
X176444285Y-91628571D01*
X176658571Y-91700000D01*
X176730000Y-91771428D01*
X177658571Y-91628571D02*
X177801428Y-91628571D01*
X177944285Y-91700000D01*
X178015714Y-91771428D01*
X178087142Y-91914285D01*
X178158571Y-92200000D01*
X178158571Y-92557142D01*
X178087142Y-92842857D01*
X178015714Y-92985714D01*
X177944285Y-93057142D01*
X177801428Y-93128571D01*
X177658571Y-93128571D01*
X177515714Y-93057142D01*
X177444285Y-92985714D01*
X177372857Y-92842857D01*
X177301428Y-92557142D01*
X177301428Y-92200000D01*
X177372857Y-91914285D01*
X177444285Y-91771428D01*
X177515714Y-91700000D01*
X177658571Y-91628571D01*
X179087142Y-91628571D02*
X179230000Y-91628571D01*
X179372857Y-91700000D01*
X179444285Y-91771428D01*
X179515714Y-91914285D01*
X179587142Y-92200000D01*
X179587142Y-92557142D01*
X179515714Y-92842857D01*
X179444285Y-92985714D01*
X179372857Y-93057142D01*
X179230000Y-93128571D01*
X179087142Y-93128571D01*
X178944285Y-93057142D01*
X178872857Y-92985714D01*
X178801428Y-92842857D01*
X178730000Y-92557142D01*
X178730000Y-92200000D01*
X178801428Y-91914285D01*
X178872857Y-91771428D01*
X178944285Y-91700000D01*
X179087142Y-91628571D01*
X171671428Y-79648571D02*
X172671428Y-79648571D01*
X172028571Y-81148571D01*
X173885714Y-80148571D02*
X173885714Y-81148571D01*
X173528571Y-79577142D02*
X173171428Y-80648571D01*
X174100000Y-80648571D01*
X174671428Y-81148571D02*
X174671428Y-79648571D01*
X174671428Y-80362857D02*
X175528571Y-80362857D01*
X175528571Y-81148571D02*
X175528571Y-79648571D01*
X177100000Y-81005714D02*
X177028571Y-81077142D01*
X176814285Y-81148571D01*
X176671428Y-81148571D01*
X176457142Y-81077142D01*
X176314285Y-80934285D01*
X176242857Y-80791428D01*
X176171428Y-80505714D01*
X176171428Y-80291428D01*
X176242857Y-80005714D01*
X176314285Y-79862857D01*
X176457142Y-79720000D01*
X176671428Y-79648571D01*
X176814285Y-79648571D01*
X177028571Y-79720000D01*
X177100000Y-79791428D01*
X177600000Y-79648571D02*
X178600000Y-79648571D01*
X177957142Y-81148571D01*
X179814285Y-80148571D02*
X179814285Y-81148571D01*
X179457142Y-79577142D02*
X179100000Y-80648571D01*
X180028571Y-80648571D01*
X114681428Y-71048571D02*
X115681428Y-71048571D01*
X115038571Y-72548571D01*
X116895714Y-71548571D02*
X116895714Y-72548571D01*
X116538571Y-70977142D02*
X116181428Y-72048571D01*
X117110000Y-72048571D01*
X117681428Y-72548571D02*
X117681428Y-71048571D01*
X117681428Y-71762857D02*
X118538571Y-71762857D01*
X118538571Y-72548571D02*
X118538571Y-71048571D01*
X120110000Y-72405714D02*
X120038571Y-72477142D01*
X119824285Y-72548571D01*
X119681428Y-72548571D01*
X119467142Y-72477142D01*
X119324285Y-72334285D01*
X119252857Y-72191428D01*
X119181428Y-71905714D01*
X119181428Y-71691428D01*
X119252857Y-71405714D01*
X119324285Y-71262857D01*
X119467142Y-71120000D01*
X119681428Y-71048571D01*
X119824285Y-71048571D01*
X120038571Y-71120000D01*
X120110000Y-71191428D01*
X121038571Y-71048571D02*
X121181428Y-71048571D01*
X121324285Y-71120000D01*
X121395714Y-71191428D01*
X121467142Y-71334285D01*
X121538571Y-71620000D01*
X121538571Y-71977142D01*
X121467142Y-72262857D01*
X121395714Y-72405714D01*
X121324285Y-72477142D01*
X121181428Y-72548571D01*
X121038571Y-72548571D01*
X120895714Y-72477142D01*
X120824285Y-72405714D01*
X120752857Y-72262857D01*
X120681428Y-71977142D01*
X120681428Y-71620000D01*
X120752857Y-71334285D01*
X120824285Y-71191428D01*
X120895714Y-71120000D01*
X121038571Y-71048571D01*
X122110000Y-71191428D02*
X122181428Y-71120000D01*
X122324285Y-71048571D01*
X122681428Y-71048571D01*
X122824285Y-71120000D01*
X122895714Y-71191428D01*
X122967142Y-71334285D01*
X122967142Y-71477142D01*
X122895714Y-71691428D01*
X122038571Y-72548571D01*
X122967142Y-72548571D01*
X137297142Y-70958571D02*
X138297142Y-70958571D01*
X137654285Y-72458571D01*
X139511428Y-71458571D02*
X139511428Y-72458571D01*
X139154285Y-70887142D02*
X138797142Y-71958571D01*
X139725714Y-71958571D01*
X140297142Y-72458571D02*
X140297142Y-70958571D01*
X140297142Y-71672857D02*
X141154285Y-71672857D01*
X141154285Y-72458571D02*
X141154285Y-70958571D01*
X142725714Y-72315714D02*
X142654285Y-72387142D01*
X142440000Y-72458571D01*
X142297142Y-72458571D01*
X142082857Y-72387142D01*
X141940000Y-72244285D01*
X141868571Y-72101428D01*
X141797142Y-71815714D01*
X141797142Y-71601428D01*
X141868571Y-71315714D01*
X141940000Y-71172857D01*
X142082857Y-71030000D01*
X142297142Y-70958571D01*
X142440000Y-70958571D01*
X142654285Y-71030000D01*
X142725714Y-71101428D01*
X144154285Y-72458571D02*
X143297142Y-72458571D01*
X143725714Y-72458571D02*
X143725714Y-70958571D01*
X143582857Y-71172857D01*
X143440000Y-71315714D01*
X143297142Y-71387142D01*
X144654285Y-70958571D02*
X145582857Y-70958571D01*
X145082857Y-71530000D01*
X145297142Y-71530000D01*
X145440000Y-71601428D01*
X145511428Y-71672857D01*
X145582857Y-71815714D01*
X145582857Y-72172857D01*
X145511428Y-72315714D01*
X145440000Y-72387142D01*
X145297142Y-72458571D01*
X144868571Y-72458571D01*
X144725714Y-72387142D01*
X144654285Y-72315714D01*
X146440000Y-71601428D02*
X146297142Y-71530000D01*
X146225714Y-71458571D01*
X146154285Y-71315714D01*
X146154285Y-71244285D01*
X146225714Y-71101428D01*
X146297142Y-71030000D01*
X146440000Y-70958571D01*
X146725714Y-70958571D01*
X146868571Y-71030000D01*
X146940000Y-71101428D01*
X147011428Y-71244285D01*
X147011428Y-71315714D01*
X146940000Y-71458571D01*
X146868571Y-71530000D01*
X146725714Y-71601428D01*
X146440000Y-71601428D01*
X146297142Y-71672857D01*
X146225714Y-71744285D01*
X146154285Y-71887142D01*
X146154285Y-72172857D01*
X146225714Y-72315714D01*
X146297142Y-72387142D01*
X146440000Y-72458571D01*
X146725714Y-72458571D01*
X146868571Y-72387142D01*
X146940000Y-72315714D01*
X147011428Y-72172857D01*
X147011428Y-71887142D01*
X146940000Y-71744285D01*
X146868571Y-71672857D01*
X146725714Y-71601428D01*
X122298571Y-86654285D02*
X122298571Y-87368571D01*
X121798571Y-85868571D02*
X122298571Y-86654285D01*
X122798571Y-85868571D01*
X123298571Y-87368571D02*
X123298571Y-85868571D01*
X123798571Y-86940000D01*
X124298571Y-85868571D01*
X124298571Y-87368571D01*
X124941428Y-86011428D02*
X125012857Y-85940000D01*
X125155714Y-85868571D01*
X125512857Y-85868571D01*
X125655714Y-85940000D01*
X125727142Y-86011428D01*
X125798571Y-86154285D01*
X125798571Y-86297142D01*
X125727142Y-86511428D01*
X124870000Y-87368571D01*
X125798571Y-87368571D01*
X127227142Y-87368571D02*
X126370000Y-87368571D01*
X126798571Y-87368571D02*
X126798571Y-85868571D01*
X126655714Y-86082857D01*
X126512857Y-86225714D01*
X126370000Y-86297142D01*
X128512857Y-86368571D02*
X128512857Y-87368571D01*
X128155714Y-85797142D02*
X127798571Y-86868571D01*
X128727142Y-86868571D01*
X129370000Y-87368571D02*
X129655714Y-87368571D01*
X129798571Y-87297142D01*
X129870000Y-87225714D01*
X130012857Y-87011428D01*
X130084285Y-86725714D01*
X130084285Y-86154285D01*
X130012857Y-86011428D01*
X129941428Y-85940000D01*
X129798571Y-85868571D01*
X129512857Y-85868571D01*
X129370000Y-85940000D01*
X129298571Y-86011428D01*
X129227142Y-86154285D01*
X129227142Y-86511428D01*
X129298571Y-86654285D01*
X129370000Y-86725714D01*
X129512857Y-86797142D01*
X129798571Y-86797142D01*
X129941428Y-86725714D01*
X130012857Y-86654285D01*
X130084285Y-86511428D01*
X133441428Y-87940000D02*
X133370000Y-87868571D01*
X133227142Y-87654285D01*
X133155714Y-87511428D01*
X133084285Y-87297142D01*
X133012857Y-86940000D01*
X133012857Y-86654285D01*
X133084285Y-86297142D01*
X133155714Y-86082857D01*
X133227142Y-85940000D01*
X133370000Y-85725714D01*
X133441428Y-85654285D01*
X133941428Y-86940000D02*
X134655714Y-86940000D01*
X133798571Y-87368571D02*
X134298571Y-85868571D01*
X134798571Y-87368571D01*
X135584285Y-86654285D02*
X135584285Y-87368571D01*
X135084285Y-85868571D02*
X135584285Y-86654285D01*
X136084285Y-85868571D01*
X136584285Y-86797142D02*
X137727142Y-86797142D01*
X138298571Y-85868571D02*
X139227142Y-85868571D01*
X138727142Y-86440000D01*
X138941428Y-86440000D01*
X139084285Y-86511428D01*
X139155714Y-86582857D01*
X139227142Y-86725714D01*
X139227142Y-87082857D01*
X139155714Y-87225714D01*
X139084285Y-87297142D01*
X138941428Y-87368571D01*
X138512857Y-87368571D01*
X138370000Y-87297142D01*
X138298571Y-87225714D01*
X139870000Y-86797142D02*
X141012857Y-86797142D01*
X141941428Y-86511428D02*
X141798571Y-86440000D01*
X141727142Y-86368571D01*
X141655714Y-86225714D01*
X141655714Y-86154285D01*
X141727142Y-86011428D01*
X141798571Y-85940000D01*
X141941428Y-85868571D01*
X142227142Y-85868571D01*
X142370000Y-85940000D01*
X142441428Y-86011428D01*
X142512857Y-86154285D01*
X142512857Y-86225714D01*
X142441428Y-86368571D01*
X142370000Y-86440000D01*
X142227142Y-86511428D01*
X141941428Y-86511428D01*
X141798571Y-86582857D01*
X141727142Y-86654285D01*
X141655714Y-86797142D01*
X141655714Y-87082857D01*
X141727142Y-87225714D01*
X141798571Y-87297142D01*
X141941428Y-87368571D01*
X142227142Y-87368571D01*
X142370000Y-87297142D01*
X142441428Y-87225714D01*
X142512857Y-87082857D01*
X142512857Y-86797142D01*
X142441428Y-86654285D01*
X142370000Y-86582857D01*
X142227142Y-86511428D01*
X143227142Y-87368571D02*
X143512857Y-87368571D01*
X143655714Y-87297142D01*
X143727142Y-87225714D01*
X143870000Y-87011428D01*
X143941428Y-86725714D01*
X143941428Y-86154285D01*
X143870000Y-86011428D01*
X143798571Y-85940000D01*
X143655714Y-85868571D01*
X143370000Y-85868571D01*
X143227142Y-85940000D01*
X143155714Y-86011428D01*
X143084285Y-86154285D01*
X143084285Y-86511428D01*
X143155714Y-86654285D01*
X143227142Y-86725714D01*
X143370000Y-86797142D01*
X143655714Y-86797142D01*
X143798571Y-86725714D01*
X143870000Y-86654285D01*
X143941428Y-86511428D01*
X145370000Y-87368571D02*
X144512857Y-87368571D01*
X144941428Y-87368571D02*
X144941428Y-85868571D01*
X144798571Y-86082857D01*
X144655714Y-86225714D01*
X144512857Y-86297142D01*
X146298571Y-85868571D02*
X146441428Y-85868571D01*
X146584285Y-85940000D01*
X146655714Y-86011428D01*
X146727142Y-86154285D01*
X146798571Y-86440000D01*
X146798571Y-86797142D01*
X146727142Y-87082857D01*
X146655714Y-87225714D01*
X146584285Y-87297142D01*
X146441428Y-87368571D01*
X146298571Y-87368571D01*
X146155714Y-87297142D01*
X146084285Y-87225714D01*
X146012857Y-87082857D01*
X145941428Y-86797142D01*
X145941428Y-86440000D01*
X146012857Y-86154285D01*
X146084285Y-86011428D01*
X146155714Y-85940000D01*
X146298571Y-85868571D01*
X147298571Y-87940000D02*
X147370000Y-87868571D01*
X147512857Y-87654285D01*
X147584285Y-87511428D01*
X147655714Y-87297142D01*
X147727142Y-86940000D01*
X147727142Y-86654285D01*
X147655714Y-86297142D01*
X147584285Y-86082857D01*
X147512857Y-85940000D01*
X147370000Y-85725714D01*
X147298571Y-85654285D01*
D12*
G04 #@! TO.C,C12*
X108120000Y-60750000D02*
G75*
G03X108120000Y-60750000I-2620000J0D01*
G01*
X102920000Y-60750000D02*
X108080000Y-60750000D01*
X102920000Y-60710000D02*
X108080000Y-60710000D01*
X102921000Y-60670000D02*
X108079000Y-60670000D01*
X102922000Y-60630000D02*
X108078000Y-60630000D01*
X102924000Y-60590000D02*
X108076000Y-60590000D01*
X102927000Y-60550000D02*
X108073000Y-60550000D01*
X102931000Y-60510000D02*
X104460000Y-60510000D01*
X106540000Y-60510000D02*
X108069000Y-60510000D01*
X102935000Y-60470000D02*
X104460000Y-60470000D01*
X106540000Y-60470000D02*
X108065000Y-60470000D01*
X102939000Y-60430000D02*
X104460000Y-60430000D01*
X106540000Y-60430000D02*
X108061000Y-60430000D01*
X102944000Y-60390000D02*
X104460000Y-60390000D01*
X106540000Y-60390000D02*
X108056000Y-60390000D01*
X102950000Y-60350000D02*
X104460000Y-60350000D01*
X106540000Y-60350000D02*
X108050000Y-60350000D01*
X102957000Y-60310000D02*
X104460000Y-60310000D01*
X106540000Y-60310000D02*
X108043000Y-60310000D01*
X102964000Y-60270000D02*
X104460000Y-60270000D01*
X106540000Y-60270000D02*
X108036000Y-60270000D01*
X102972000Y-60230000D02*
X104460000Y-60230000D01*
X106540000Y-60230000D02*
X108028000Y-60230000D01*
X102980000Y-60190000D02*
X104460000Y-60190000D01*
X106540000Y-60190000D02*
X108020000Y-60190000D01*
X102989000Y-60150000D02*
X104460000Y-60150000D01*
X106540000Y-60150000D02*
X108011000Y-60150000D01*
X102999000Y-60110000D02*
X104460000Y-60110000D01*
X106540000Y-60110000D02*
X108001000Y-60110000D01*
X103009000Y-60070000D02*
X104460000Y-60070000D01*
X106540000Y-60070000D02*
X107991000Y-60070000D01*
X103020000Y-60029000D02*
X104460000Y-60029000D01*
X106540000Y-60029000D02*
X107980000Y-60029000D01*
X103032000Y-59989000D02*
X104460000Y-59989000D01*
X106540000Y-59989000D02*
X107968000Y-59989000D01*
X103045000Y-59949000D02*
X104460000Y-59949000D01*
X106540000Y-59949000D02*
X107955000Y-59949000D01*
X103058000Y-59909000D02*
X104460000Y-59909000D01*
X106540000Y-59909000D02*
X107942000Y-59909000D01*
X103072000Y-59869000D02*
X104460000Y-59869000D01*
X106540000Y-59869000D02*
X107928000Y-59869000D01*
X103086000Y-59829000D02*
X104460000Y-59829000D01*
X106540000Y-59829000D02*
X107914000Y-59829000D01*
X103102000Y-59789000D02*
X104460000Y-59789000D01*
X106540000Y-59789000D02*
X107898000Y-59789000D01*
X103118000Y-59749000D02*
X104460000Y-59749000D01*
X106540000Y-59749000D02*
X107882000Y-59749000D01*
X103135000Y-59709000D02*
X104460000Y-59709000D01*
X106540000Y-59709000D02*
X107865000Y-59709000D01*
X103152000Y-59669000D02*
X104460000Y-59669000D01*
X106540000Y-59669000D02*
X107848000Y-59669000D01*
X103171000Y-59629000D02*
X104460000Y-59629000D01*
X106540000Y-59629000D02*
X107829000Y-59629000D01*
X103190000Y-59589000D02*
X104460000Y-59589000D01*
X106540000Y-59589000D02*
X107810000Y-59589000D01*
X103210000Y-59549000D02*
X104460000Y-59549000D01*
X106540000Y-59549000D02*
X107790000Y-59549000D01*
X103232000Y-59509000D02*
X104460000Y-59509000D01*
X106540000Y-59509000D02*
X107768000Y-59509000D01*
X103253000Y-59469000D02*
X104460000Y-59469000D01*
X106540000Y-59469000D02*
X107747000Y-59469000D01*
X103276000Y-59429000D02*
X104460000Y-59429000D01*
X106540000Y-59429000D02*
X107724000Y-59429000D01*
X103300000Y-59389000D02*
X104460000Y-59389000D01*
X106540000Y-59389000D02*
X107700000Y-59389000D01*
X103325000Y-59349000D02*
X104460000Y-59349000D01*
X106540000Y-59349000D02*
X107675000Y-59349000D01*
X103351000Y-59309000D02*
X104460000Y-59309000D01*
X106540000Y-59309000D02*
X107649000Y-59309000D01*
X103378000Y-59269000D02*
X104460000Y-59269000D01*
X106540000Y-59269000D02*
X107622000Y-59269000D01*
X103405000Y-59229000D02*
X104460000Y-59229000D01*
X106540000Y-59229000D02*
X107595000Y-59229000D01*
X103435000Y-59189000D02*
X104460000Y-59189000D01*
X106540000Y-59189000D02*
X107565000Y-59189000D01*
X103465000Y-59149000D02*
X104460000Y-59149000D01*
X106540000Y-59149000D02*
X107535000Y-59149000D01*
X103496000Y-59109000D02*
X104460000Y-59109000D01*
X106540000Y-59109000D02*
X107504000Y-59109000D01*
X103529000Y-59069000D02*
X104460000Y-59069000D01*
X106540000Y-59069000D02*
X107471000Y-59069000D01*
X103563000Y-59029000D02*
X104460000Y-59029000D01*
X106540000Y-59029000D02*
X107437000Y-59029000D01*
X103599000Y-58989000D02*
X104460000Y-58989000D01*
X106540000Y-58989000D02*
X107401000Y-58989000D01*
X103636000Y-58949000D02*
X104460000Y-58949000D01*
X106540000Y-58949000D02*
X107364000Y-58949000D01*
X103674000Y-58909000D02*
X104460000Y-58909000D01*
X106540000Y-58909000D02*
X107326000Y-58909000D01*
X103715000Y-58869000D02*
X104460000Y-58869000D01*
X106540000Y-58869000D02*
X107285000Y-58869000D01*
X103757000Y-58829000D02*
X104460000Y-58829000D01*
X106540000Y-58829000D02*
X107243000Y-58829000D01*
X103801000Y-58789000D02*
X104460000Y-58789000D01*
X106540000Y-58789000D02*
X107199000Y-58789000D01*
X103847000Y-58749000D02*
X104460000Y-58749000D01*
X106540000Y-58749000D02*
X107153000Y-58749000D01*
X103895000Y-58709000D02*
X104460000Y-58709000D01*
X106540000Y-58709000D02*
X107105000Y-58709000D01*
X103946000Y-58669000D02*
X104460000Y-58669000D01*
X106540000Y-58669000D02*
X107054000Y-58669000D01*
X104000000Y-58629000D02*
X104460000Y-58629000D01*
X106540000Y-58629000D02*
X107000000Y-58629000D01*
X104057000Y-58589000D02*
X104460000Y-58589000D01*
X106540000Y-58589000D02*
X106943000Y-58589000D01*
X104117000Y-58549000D02*
X104460000Y-58549000D01*
X106540000Y-58549000D02*
X106883000Y-58549000D01*
X104181000Y-58509000D02*
X104460000Y-58509000D01*
X106540000Y-58509000D02*
X106819000Y-58509000D01*
X104249000Y-58469000D02*
X104460000Y-58469000D01*
X106540000Y-58469000D02*
X106751000Y-58469000D01*
X104322000Y-58429000D02*
X106678000Y-58429000D01*
X104402000Y-58389000D02*
X106598000Y-58389000D01*
X104489000Y-58349000D02*
X106511000Y-58349000D01*
X104585000Y-58309000D02*
X106415000Y-58309000D01*
X104695000Y-58269000D02*
X106305000Y-58269000D01*
X104823000Y-58229000D02*
X106177000Y-58229000D01*
X104982000Y-58189000D02*
X106018000Y-58189000D01*
X105216000Y-58149000D02*
X105784000Y-58149000D01*
X104025000Y-63554775D02*
X104025000Y-63054775D01*
X103775000Y-63304775D02*
X104275000Y-63304775D01*
G04 #@! TO.C,RN1*
X141570000Y-109040000D02*
X141570000Y-111840000D01*
X162060000Y-109040000D02*
X138860000Y-109040000D01*
X162060000Y-111840000D02*
X162060000Y-109040000D01*
X138860000Y-111840000D02*
X162060000Y-111840000D01*
X138860000Y-109040000D02*
X138860000Y-111840000D01*
G04 #@! TO.C,RN2*
X114060000Y-109000000D02*
X114060000Y-111800000D01*
X114060000Y-111800000D02*
X137260000Y-111800000D01*
X137260000Y-111800000D02*
X137260000Y-109000000D01*
X137260000Y-109000000D02*
X114060000Y-109000000D01*
X116770000Y-109000000D02*
X116770000Y-111800000D01*
G04 #@! TO.C,J5*
X155000000Y-113678675D02*
X154750000Y-113245662D01*
X155250000Y-113245662D02*
X155000000Y-113678675D01*
X154750000Y-113245662D02*
X155250000Y-113245662D01*
X169150000Y-122780000D02*
X169150000Y-126880000D01*
X167140000Y-122780000D02*
X169150000Y-122780000D01*
X167140000Y-113940000D02*
X167140000Y-122780000D01*
X153940000Y-113940000D02*
X167140000Y-113940000D01*
X153940000Y-122780000D02*
X153940000Y-113940000D01*
X151930000Y-122780000D02*
X153940000Y-122780000D01*
X151930000Y-126880000D02*
X151930000Y-122780000D01*
G04 #@! TO.C,C9*
X163990000Y-88531000D02*
X163990000Y-89789000D01*
X165830000Y-88531000D02*
X165830000Y-89789000D01*
G04 #@! TO.C,C10*
X113380000Y-98911000D02*
X113380000Y-100169000D01*
X111540000Y-98911000D02*
X111540000Y-100169000D01*
G04 #@! TO.C,U7*
X114170000Y-101590000D02*
G75*
G02X114170000Y-103590000I0J-1000000D01*
G01*
X114170000Y-103590000D02*
X114170000Y-105240000D01*
X114170000Y-105240000D02*
X134610000Y-105240000D01*
X134610000Y-105240000D02*
X134610000Y-99940000D01*
X134610000Y-99940000D02*
X114170000Y-99940000D01*
X114170000Y-99940000D02*
X114170000Y-101590000D01*
X114110000Y-107730000D02*
X134670000Y-107730000D01*
X134670000Y-107730000D02*
X134670000Y-97450000D01*
X134670000Y-97450000D02*
X114110000Y-97450000D01*
X114110000Y-97450000D02*
X114110000Y-107730000D01*
G04 #@! TO.C,R8*
X180230000Y-101560000D02*
X180230000Y-102330000D01*
X180230000Y-109640000D02*
X180230000Y-108870000D01*
X178860000Y-102330000D02*
X178860000Y-108870000D01*
X181600000Y-102330000D02*
X178860000Y-102330000D01*
X181600000Y-108870000D02*
X181600000Y-102330000D01*
X178860000Y-108870000D02*
X181600000Y-108870000D01*
G04 #@! TO.C,R7*
X182180000Y-108920000D02*
X184920000Y-108920000D01*
X184920000Y-108920000D02*
X184920000Y-102380000D01*
X184920000Y-102380000D02*
X182180000Y-102380000D01*
X182180000Y-102380000D02*
X182180000Y-108920000D01*
X183550000Y-109690000D02*
X183550000Y-108920000D01*
X183550000Y-101610000D02*
X183550000Y-102380000D01*
G04 #@! TO.C,C7*
X110030000Y-79731000D02*
X110030000Y-80989000D01*
X108190000Y-79731000D02*
X108190000Y-80989000D01*
G04 #@! TO.C,C6*
X130810000Y-68021000D02*
X130810000Y-69279000D01*
X132650000Y-68021000D02*
X132650000Y-69279000D01*
G04 #@! TO.C,C5*
X110470000Y-68021000D02*
X110470000Y-69279000D01*
X108630000Y-68021000D02*
X108630000Y-69279000D01*
G04 #@! TO.C,C4*
X166441000Y-109290000D02*
X167699000Y-109290000D01*
X166441000Y-107450000D02*
X167699000Y-107450000D01*
G04 #@! TO.C,C3*
X174689000Y-109270000D02*
X173431000Y-109270000D01*
X174689000Y-107430000D02*
X173431000Y-107430000D01*
G04 #@! TO.C,Y1*
X173685000Y-106160000D02*
X167435000Y-106160000D01*
X173685000Y-101110000D02*
X167435000Y-101110000D01*
X173685000Y-101110000D02*
G75*
G02X173685000Y-106160000I0J-2525000D01*
G01*
X167435000Y-101110000D02*
G75*
G03X167435000Y-106160000I0J-2525000D01*
G01*
G04 #@! TO.C,U3*
X111235000Y-66615000D02*
X111235000Y-76895000D01*
X129255000Y-66615000D02*
X111235000Y-66615000D01*
X129255000Y-76895000D02*
X129255000Y-66615000D01*
X111235000Y-76895000D02*
X129255000Y-76895000D01*
X111295000Y-69105000D02*
X111295000Y-70755000D01*
X129195000Y-69105000D02*
X111295000Y-69105000D01*
X129195000Y-74405000D02*
X129195000Y-69105000D01*
X111295000Y-74405000D02*
X129195000Y-74405000D01*
X111295000Y-72755000D02*
X111295000Y-74405000D01*
X111295000Y-70755000D02*
G75*
G02X111295000Y-72755000I0J-1000000D01*
G01*
G04 #@! TO.C,R6*
X104541300Y-103820000D02*
X103771300Y-103820000D01*
X96461300Y-103820000D02*
X97231300Y-103820000D01*
X103771300Y-102450000D02*
X97231300Y-102450000D01*
X103771300Y-105190000D02*
X103771300Y-102450000D01*
X97231300Y-105190000D02*
X103771300Y-105190000D01*
X97231300Y-102450000D02*
X97231300Y-105190000D01*
G04 #@! TO.C,R5*
X103771000Y-102190000D02*
X103771000Y-99450000D01*
X103771000Y-99450000D02*
X97231000Y-99450000D01*
X97231000Y-99450000D02*
X97231000Y-102190000D01*
X97231000Y-102190000D02*
X103771000Y-102190000D01*
X104541000Y-100820000D02*
X103771000Y-100820000D01*
X96461000Y-100820000D02*
X97231000Y-100820000D01*
G04 #@! TO.C,R4*
X96461000Y-97820000D02*
X97231000Y-97820000D01*
X104541000Y-97820000D02*
X103771000Y-97820000D01*
X97231000Y-99190000D02*
X103771000Y-99190000D01*
X97231000Y-96450000D02*
X97231000Y-99190000D01*
X103771000Y-96450000D02*
X97231000Y-96450000D01*
X103771000Y-99190000D02*
X103771000Y-96450000D01*
G04 #@! TO.C,R2*
X104520000Y-91680000D02*
X103750000Y-91680000D01*
X96440000Y-91680000D02*
X97210000Y-91680000D01*
X103750000Y-90310000D02*
X97210000Y-90310000D01*
X103750000Y-93050000D02*
X103750000Y-90310000D01*
X97210000Y-93050000D02*
X103750000Y-93050000D01*
X97210000Y-90310000D02*
X97210000Y-93050000D01*
G04 #@! TO.C,R1*
X97210000Y-87230000D02*
X97210000Y-89970000D01*
X97210000Y-89970000D02*
X103750000Y-89970000D01*
X103750000Y-89970000D02*
X103750000Y-87230000D01*
X103750000Y-87230000D02*
X97210000Y-87230000D01*
X96440000Y-88600000D02*
X97210000Y-88600000D01*
X104520000Y-88600000D02*
X103750000Y-88600000D01*
G04 #@! TO.C,C1*
X97870000Y-62000000D02*
G75*
G03X97870000Y-62000000I-2620000J0D01*
G01*
X95250000Y-59420000D02*
X95250000Y-64580000D01*
X95290000Y-59420000D02*
X95290000Y-64580000D01*
X95330000Y-59421000D02*
X95330000Y-64579000D01*
X95370000Y-59422000D02*
X95370000Y-64578000D01*
X95410000Y-59424000D02*
X95410000Y-64576000D01*
X95450000Y-59427000D02*
X95450000Y-64573000D01*
X95490000Y-59431000D02*
X95490000Y-60960000D01*
X95490000Y-63040000D02*
X95490000Y-64569000D01*
X95530000Y-59435000D02*
X95530000Y-60960000D01*
X95530000Y-63040000D02*
X95530000Y-64565000D01*
X95570000Y-59439000D02*
X95570000Y-60960000D01*
X95570000Y-63040000D02*
X95570000Y-64561000D01*
X95610000Y-59444000D02*
X95610000Y-60960000D01*
X95610000Y-63040000D02*
X95610000Y-64556000D01*
X95650000Y-59450000D02*
X95650000Y-60960000D01*
X95650000Y-63040000D02*
X95650000Y-64550000D01*
X95690000Y-59457000D02*
X95690000Y-60960000D01*
X95690000Y-63040000D02*
X95690000Y-64543000D01*
X95730000Y-59464000D02*
X95730000Y-60960000D01*
X95730000Y-63040000D02*
X95730000Y-64536000D01*
X95770000Y-59472000D02*
X95770000Y-60960000D01*
X95770000Y-63040000D02*
X95770000Y-64528000D01*
X95810000Y-59480000D02*
X95810000Y-60960000D01*
X95810000Y-63040000D02*
X95810000Y-64520000D01*
X95850000Y-59489000D02*
X95850000Y-60960000D01*
X95850000Y-63040000D02*
X95850000Y-64511000D01*
X95890000Y-59499000D02*
X95890000Y-60960000D01*
X95890000Y-63040000D02*
X95890000Y-64501000D01*
X95930000Y-59509000D02*
X95930000Y-60960000D01*
X95930000Y-63040000D02*
X95930000Y-64491000D01*
X95971000Y-59520000D02*
X95971000Y-60960000D01*
X95971000Y-63040000D02*
X95971000Y-64480000D01*
X96011000Y-59532000D02*
X96011000Y-60960000D01*
X96011000Y-63040000D02*
X96011000Y-64468000D01*
X96051000Y-59545000D02*
X96051000Y-60960000D01*
X96051000Y-63040000D02*
X96051000Y-64455000D01*
X96091000Y-59558000D02*
X96091000Y-60960000D01*
X96091000Y-63040000D02*
X96091000Y-64442000D01*
X96131000Y-59572000D02*
X96131000Y-60960000D01*
X96131000Y-63040000D02*
X96131000Y-64428000D01*
X96171000Y-59586000D02*
X96171000Y-60960000D01*
X96171000Y-63040000D02*
X96171000Y-64414000D01*
X96211000Y-59602000D02*
X96211000Y-60960000D01*
X96211000Y-63040000D02*
X96211000Y-64398000D01*
X96251000Y-59618000D02*
X96251000Y-60960000D01*
X96251000Y-63040000D02*
X96251000Y-64382000D01*
X96291000Y-59635000D02*
X96291000Y-60960000D01*
X96291000Y-63040000D02*
X96291000Y-64365000D01*
X96331000Y-59652000D02*
X96331000Y-60960000D01*
X96331000Y-63040000D02*
X96331000Y-64348000D01*
X96371000Y-59671000D02*
X96371000Y-60960000D01*
X96371000Y-63040000D02*
X96371000Y-64329000D01*
X96411000Y-59690000D02*
X96411000Y-60960000D01*
X96411000Y-63040000D02*
X96411000Y-64310000D01*
X96451000Y-59710000D02*
X96451000Y-60960000D01*
X96451000Y-63040000D02*
X96451000Y-64290000D01*
X96491000Y-59732000D02*
X96491000Y-60960000D01*
X96491000Y-63040000D02*
X96491000Y-64268000D01*
X96531000Y-59753000D02*
X96531000Y-60960000D01*
X96531000Y-63040000D02*
X96531000Y-64247000D01*
X96571000Y-59776000D02*
X96571000Y-60960000D01*
X96571000Y-63040000D02*
X96571000Y-64224000D01*
X96611000Y-59800000D02*
X96611000Y-60960000D01*
X96611000Y-63040000D02*
X96611000Y-64200000D01*
X96651000Y-59825000D02*
X96651000Y-60960000D01*
X96651000Y-63040000D02*
X96651000Y-64175000D01*
X96691000Y-59851000D02*
X96691000Y-60960000D01*
X96691000Y-63040000D02*
X96691000Y-64149000D01*
X96731000Y-59878000D02*
X96731000Y-60960000D01*
X96731000Y-63040000D02*
X96731000Y-64122000D01*
X96771000Y-59905000D02*
X96771000Y-60960000D01*
X96771000Y-63040000D02*
X96771000Y-64095000D01*
X96811000Y-59935000D02*
X96811000Y-60960000D01*
X96811000Y-63040000D02*
X96811000Y-64065000D01*
X96851000Y-59965000D02*
X96851000Y-60960000D01*
X96851000Y-63040000D02*
X96851000Y-64035000D01*
X96891000Y-59996000D02*
X96891000Y-60960000D01*
X96891000Y-63040000D02*
X96891000Y-64004000D01*
X96931000Y-60029000D02*
X96931000Y-60960000D01*
X96931000Y-63040000D02*
X96931000Y-63971000D01*
X96971000Y-60063000D02*
X96971000Y-60960000D01*
X96971000Y-63040000D02*
X96971000Y-63937000D01*
X97011000Y-60099000D02*
X97011000Y-60960000D01*
X97011000Y-63040000D02*
X97011000Y-63901000D01*
X97051000Y-60136000D02*
X97051000Y-60960000D01*
X97051000Y-63040000D02*
X97051000Y-63864000D01*
X97091000Y-60174000D02*
X97091000Y-60960000D01*
X97091000Y-63040000D02*
X97091000Y-63826000D01*
X97131000Y-60215000D02*
X97131000Y-60960000D01*
X97131000Y-63040000D02*
X97131000Y-63785000D01*
X97171000Y-60257000D02*
X97171000Y-60960000D01*
X97171000Y-63040000D02*
X97171000Y-63743000D01*
X97211000Y-60301000D02*
X97211000Y-60960000D01*
X97211000Y-63040000D02*
X97211000Y-63699000D01*
X97251000Y-60347000D02*
X97251000Y-60960000D01*
X97251000Y-63040000D02*
X97251000Y-63653000D01*
X97291000Y-60395000D02*
X97291000Y-60960000D01*
X97291000Y-63040000D02*
X97291000Y-63605000D01*
X97331000Y-60446000D02*
X97331000Y-60960000D01*
X97331000Y-63040000D02*
X97331000Y-63554000D01*
X97371000Y-60500000D02*
X97371000Y-60960000D01*
X97371000Y-63040000D02*
X97371000Y-63500000D01*
X97411000Y-60557000D02*
X97411000Y-60960000D01*
X97411000Y-63040000D02*
X97411000Y-63443000D01*
X97451000Y-60617000D02*
X97451000Y-60960000D01*
X97451000Y-63040000D02*
X97451000Y-63383000D01*
X97491000Y-60681000D02*
X97491000Y-60960000D01*
X97491000Y-63040000D02*
X97491000Y-63319000D01*
X97531000Y-60749000D02*
X97531000Y-60960000D01*
X97531000Y-63040000D02*
X97531000Y-63251000D01*
X97571000Y-60822000D02*
X97571000Y-63178000D01*
X97611000Y-60902000D02*
X97611000Y-63098000D01*
X97651000Y-60989000D02*
X97651000Y-63011000D01*
X97691000Y-61085000D02*
X97691000Y-62915000D01*
X97731000Y-61195000D02*
X97731000Y-62805000D01*
X97771000Y-61323000D02*
X97771000Y-62677000D01*
X97811000Y-61482000D02*
X97811000Y-62518000D01*
X97851000Y-61716000D02*
X97851000Y-62284000D01*
X92445225Y-60525000D02*
X92945225Y-60525000D01*
X92695225Y-60275000D02*
X92695225Y-60775000D01*
G04 #@! TO.C,C2*
X92695225Y-80775000D02*
X92695225Y-81275000D01*
X92445225Y-81025000D02*
X92945225Y-81025000D01*
X97851000Y-82216000D02*
X97851000Y-82784000D01*
X97811000Y-81982000D02*
X97811000Y-83018000D01*
X97771000Y-81823000D02*
X97771000Y-83177000D01*
X97731000Y-81695000D02*
X97731000Y-83305000D01*
X97691000Y-81585000D02*
X97691000Y-83415000D01*
X97651000Y-81489000D02*
X97651000Y-83511000D01*
X97611000Y-81402000D02*
X97611000Y-83598000D01*
X97571000Y-81322000D02*
X97571000Y-83678000D01*
X97531000Y-83540000D02*
X97531000Y-83751000D01*
X97531000Y-81249000D02*
X97531000Y-81460000D01*
X97491000Y-83540000D02*
X97491000Y-83819000D01*
X97491000Y-81181000D02*
X97491000Y-81460000D01*
X97451000Y-83540000D02*
X97451000Y-83883000D01*
X97451000Y-81117000D02*
X97451000Y-81460000D01*
X97411000Y-83540000D02*
X97411000Y-83943000D01*
X97411000Y-81057000D02*
X97411000Y-81460000D01*
X97371000Y-83540000D02*
X97371000Y-84000000D01*
X97371000Y-81000000D02*
X97371000Y-81460000D01*
X97331000Y-83540000D02*
X97331000Y-84054000D01*
X97331000Y-80946000D02*
X97331000Y-81460000D01*
X97291000Y-83540000D02*
X97291000Y-84105000D01*
X97291000Y-80895000D02*
X97291000Y-81460000D01*
X97251000Y-83540000D02*
X97251000Y-84153000D01*
X97251000Y-80847000D02*
X97251000Y-81460000D01*
X97211000Y-83540000D02*
X97211000Y-84199000D01*
X97211000Y-80801000D02*
X97211000Y-81460000D01*
X97171000Y-83540000D02*
X97171000Y-84243000D01*
X97171000Y-80757000D02*
X97171000Y-81460000D01*
X97131000Y-83540000D02*
X97131000Y-84285000D01*
X97131000Y-80715000D02*
X97131000Y-81460000D01*
X97091000Y-83540000D02*
X97091000Y-84326000D01*
X97091000Y-80674000D02*
X97091000Y-81460000D01*
X97051000Y-83540000D02*
X97051000Y-84364000D01*
X97051000Y-80636000D02*
X97051000Y-81460000D01*
X97011000Y-83540000D02*
X97011000Y-84401000D01*
X97011000Y-80599000D02*
X97011000Y-81460000D01*
X96971000Y-83540000D02*
X96971000Y-84437000D01*
X96971000Y-80563000D02*
X96971000Y-81460000D01*
X96931000Y-83540000D02*
X96931000Y-84471000D01*
X96931000Y-80529000D02*
X96931000Y-81460000D01*
X96891000Y-83540000D02*
X96891000Y-84504000D01*
X96891000Y-80496000D02*
X96891000Y-81460000D01*
X96851000Y-83540000D02*
X96851000Y-84535000D01*
X96851000Y-80465000D02*
X96851000Y-81460000D01*
X96811000Y-83540000D02*
X96811000Y-84565000D01*
X96811000Y-80435000D02*
X96811000Y-81460000D01*
X96771000Y-83540000D02*
X96771000Y-84595000D01*
X96771000Y-80405000D02*
X96771000Y-81460000D01*
X96731000Y-83540000D02*
X96731000Y-84622000D01*
X96731000Y-80378000D02*
X96731000Y-81460000D01*
X96691000Y-83540000D02*
X96691000Y-84649000D01*
X96691000Y-80351000D02*
X96691000Y-81460000D01*
X96651000Y-83540000D02*
X96651000Y-84675000D01*
X96651000Y-80325000D02*
X96651000Y-81460000D01*
X96611000Y-83540000D02*
X96611000Y-84700000D01*
X96611000Y-80300000D02*
X96611000Y-81460000D01*
X96571000Y-83540000D02*
X96571000Y-84724000D01*
X96571000Y-80276000D02*
X96571000Y-81460000D01*
X96531000Y-83540000D02*
X96531000Y-84747000D01*
X96531000Y-80253000D02*
X96531000Y-81460000D01*
X96491000Y-83540000D02*
X96491000Y-84768000D01*
X96491000Y-80232000D02*
X96491000Y-81460000D01*
X96451000Y-83540000D02*
X96451000Y-84790000D01*
X96451000Y-80210000D02*
X96451000Y-81460000D01*
X96411000Y-83540000D02*
X96411000Y-84810000D01*
X96411000Y-80190000D02*
X96411000Y-81460000D01*
X96371000Y-83540000D02*
X96371000Y-84829000D01*
X96371000Y-80171000D02*
X96371000Y-81460000D01*
X96331000Y-83540000D02*
X96331000Y-84848000D01*
X96331000Y-80152000D02*
X96331000Y-81460000D01*
X96291000Y-83540000D02*
X96291000Y-84865000D01*
X96291000Y-80135000D02*
X96291000Y-81460000D01*
X96251000Y-83540000D02*
X96251000Y-84882000D01*
X96251000Y-80118000D02*
X96251000Y-81460000D01*
X96211000Y-83540000D02*
X96211000Y-84898000D01*
X96211000Y-80102000D02*
X96211000Y-81460000D01*
X96171000Y-83540000D02*
X96171000Y-84914000D01*
X96171000Y-80086000D02*
X96171000Y-81460000D01*
X96131000Y-83540000D02*
X96131000Y-84928000D01*
X96131000Y-80072000D02*
X96131000Y-81460000D01*
X96091000Y-83540000D02*
X96091000Y-84942000D01*
X96091000Y-80058000D02*
X96091000Y-81460000D01*
X96051000Y-83540000D02*
X96051000Y-84955000D01*
X96051000Y-80045000D02*
X96051000Y-81460000D01*
X96011000Y-83540000D02*
X96011000Y-84968000D01*
X96011000Y-80032000D02*
X96011000Y-81460000D01*
X95971000Y-83540000D02*
X95971000Y-84980000D01*
X95971000Y-80020000D02*
X95971000Y-81460000D01*
X95930000Y-83540000D02*
X95930000Y-84991000D01*
X95930000Y-80009000D02*
X95930000Y-81460000D01*
X95890000Y-83540000D02*
X95890000Y-85001000D01*
X95890000Y-79999000D02*
X95890000Y-81460000D01*
X95850000Y-83540000D02*
X95850000Y-85011000D01*
X95850000Y-79989000D02*
X95850000Y-81460000D01*
X95810000Y-83540000D02*
X95810000Y-85020000D01*
X95810000Y-79980000D02*
X95810000Y-81460000D01*
X95770000Y-83540000D02*
X95770000Y-85028000D01*
X95770000Y-79972000D02*
X95770000Y-81460000D01*
X95730000Y-83540000D02*
X95730000Y-85036000D01*
X95730000Y-79964000D02*
X95730000Y-81460000D01*
X95690000Y-83540000D02*
X95690000Y-85043000D01*
X95690000Y-79957000D02*
X95690000Y-81460000D01*
X95650000Y-83540000D02*
X95650000Y-85050000D01*
X95650000Y-79950000D02*
X95650000Y-81460000D01*
X95610000Y-83540000D02*
X95610000Y-85056000D01*
X95610000Y-79944000D02*
X95610000Y-81460000D01*
X95570000Y-83540000D02*
X95570000Y-85061000D01*
X95570000Y-79939000D02*
X95570000Y-81460000D01*
X95530000Y-83540000D02*
X95530000Y-85065000D01*
X95530000Y-79935000D02*
X95530000Y-81460000D01*
X95490000Y-83540000D02*
X95490000Y-85069000D01*
X95490000Y-79931000D02*
X95490000Y-81460000D01*
X95450000Y-79927000D02*
X95450000Y-85073000D01*
X95410000Y-79924000D02*
X95410000Y-85076000D01*
X95370000Y-79922000D02*
X95370000Y-85078000D01*
X95330000Y-79921000D02*
X95330000Y-85079000D01*
X95290000Y-79920000D02*
X95290000Y-85080000D01*
X95250000Y-79920000D02*
X95250000Y-85080000D01*
X97870000Y-82500000D02*
G75*
G03X97870000Y-82500000I-2620000J0D01*
G01*
G04 #@! TO.C,C8*
X165740000Y-76561000D02*
X165740000Y-77819000D01*
X163900000Y-76561000D02*
X163900000Y-77819000D01*
G04 #@! TO.C,C11*
X137940000Y-98821000D02*
X137940000Y-100079000D01*
X139780000Y-98821000D02*
X139780000Y-100079000D01*
D13*
G04 #@! TO.C,J1*
X98780000Y-66500000D02*
X91680000Y-66500000D01*
X91680000Y-66500000D02*
X91680000Y-69300000D01*
X91680000Y-69300000D02*
X88180000Y-69300000D01*
X88180000Y-69300000D02*
X88180000Y-75300000D01*
X88180000Y-75300000D02*
X91680000Y-75300000D01*
X91680000Y-75300000D02*
X91680000Y-78100000D01*
X91680000Y-78100000D02*
X95785000Y-78100000D01*
X105880000Y-66500000D02*
X105880000Y-75428000D01*
D14*
X87604000Y-72249000D02*
G75*
G03X87604000Y-72249000I-103000J0D01*
G01*
D12*
G04 #@! TO.C,J2*
X177110000Y-73330000D02*
X177110000Y-68130000D01*
X159270000Y-73330000D02*
X177110000Y-73330000D01*
X156670000Y-68130000D02*
X177110000Y-68130000D01*
X159270000Y-73330000D02*
X159270000Y-70730000D01*
X159270000Y-70730000D02*
X156670000Y-70730000D01*
X156670000Y-70730000D02*
X156670000Y-68130000D01*
X158000000Y-73330000D02*
X156670000Y-73330000D01*
X156670000Y-73330000D02*
X156670000Y-72000000D01*
G04 #@! TO.C,J3*
X112750000Y-127020000D02*
X112750000Y-122920000D01*
X112750000Y-122920000D02*
X114760000Y-122920000D01*
X114760000Y-122920000D02*
X114760000Y-114080000D01*
X114760000Y-114080000D02*
X127960000Y-114080000D01*
X127960000Y-114080000D02*
X127960000Y-122920000D01*
X127960000Y-122920000D02*
X129970000Y-122920000D01*
X129970000Y-122920000D02*
X129970000Y-127020000D01*
X115570000Y-113385662D02*
X116070000Y-113385662D01*
X116070000Y-113385662D02*
X115820000Y-113818675D01*
X115820000Y-113818675D02*
X115570000Y-113385662D01*
G04 #@! TO.C,J4*
X114700000Y-58400000D02*
X165620000Y-58400000D01*
X165620000Y-58400000D02*
X165620000Y-55740000D01*
X165620000Y-55740000D02*
X114700000Y-55740000D01*
X114700000Y-55740000D02*
X114700000Y-58400000D01*
X115650000Y-55740000D02*
X115650000Y-49740000D01*
X115650000Y-49740000D02*
X116410000Y-49740000D01*
X116410000Y-49740000D02*
X116410000Y-55740000D01*
X115710000Y-55740000D02*
X115710000Y-49740000D01*
X115830000Y-55740000D02*
X115830000Y-49740000D01*
X115950000Y-55740000D02*
X115950000Y-49740000D01*
X116070000Y-55740000D02*
X116070000Y-49740000D01*
X116190000Y-55740000D02*
X116190000Y-49740000D01*
X116310000Y-55740000D02*
X116310000Y-49740000D01*
X115650000Y-58797071D02*
X115650000Y-58400000D01*
X116410000Y-58797071D02*
X116410000Y-58400000D01*
X115650000Y-61270000D02*
X115650000Y-60882929D01*
X116410000Y-61270000D02*
X116410000Y-60882929D01*
X117300000Y-58400000D02*
X117300000Y-55740000D01*
X118190000Y-55740000D02*
X118190000Y-49740000D01*
X118190000Y-49740000D02*
X118950000Y-49740000D01*
X118950000Y-49740000D02*
X118950000Y-55740000D01*
X118190000Y-58797071D02*
X118190000Y-58400000D01*
X118950000Y-58797071D02*
X118950000Y-58400000D01*
X118190000Y-61337071D02*
X118190000Y-60882929D01*
X118950000Y-61337071D02*
X118950000Y-60882929D01*
X119840000Y-58400000D02*
X119840000Y-55740000D01*
X120730000Y-55740000D02*
X120730000Y-49740000D01*
X120730000Y-49740000D02*
X121490000Y-49740000D01*
X121490000Y-49740000D02*
X121490000Y-55740000D01*
X120730000Y-58797071D02*
X120730000Y-58400000D01*
X121490000Y-58797071D02*
X121490000Y-58400000D01*
X120730000Y-61337071D02*
X120730000Y-60882929D01*
X121490000Y-61337071D02*
X121490000Y-60882929D01*
X122380000Y-58400000D02*
X122380000Y-55740000D01*
X123270000Y-55740000D02*
X123270000Y-49740000D01*
X123270000Y-49740000D02*
X124030000Y-49740000D01*
X124030000Y-49740000D02*
X124030000Y-55740000D01*
X123270000Y-58797071D02*
X123270000Y-58400000D01*
X124030000Y-58797071D02*
X124030000Y-58400000D01*
X123270000Y-61337071D02*
X123270000Y-60882929D01*
X124030000Y-61337071D02*
X124030000Y-60882929D01*
X124920000Y-58400000D02*
X124920000Y-55740000D01*
X125810000Y-55740000D02*
X125810000Y-49740000D01*
X125810000Y-49740000D02*
X126570000Y-49740000D01*
X126570000Y-49740000D02*
X126570000Y-55740000D01*
X125810000Y-58797071D02*
X125810000Y-58400000D01*
X126570000Y-58797071D02*
X126570000Y-58400000D01*
X125810000Y-61337071D02*
X125810000Y-60882929D01*
X126570000Y-61337071D02*
X126570000Y-60882929D01*
X127460000Y-58400000D02*
X127460000Y-55740000D01*
X128350000Y-55740000D02*
X128350000Y-49740000D01*
X128350000Y-49740000D02*
X129110000Y-49740000D01*
X129110000Y-49740000D02*
X129110000Y-55740000D01*
X128350000Y-58797071D02*
X128350000Y-58400000D01*
X129110000Y-58797071D02*
X129110000Y-58400000D01*
X128350000Y-61337071D02*
X128350000Y-60882929D01*
X129110000Y-61337071D02*
X129110000Y-60882929D01*
X130000000Y-58400000D02*
X130000000Y-55740000D01*
X130890000Y-55740000D02*
X130890000Y-49740000D01*
X130890000Y-49740000D02*
X131650000Y-49740000D01*
X131650000Y-49740000D02*
X131650000Y-55740000D01*
X130890000Y-58797071D02*
X130890000Y-58400000D01*
X131650000Y-58797071D02*
X131650000Y-58400000D01*
X130890000Y-61337071D02*
X130890000Y-60882929D01*
X131650000Y-61337071D02*
X131650000Y-60882929D01*
X132540000Y-58400000D02*
X132540000Y-55740000D01*
X133430000Y-55740000D02*
X133430000Y-49740000D01*
X133430000Y-49740000D02*
X134190000Y-49740000D01*
X134190000Y-49740000D02*
X134190000Y-55740000D01*
X133430000Y-58797071D02*
X133430000Y-58400000D01*
X134190000Y-58797071D02*
X134190000Y-58400000D01*
X133430000Y-61337071D02*
X133430000Y-60882929D01*
X134190000Y-61337071D02*
X134190000Y-60882929D01*
X135080000Y-58400000D02*
X135080000Y-55740000D01*
X135970000Y-55740000D02*
X135970000Y-49740000D01*
X135970000Y-49740000D02*
X136730000Y-49740000D01*
X136730000Y-49740000D02*
X136730000Y-55740000D01*
X135970000Y-58797071D02*
X135970000Y-58400000D01*
X136730000Y-58797071D02*
X136730000Y-58400000D01*
X135970000Y-61337071D02*
X135970000Y-60882929D01*
X136730000Y-61337071D02*
X136730000Y-60882929D01*
X137620000Y-58400000D02*
X137620000Y-55740000D01*
X138510000Y-55740000D02*
X138510000Y-49740000D01*
X138510000Y-49740000D02*
X139270000Y-49740000D01*
X139270000Y-49740000D02*
X139270000Y-55740000D01*
X138510000Y-58797071D02*
X138510000Y-58400000D01*
X139270000Y-58797071D02*
X139270000Y-58400000D01*
X138510000Y-61337071D02*
X138510000Y-60882929D01*
X139270000Y-61337071D02*
X139270000Y-60882929D01*
X140160000Y-58400000D02*
X140160000Y-55740000D01*
X141050000Y-55740000D02*
X141050000Y-49740000D01*
X141050000Y-49740000D02*
X141810000Y-49740000D01*
X141810000Y-49740000D02*
X141810000Y-55740000D01*
X141050000Y-58797071D02*
X141050000Y-58400000D01*
X141810000Y-58797071D02*
X141810000Y-58400000D01*
X141050000Y-61337071D02*
X141050000Y-60882929D01*
X141810000Y-61337071D02*
X141810000Y-60882929D01*
X142700000Y-58400000D02*
X142700000Y-55740000D01*
X143590000Y-55740000D02*
X143590000Y-49740000D01*
X143590000Y-49740000D02*
X144350000Y-49740000D01*
X144350000Y-49740000D02*
X144350000Y-55740000D01*
X143590000Y-58797071D02*
X143590000Y-58400000D01*
X144350000Y-58797071D02*
X144350000Y-58400000D01*
X143590000Y-61337071D02*
X143590000Y-60882929D01*
X144350000Y-61337071D02*
X144350000Y-60882929D01*
X145240000Y-58400000D02*
X145240000Y-55740000D01*
X146130000Y-55740000D02*
X146130000Y-49740000D01*
X146130000Y-49740000D02*
X146890000Y-49740000D01*
X146890000Y-49740000D02*
X146890000Y-55740000D01*
X146130000Y-58797071D02*
X146130000Y-58400000D01*
X146890000Y-58797071D02*
X146890000Y-58400000D01*
X146130000Y-61337071D02*
X146130000Y-60882929D01*
X146890000Y-61337071D02*
X146890000Y-60882929D01*
X147780000Y-58400000D02*
X147780000Y-55740000D01*
X148670000Y-55740000D02*
X148670000Y-49740000D01*
X148670000Y-49740000D02*
X149430000Y-49740000D01*
X149430000Y-49740000D02*
X149430000Y-55740000D01*
X148670000Y-58797071D02*
X148670000Y-58400000D01*
X149430000Y-58797071D02*
X149430000Y-58400000D01*
X148670000Y-61337071D02*
X148670000Y-60882929D01*
X149430000Y-61337071D02*
X149430000Y-60882929D01*
X150320000Y-58400000D02*
X150320000Y-55740000D01*
X151210000Y-55740000D02*
X151210000Y-49740000D01*
X151210000Y-49740000D02*
X151970000Y-49740000D01*
X151970000Y-49740000D02*
X151970000Y-55740000D01*
X151210000Y-58797071D02*
X151210000Y-58400000D01*
X151970000Y-58797071D02*
X151970000Y-58400000D01*
X151210000Y-61337071D02*
X151210000Y-60882929D01*
X151970000Y-61337071D02*
X151970000Y-60882929D01*
X152860000Y-58400000D02*
X152860000Y-55740000D01*
X153750000Y-55740000D02*
X153750000Y-49740000D01*
X153750000Y-49740000D02*
X154510000Y-49740000D01*
X154510000Y-49740000D02*
X154510000Y-55740000D01*
X153750000Y-58797071D02*
X153750000Y-58400000D01*
X154510000Y-58797071D02*
X154510000Y-58400000D01*
X153750000Y-61337071D02*
X153750000Y-60882929D01*
X154510000Y-61337071D02*
X154510000Y-60882929D01*
X155400000Y-58400000D02*
X155400000Y-55740000D01*
X156290000Y-55740000D02*
X156290000Y-49740000D01*
X156290000Y-49740000D02*
X157050000Y-49740000D01*
X157050000Y-49740000D02*
X157050000Y-55740000D01*
X156290000Y-58797071D02*
X156290000Y-58400000D01*
X157050000Y-58797071D02*
X157050000Y-58400000D01*
X156290000Y-61337071D02*
X156290000Y-60882929D01*
X157050000Y-61337071D02*
X157050000Y-60882929D01*
X157940000Y-58400000D02*
X157940000Y-55740000D01*
X158830000Y-55740000D02*
X158830000Y-49740000D01*
X158830000Y-49740000D02*
X159590000Y-49740000D01*
X159590000Y-49740000D02*
X159590000Y-55740000D01*
X158830000Y-58797071D02*
X158830000Y-58400000D01*
X159590000Y-58797071D02*
X159590000Y-58400000D01*
X158830000Y-61337071D02*
X158830000Y-60882929D01*
X159590000Y-61337071D02*
X159590000Y-60882929D01*
X160480000Y-58400000D02*
X160480000Y-55740000D01*
X161370000Y-55740000D02*
X161370000Y-49740000D01*
X161370000Y-49740000D02*
X162130000Y-49740000D01*
X162130000Y-49740000D02*
X162130000Y-55740000D01*
X161370000Y-58797071D02*
X161370000Y-58400000D01*
X162130000Y-58797071D02*
X162130000Y-58400000D01*
X161370000Y-61337071D02*
X161370000Y-60882929D01*
X162130000Y-61337071D02*
X162130000Y-60882929D01*
X163020000Y-58400000D02*
X163020000Y-55740000D01*
X163910000Y-55740000D02*
X163910000Y-49740000D01*
X163910000Y-49740000D02*
X164670000Y-49740000D01*
X164670000Y-49740000D02*
X164670000Y-55740000D01*
X163910000Y-58797071D02*
X163910000Y-58400000D01*
X164670000Y-58797071D02*
X164670000Y-58400000D01*
X163910000Y-61337071D02*
X163910000Y-60882929D01*
X164670000Y-61337071D02*
X164670000Y-60882929D01*
X116030000Y-63650000D02*
X114760000Y-63650000D01*
X114760000Y-63650000D02*
X114760000Y-62380000D01*
G04 #@! TO.C,R3*
X97230000Y-93420000D02*
X97230000Y-96160000D01*
X97230000Y-96160000D02*
X103770000Y-96160000D01*
X103770000Y-96160000D02*
X103770000Y-93420000D01*
X103770000Y-93420000D02*
X97230000Y-93420000D01*
X96460000Y-94790000D02*
X97230000Y-94790000D01*
X104540000Y-94790000D02*
X103770000Y-94790000D01*
G04 #@! TO.C,U1*
X133350000Y-70670000D02*
G75*
G02X133350000Y-72670000I0J-1000000D01*
G01*
X133350000Y-72670000D02*
X133350000Y-74320000D01*
X133350000Y-74320000D02*
X153790000Y-74320000D01*
X153790000Y-74320000D02*
X153790000Y-69020000D01*
X153790000Y-69020000D02*
X133350000Y-69020000D01*
X133350000Y-69020000D02*
X133350000Y-70670000D01*
X133290000Y-76810000D02*
X153850000Y-76810000D01*
X153850000Y-76810000D02*
X153850000Y-66530000D01*
X153850000Y-66530000D02*
X133290000Y-66530000D01*
X133290000Y-66530000D02*
X133290000Y-76810000D01*
G04 #@! TO.C,U2*
X166610000Y-87050000D02*
X166610000Y-97330000D01*
X184630000Y-87050000D02*
X166610000Y-87050000D01*
X184630000Y-97330000D02*
X184630000Y-87050000D01*
X166610000Y-97330000D02*
X184630000Y-97330000D01*
X166670000Y-89540000D02*
X166670000Y-91190000D01*
X184570000Y-89540000D02*
X166670000Y-89540000D01*
X184570000Y-94840000D02*
X184570000Y-89540000D01*
X166670000Y-94840000D02*
X184570000Y-94840000D01*
X166670000Y-93190000D02*
X166670000Y-94840000D01*
X166670000Y-91190000D02*
G75*
G02X166670000Y-93190000I0J-1000000D01*
G01*
G04 #@! TO.C,U4*
X140420000Y-97520000D02*
X140420000Y-107800000D01*
X160980000Y-97520000D02*
X140420000Y-97520000D01*
X160980000Y-107800000D02*
X160980000Y-97520000D01*
X140420000Y-107800000D02*
X160980000Y-107800000D01*
X140480000Y-100010000D02*
X140480000Y-101660000D01*
X160920000Y-100010000D02*
X140480000Y-100010000D01*
X160920000Y-105310000D02*
X160920000Y-100010000D01*
X140480000Y-105310000D02*
X160920000Y-105310000D01*
X140480000Y-103660000D02*
X140480000Y-105310000D01*
X140480000Y-101660000D02*
G75*
G02X140480000Y-103660000I0J-1000000D01*
G01*
G04 #@! TO.C,U5*
X166670000Y-79190000D02*
G75*
G02X166670000Y-81190000I0J-1000000D01*
G01*
X166670000Y-81190000D02*
X166670000Y-82840000D01*
X166670000Y-82840000D02*
X184570000Y-82840000D01*
X184570000Y-82840000D02*
X184570000Y-77540000D01*
X184570000Y-77540000D02*
X166670000Y-77540000D01*
X166670000Y-77540000D02*
X166670000Y-79190000D01*
X166610000Y-85330000D02*
X184630000Y-85330000D01*
X184630000Y-85330000D02*
X184630000Y-75050000D01*
X184630000Y-75050000D02*
X166610000Y-75050000D01*
X166610000Y-75050000D02*
X166610000Y-85330000D01*
G04 #@! TO.C,U6*
X110840000Y-86250000D02*
G75*
G02X110840000Y-88250000I0J-1000000D01*
G01*
X110840000Y-88250000D02*
X110840000Y-93710000D01*
X110840000Y-93710000D02*
X161760000Y-93710000D01*
X161760000Y-93710000D02*
X161760000Y-80790000D01*
X161760000Y-80790000D02*
X110840000Y-80790000D01*
X110840000Y-80790000D02*
X110840000Y-86250000D01*
X110780000Y-96200000D02*
X161820000Y-96200000D01*
X161820000Y-96200000D02*
X161820000Y-78300000D01*
X161820000Y-78300000D02*
X110780000Y-78300000D01*
X110780000Y-78300000D02*
X110780000Y-96200000D01*
G04 #@! TO.C,C12*
D11*
X106037142Y-56252857D02*
X106084761Y-56300476D01*
X106132380Y-56443333D01*
X106132380Y-56538571D01*
X106084761Y-56681428D01*
X105989523Y-56776666D01*
X105894285Y-56824285D01*
X105703809Y-56871904D01*
X105560952Y-56871904D01*
X105370476Y-56824285D01*
X105275238Y-56776666D01*
X105180000Y-56681428D01*
X105132380Y-56538571D01*
X105132380Y-56443333D01*
X105180000Y-56300476D01*
X105227619Y-56252857D01*
X106132380Y-55300476D02*
X106132380Y-55871904D01*
X106132380Y-55586190D02*
X105132380Y-55586190D01*
X105275238Y-55681428D01*
X105370476Y-55776666D01*
X105418095Y-55871904D01*
X105227619Y-54919523D02*
X105180000Y-54871904D01*
X105132380Y-54776666D01*
X105132380Y-54538571D01*
X105180000Y-54443333D01*
X105227619Y-54395714D01*
X105322857Y-54348095D01*
X105418095Y-54348095D01*
X105560952Y-54395714D01*
X106132380Y-54967142D01*
X106132380Y-54348095D01*
G04 #@! TO.C,RN1*
X163509523Y-111322380D02*
X163176190Y-110846190D01*
X162938095Y-111322380D02*
X162938095Y-110322380D01*
X163319047Y-110322380D01*
X163414285Y-110370000D01*
X163461904Y-110417619D01*
X163509523Y-110512857D01*
X163509523Y-110655714D01*
X163461904Y-110750952D01*
X163414285Y-110798571D01*
X163319047Y-110846190D01*
X162938095Y-110846190D01*
X163938095Y-111322380D02*
X163938095Y-110322380D01*
X164509523Y-111322380D01*
X164509523Y-110322380D01*
X165509523Y-111322380D02*
X164938095Y-111322380D01*
X165223809Y-111322380D02*
X165223809Y-110322380D01*
X165128571Y-110465238D01*
X165033333Y-110560476D01*
X164938095Y-110608095D01*
G04 #@! TO.C,RN2*
X111519523Y-111272380D02*
X111186190Y-110796190D01*
X110948095Y-111272380D02*
X110948095Y-110272380D01*
X111329047Y-110272380D01*
X111424285Y-110320000D01*
X111471904Y-110367619D01*
X111519523Y-110462857D01*
X111519523Y-110605714D01*
X111471904Y-110700952D01*
X111424285Y-110748571D01*
X111329047Y-110796190D01*
X110948095Y-110796190D01*
X111948095Y-111272380D02*
X111948095Y-110272380D01*
X112519523Y-111272380D01*
X112519523Y-110272380D01*
X112948095Y-110367619D02*
X112995714Y-110320000D01*
X113090952Y-110272380D01*
X113329047Y-110272380D01*
X113424285Y-110320000D01*
X113471904Y-110367619D01*
X113519523Y-110462857D01*
X113519523Y-110558095D01*
X113471904Y-110700952D01*
X112900476Y-111272380D01*
X113519523Y-111272380D01*
G04 #@! TO.C,J5*
X152166666Y-113952380D02*
X152166666Y-114666666D01*
X152119047Y-114809523D01*
X152023809Y-114904761D01*
X151880952Y-114952380D01*
X151785714Y-114952380D01*
X153119047Y-113952380D02*
X152642857Y-113952380D01*
X152595238Y-114428571D01*
X152642857Y-114380952D01*
X152738095Y-114333333D01*
X152976190Y-114333333D01*
X153071428Y-114380952D01*
X153119047Y-114428571D01*
X153166666Y-114523809D01*
X153166666Y-114761904D01*
X153119047Y-114857142D01*
X153071428Y-114904761D01*
X152976190Y-114952380D01*
X152738095Y-114952380D01*
X152642857Y-114904761D01*
X152595238Y-114857142D01*
G04 #@! TO.C,C9*
X165357142Y-92926666D02*
X165404761Y-92974285D01*
X165452380Y-93117142D01*
X165452380Y-93212380D01*
X165404761Y-93355238D01*
X165309523Y-93450476D01*
X165214285Y-93498095D01*
X165023809Y-93545714D01*
X164880952Y-93545714D01*
X164690476Y-93498095D01*
X164595238Y-93450476D01*
X164500000Y-93355238D01*
X164452380Y-93212380D01*
X164452380Y-93117142D01*
X164500000Y-92974285D01*
X164547619Y-92926666D01*
X165452380Y-92450476D02*
X165452380Y-92260000D01*
X165404761Y-92164761D01*
X165357142Y-92117142D01*
X165214285Y-92021904D01*
X165023809Y-91974285D01*
X164642857Y-91974285D01*
X164547619Y-92021904D01*
X164500000Y-92069523D01*
X164452380Y-92164761D01*
X164452380Y-92355238D01*
X164500000Y-92450476D01*
X164547619Y-92498095D01*
X164642857Y-92545714D01*
X164880952Y-92545714D01*
X164976190Y-92498095D01*
X165023809Y-92450476D01*
X165071428Y-92355238D01*
X165071428Y-92164761D01*
X165023809Y-92069523D01*
X164976190Y-92021904D01*
X164880952Y-91974285D01*
G04 #@! TO.C,C10*
X112752142Y-103932857D02*
X112799761Y-103980476D01*
X112847380Y-104123333D01*
X112847380Y-104218571D01*
X112799761Y-104361428D01*
X112704523Y-104456666D01*
X112609285Y-104504285D01*
X112418809Y-104551904D01*
X112275952Y-104551904D01*
X112085476Y-104504285D01*
X111990238Y-104456666D01*
X111895000Y-104361428D01*
X111847380Y-104218571D01*
X111847380Y-104123333D01*
X111895000Y-103980476D01*
X111942619Y-103932857D01*
X112847380Y-102980476D02*
X112847380Y-103551904D01*
X112847380Y-103266190D02*
X111847380Y-103266190D01*
X111990238Y-103361428D01*
X112085476Y-103456666D01*
X112133095Y-103551904D01*
X111847380Y-102361428D02*
X111847380Y-102266190D01*
X111895000Y-102170952D01*
X111942619Y-102123333D01*
X112037857Y-102075714D01*
X112228333Y-102028095D01*
X112466428Y-102028095D01*
X112656904Y-102075714D01*
X112752142Y-102123333D01*
X112799761Y-102170952D01*
X112847380Y-102266190D01*
X112847380Y-102361428D01*
X112799761Y-102456666D01*
X112752142Y-102504285D01*
X112656904Y-102551904D01*
X112466428Y-102599523D01*
X112228333Y-102599523D01*
X112037857Y-102551904D01*
X111942619Y-102504285D01*
X111895000Y-102456666D01*
X111847380Y-102361428D01*
G04 #@! TO.C,U7*
X112622380Y-107661904D02*
X113431904Y-107661904D01*
X113527142Y-107614285D01*
X113574761Y-107566666D01*
X113622380Y-107471428D01*
X113622380Y-107280952D01*
X113574761Y-107185714D01*
X113527142Y-107138095D01*
X113431904Y-107090476D01*
X112622380Y-107090476D01*
X112622380Y-106709523D02*
X112622380Y-106042857D01*
X113622380Y-106471428D01*
G04 #@! TO.C,R8*
X180682380Y-105766666D02*
X180206190Y-106100000D01*
X180682380Y-106338095D02*
X179682380Y-106338095D01*
X179682380Y-105957142D01*
X179730000Y-105861904D01*
X179777619Y-105814285D01*
X179872857Y-105766666D01*
X180015714Y-105766666D01*
X180110952Y-105814285D01*
X180158571Y-105861904D01*
X180206190Y-105957142D01*
X180206190Y-106338095D01*
X180110952Y-105195238D02*
X180063333Y-105290476D01*
X180015714Y-105338095D01*
X179920476Y-105385714D01*
X179872857Y-105385714D01*
X179777619Y-105338095D01*
X179730000Y-105290476D01*
X179682380Y-105195238D01*
X179682380Y-105004761D01*
X179730000Y-104909523D01*
X179777619Y-104861904D01*
X179872857Y-104814285D01*
X179920476Y-104814285D01*
X180015714Y-104861904D01*
X180063333Y-104909523D01*
X180110952Y-105004761D01*
X180110952Y-105195238D01*
X180158571Y-105290476D01*
X180206190Y-105338095D01*
X180301428Y-105385714D01*
X180491904Y-105385714D01*
X180587142Y-105338095D01*
X180634761Y-105290476D01*
X180682380Y-105195238D01*
X180682380Y-105004761D01*
X180634761Y-104909523D01*
X180587142Y-104861904D01*
X180491904Y-104814285D01*
X180301428Y-104814285D01*
X180206190Y-104861904D01*
X180158571Y-104909523D01*
X180110952Y-105004761D01*
G04 #@! TO.C,R7*
X184002380Y-105816666D02*
X183526190Y-106150000D01*
X184002380Y-106388095D02*
X183002380Y-106388095D01*
X183002380Y-106007142D01*
X183050000Y-105911904D01*
X183097619Y-105864285D01*
X183192857Y-105816666D01*
X183335714Y-105816666D01*
X183430952Y-105864285D01*
X183478571Y-105911904D01*
X183526190Y-106007142D01*
X183526190Y-106388095D01*
X183002380Y-105483333D02*
X183002380Y-104816666D01*
X184002380Y-105245238D01*
G04 #@! TO.C,C7*
X109467142Y-84141666D02*
X109514761Y-84189285D01*
X109562380Y-84332142D01*
X109562380Y-84427380D01*
X109514761Y-84570238D01*
X109419523Y-84665476D01*
X109324285Y-84713095D01*
X109133809Y-84760714D01*
X108990952Y-84760714D01*
X108800476Y-84713095D01*
X108705238Y-84665476D01*
X108610000Y-84570238D01*
X108562380Y-84427380D01*
X108562380Y-84332142D01*
X108610000Y-84189285D01*
X108657619Y-84141666D01*
X108562380Y-83808333D02*
X108562380Y-83141666D01*
X109562380Y-83570238D01*
G04 #@! TO.C,C6*
X132087142Y-73066666D02*
X132134761Y-73114285D01*
X132182380Y-73257142D01*
X132182380Y-73352380D01*
X132134761Y-73495238D01*
X132039523Y-73590476D01*
X131944285Y-73638095D01*
X131753809Y-73685714D01*
X131610952Y-73685714D01*
X131420476Y-73638095D01*
X131325238Y-73590476D01*
X131230000Y-73495238D01*
X131182380Y-73352380D01*
X131182380Y-73257142D01*
X131230000Y-73114285D01*
X131277619Y-73066666D01*
X131182380Y-72209523D02*
X131182380Y-72400000D01*
X131230000Y-72495238D01*
X131277619Y-72542857D01*
X131420476Y-72638095D01*
X131610952Y-72685714D01*
X131991904Y-72685714D01*
X132087142Y-72638095D01*
X132134761Y-72590476D01*
X132182380Y-72495238D01*
X132182380Y-72304761D01*
X132134761Y-72209523D01*
X132087142Y-72161904D01*
X131991904Y-72114285D01*
X131753809Y-72114285D01*
X131658571Y-72161904D01*
X131610952Y-72209523D01*
X131563333Y-72304761D01*
X131563333Y-72495238D01*
X131610952Y-72590476D01*
X131658571Y-72638095D01*
X131753809Y-72685714D01*
G04 #@! TO.C,C5*
X109907142Y-73066666D02*
X109954761Y-73114285D01*
X110002380Y-73257142D01*
X110002380Y-73352380D01*
X109954761Y-73495238D01*
X109859523Y-73590476D01*
X109764285Y-73638095D01*
X109573809Y-73685714D01*
X109430952Y-73685714D01*
X109240476Y-73638095D01*
X109145238Y-73590476D01*
X109050000Y-73495238D01*
X109002380Y-73352380D01*
X109002380Y-73257142D01*
X109050000Y-73114285D01*
X109097619Y-73066666D01*
X109002380Y-72161904D02*
X109002380Y-72638095D01*
X109478571Y-72685714D01*
X109430952Y-72638095D01*
X109383333Y-72542857D01*
X109383333Y-72304761D01*
X109430952Y-72209523D01*
X109478571Y-72161904D01*
X109573809Y-72114285D01*
X109811904Y-72114285D01*
X109907142Y-72161904D01*
X109954761Y-72209523D01*
X110002380Y-72304761D01*
X110002380Y-72542857D01*
X109954761Y-72638095D01*
X109907142Y-72685714D01*
G04 #@! TO.C,C4*
X168603333Y-110807142D02*
X168555714Y-110854761D01*
X168412857Y-110902380D01*
X168317619Y-110902380D01*
X168174761Y-110854761D01*
X168079523Y-110759523D01*
X168031904Y-110664285D01*
X167984285Y-110473809D01*
X167984285Y-110330952D01*
X168031904Y-110140476D01*
X168079523Y-110045238D01*
X168174761Y-109950000D01*
X168317619Y-109902380D01*
X168412857Y-109902380D01*
X168555714Y-109950000D01*
X168603333Y-109997619D01*
X169460476Y-110235714D02*
X169460476Y-110902380D01*
X169222380Y-109854761D02*
X168984285Y-110569047D01*
X169603333Y-110569047D01*
G04 #@! TO.C,C3*
X175623333Y-110827142D02*
X175575714Y-110874761D01*
X175432857Y-110922380D01*
X175337619Y-110922380D01*
X175194761Y-110874761D01*
X175099523Y-110779523D01*
X175051904Y-110684285D01*
X175004285Y-110493809D01*
X175004285Y-110350952D01*
X175051904Y-110160476D01*
X175099523Y-110065238D01*
X175194761Y-109970000D01*
X175337619Y-109922380D01*
X175432857Y-109922380D01*
X175575714Y-109970000D01*
X175623333Y-110017619D01*
X175956666Y-109922380D02*
X176575714Y-109922380D01*
X176242380Y-110303333D01*
X176385238Y-110303333D01*
X176480476Y-110350952D01*
X176528095Y-110398571D01*
X176575714Y-110493809D01*
X176575714Y-110731904D01*
X176528095Y-110827142D01*
X176480476Y-110874761D01*
X176385238Y-110922380D01*
X176099523Y-110922380D01*
X176004285Y-110874761D01*
X175956666Y-110827142D01*
G04 #@! TO.C,Y1*
X170023809Y-103611190D02*
X170023809Y-104087380D01*
X169690476Y-103087380D02*
X170023809Y-103611190D01*
X170357142Y-103087380D01*
X171214285Y-104087380D02*
X170642857Y-104087380D01*
X170928571Y-104087380D02*
X170928571Y-103087380D01*
X170833333Y-103230238D01*
X170738095Y-103325476D01*
X170642857Y-103373095D01*
G04 #@! TO.C,U3*
X109747380Y-76826904D02*
X110556904Y-76826904D01*
X110652142Y-76779285D01*
X110699761Y-76731666D01*
X110747380Y-76636428D01*
X110747380Y-76445952D01*
X110699761Y-76350714D01*
X110652142Y-76303095D01*
X110556904Y-76255476D01*
X109747380Y-76255476D01*
X109747380Y-75874523D02*
X109747380Y-75255476D01*
X110128333Y-75588809D01*
X110128333Y-75445952D01*
X110175952Y-75350714D01*
X110223571Y-75303095D01*
X110318809Y-75255476D01*
X110556904Y-75255476D01*
X110652142Y-75303095D01*
X110699761Y-75350714D01*
X110747380Y-75445952D01*
X110747380Y-75731666D01*
X110699761Y-75826904D01*
X110652142Y-75874523D01*
G04 #@! TO.C,R6*
X100254633Y-104272380D02*
X99921300Y-103796190D01*
X99683204Y-104272380D02*
X99683204Y-103272380D01*
X100064157Y-103272380D01*
X100159395Y-103320000D01*
X100207014Y-103367619D01*
X100254633Y-103462857D01*
X100254633Y-103605714D01*
X100207014Y-103700952D01*
X100159395Y-103748571D01*
X100064157Y-103796190D01*
X99683204Y-103796190D01*
X101111776Y-103272380D02*
X100921300Y-103272380D01*
X100826061Y-103320000D01*
X100778442Y-103367619D01*
X100683204Y-103510476D01*
X100635585Y-103700952D01*
X100635585Y-104081904D01*
X100683204Y-104177142D01*
X100730823Y-104224761D01*
X100826061Y-104272380D01*
X101016538Y-104272380D01*
X101111776Y-104224761D01*
X101159395Y-104177142D01*
X101207014Y-104081904D01*
X101207014Y-103843809D01*
X101159395Y-103748571D01*
X101111776Y-103700952D01*
X101016538Y-103653333D01*
X100826061Y-103653333D01*
X100730823Y-103700952D01*
X100683204Y-103748571D01*
X100635585Y-103843809D01*
G04 #@! TO.C,R5*
X100334333Y-101272380D02*
X100001000Y-100796190D01*
X99762904Y-101272380D02*
X99762904Y-100272380D01*
X100143857Y-100272380D01*
X100239095Y-100320000D01*
X100286714Y-100367619D01*
X100334333Y-100462857D01*
X100334333Y-100605714D01*
X100286714Y-100700952D01*
X100239095Y-100748571D01*
X100143857Y-100796190D01*
X99762904Y-100796190D01*
X101239095Y-100272380D02*
X100762904Y-100272380D01*
X100715285Y-100748571D01*
X100762904Y-100700952D01*
X100858142Y-100653333D01*
X101096238Y-100653333D01*
X101191476Y-100700952D01*
X101239095Y-100748571D01*
X101286714Y-100843809D01*
X101286714Y-101081904D01*
X101239095Y-101177142D01*
X101191476Y-101224761D01*
X101096238Y-101272380D01*
X100858142Y-101272380D01*
X100762904Y-101224761D01*
X100715285Y-101177142D01*
G04 #@! TO.C,R4*
X100414333Y-98272380D02*
X100081000Y-97796190D01*
X99842904Y-98272380D02*
X99842904Y-97272380D01*
X100223857Y-97272380D01*
X100319095Y-97320000D01*
X100366714Y-97367619D01*
X100414333Y-97462857D01*
X100414333Y-97605714D01*
X100366714Y-97700952D01*
X100319095Y-97748571D01*
X100223857Y-97796190D01*
X99842904Y-97796190D01*
X101271476Y-97605714D02*
X101271476Y-98272380D01*
X101033380Y-97224761D02*
X100795285Y-97939047D01*
X101414333Y-97939047D01*
G04 #@! TO.C,R2*
X100233333Y-92132380D02*
X99900000Y-91656190D01*
X99661904Y-92132380D02*
X99661904Y-91132380D01*
X100042857Y-91132380D01*
X100138095Y-91180000D01*
X100185714Y-91227619D01*
X100233333Y-91322857D01*
X100233333Y-91465714D01*
X100185714Y-91560952D01*
X100138095Y-91608571D01*
X100042857Y-91656190D01*
X99661904Y-91656190D01*
X100614285Y-91227619D02*
X100661904Y-91180000D01*
X100757142Y-91132380D01*
X100995238Y-91132380D01*
X101090476Y-91180000D01*
X101138095Y-91227619D01*
X101185714Y-91322857D01*
X101185714Y-91418095D01*
X101138095Y-91560952D01*
X100566666Y-92132380D01*
X101185714Y-92132380D01*
G04 #@! TO.C,R1*
X100233333Y-89052380D02*
X99900000Y-88576190D01*
X99661904Y-89052380D02*
X99661904Y-88052380D01*
X100042857Y-88052380D01*
X100138095Y-88100000D01*
X100185714Y-88147619D01*
X100233333Y-88242857D01*
X100233333Y-88385714D01*
X100185714Y-88480952D01*
X100138095Y-88528571D01*
X100042857Y-88576190D01*
X99661904Y-88576190D01*
X101185714Y-89052380D02*
X100614285Y-89052380D01*
X100900000Y-89052380D02*
X100900000Y-88052380D01*
X100804761Y-88195238D01*
X100709523Y-88290476D01*
X100614285Y-88338095D01*
G04 #@! TO.C,C1*
X99533333Y-62637142D02*
X99485714Y-62684761D01*
X99342857Y-62732380D01*
X99247619Y-62732380D01*
X99104761Y-62684761D01*
X99009523Y-62589523D01*
X98961904Y-62494285D01*
X98914285Y-62303809D01*
X98914285Y-62160952D01*
X98961904Y-61970476D01*
X99009523Y-61875238D01*
X99104761Y-61780000D01*
X99247619Y-61732380D01*
X99342857Y-61732380D01*
X99485714Y-61780000D01*
X99533333Y-61827619D01*
X100485714Y-62732380D02*
X99914285Y-62732380D01*
X100200000Y-62732380D02*
X100200000Y-61732380D01*
X100104761Y-61875238D01*
X100009523Y-61970476D01*
X99914285Y-62018095D01*
G04 #@! TO.C,C2*
X99353333Y-83057142D02*
X99305714Y-83104761D01*
X99162857Y-83152380D01*
X99067619Y-83152380D01*
X98924761Y-83104761D01*
X98829523Y-83009523D01*
X98781904Y-82914285D01*
X98734285Y-82723809D01*
X98734285Y-82580952D01*
X98781904Y-82390476D01*
X98829523Y-82295238D01*
X98924761Y-82200000D01*
X99067619Y-82152380D01*
X99162857Y-82152380D01*
X99305714Y-82200000D01*
X99353333Y-82247619D01*
X99734285Y-82247619D02*
X99781904Y-82200000D01*
X99877142Y-82152380D01*
X100115238Y-82152380D01*
X100210476Y-82200000D01*
X100258095Y-82247619D01*
X100305714Y-82342857D01*
X100305714Y-82438095D01*
X100258095Y-82580952D01*
X99686666Y-83152380D01*
X100305714Y-83152380D01*
G04 #@! TO.C,C8*
X165357142Y-81036666D02*
X165404761Y-81084285D01*
X165452380Y-81227142D01*
X165452380Y-81322380D01*
X165404761Y-81465238D01*
X165309523Y-81560476D01*
X165214285Y-81608095D01*
X165023809Y-81655714D01*
X164880952Y-81655714D01*
X164690476Y-81608095D01*
X164595238Y-81560476D01*
X164500000Y-81465238D01*
X164452380Y-81322380D01*
X164452380Y-81227142D01*
X164500000Y-81084285D01*
X164547619Y-81036666D01*
X164880952Y-80465238D02*
X164833333Y-80560476D01*
X164785714Y-80608095D01*
X164690476Y-80655714D01*
X164642857Y-80655714D01*
X164547619Y-80608095D01*
X164500000Y-80560476D01*
X164452380Y-80465238D01*
X164452380Y-80274761D01*
X164500000Y-80179523D01*
X164547619Y-80131904D01*
X164642857Y-80084285D01*
X164690476Y-80084285D01*
X164785714Y-80131904D01*
X164833333Y-80179523D01*
X164880952Y-80274761D01*
X164880952Y-80465238D01*
X164928571Y-80560476D01*
X164976190Y-80608095D01*
X165071428Y-80655714D01*
X165261904Y-80655714D01*
X165357142Y-80608095D01*
X165404761Y-80560476D01*
X165452380Y-80465238D01*
X165452380Y-80274761D01*
X165404761Y-80179523D01*
X165357142Y-80131904D01*
X165261904Y-80084285D01*
X165071428Y-80084285D01*
X164976190Y-80131904D01*
X164928571Y-80179523D01*
X164880952Y-80274761D01*
G04 #@! TO.C,C11*
X139457142Y-104112857D02*
X139504761Y-104160476D01*
X139552380Y-104303333D01*
X139552380Y-104398571D01*
X139504761Y-104541428D01*
X139409523Y-104636666D01*
X139314285Y-104684285D01*
X139123809Y-104731904D01*
X138980952Y-104731904D01*
X138790476Y-104684285D01*
X138695238Y-104636666D01*
X138600000Y-104541428D01*
X138552380Y-104398571D01*
X138552380Y-104303333D01*
X138600000Y-104160476D01*
X138647619Y-104112857D01*
X139552380Y-103160476D02*
X139552380Y-103731904D01*
X139552380Y-103446190D02*
X138552380Y-103446190D01*
X138695238Y-103541428D01*
X138790476Y-103636666D01*
X138838095Y-103731904D01*
X139552380Y-102208095D02*
X139552380Y-102779523D01*
X139552380Y-102493809D02*
X138552380Y-102493809D01*
X138695238Y-102589047D01*
X138790476Y-102684285D01*
X138838095Y-102779523D01*
G04 #@! TO.C,J1*
D14*
X99934666Y-71697523D02*
X99934666Y-72604666D01*
X99874190Y-72786095D01*
X99753238Y-72907047D01*
X99571809Y-72967523D01*
X99450857Y-72967523D01*
X101204666Y-72967523D02*
X100478952Y-72967523D01*
X100841809Y-72967523D02*
X100841809Y-71697523D01*
X100720857Y-71878952D01*
X100599904Y-71999904D01*
X100478952Y-72060380D01*
G04 #@! TO.C,J2*
D11*
X155122380Y-71063333D02*
X155836666Y-71063333D01*
X155979523Y-71110952D01*
X156074761Y-71206190D01*
X156122380Y-71349047D01*
X156122380Y-71444285D01*
X155217619Y-70634761D02*
X155170000Y-70587142D01*
X155122380Y-70491904D01*
X155122380Y-70253809D01*
X155170000Y-70158571D01*
X155217619Y-70110952D01*
X155312857Y-70063333D01*
X155408095Y-70063333D01*
X155550952Y-70110952D01*
X156122380Y-70682380D01*
X156122380Y-70063333D01*
G04 #@! TO.C,J3*
X112986666Y-114092380D02*
X112986666Y-114806666D01*
X112939047Y-114949523D01*
X112843809Y-115044761D01*
X112700952Y-115092380D01*
X112605714Y-115092380D01*
X113367619Y-114092380D02*
X113986666Y-114092380D01*
X113653333Y-114473333D01*
X113796190Y-114473333D01*
X113891428Y-114520952D01*
X113939047Y-114568571D01*
X113986666Y-114663809D01*
X113986666Y-114901904D01*
X113939047Y-114997142D01*
X113891428Y-115044761D01*
X113796190Y-115092380D01*
X113510476Y-115092380D01*
X113415238Y-115044761D01*
X113367619Y-114997142D01*
G04 #@! TO.C,J4*
X113212380Y-57058333D02*
X113926666Y-57058333D01*
X114069523Y-57105952D01*
X114164761Y-57201190D01*
X114212380Y-57344047D01*
X114212380Y-57439285D01*
X113545714Y-56153571D02*
X114212380Y-56153571D01*
X113164761Y-56391666D02*
X113879047Y-56629761D01*
X113879047Y-56010714D01*
G04 #@! TO.C,R3*
X100363333Y-95172380D02*
X100030000Y-94696190D01*
X99791904Y-95172380D02*
X99791904Y-94172380D01*
X100172857Y-94172380D01*
X100268095Y-94220000D01*
X100315714Y-94267619D01*
X100363333Y-94362857D01*
X100363333Y-94505714D01*
X100315714Y-94600952D01*
X100268095Y-94648571D01*
X100172857Y-94696190D01*
X99791904Y-94696190D01*
X100696666Y-94172380D02*
X101315714Y-94172380D01*
X100982380Y-94553333D01*
X101125238Y-94553333D01*
X101220476Y-94600952D01*
X101268095Y-94648571D01*
X101315714Y-94743809D01*
X101315714Y-94981904D01*
X101268095Y-95077142D01*
X101220476Y-95124761D01*
X101125238Y-95172380D01*
X100839523Y-95172380D01*
X100744285Y-95124761D01*
X100696666Y-95077142D01*
G04 #@! TO.C,U1*
X131592380Y-76661904D02*
X132401904Y-76661904D01*
X132497142Y-76614285D01*
X132544761Y-76566666D01*
X132592380Y-76471428D01*
X132592380Y-76280952D01*
X132544761Y-76185714D01*
X132497142Y-76138095D01*
X132401904Y-76090476D01*
X131592380Y-76090476D01*
X132592380Y-75090476D02*
X132592380Y-75661904D01*
X132592380Y-75376190D02*
X131592380Y-75376190D01*
X131735238Y-75471428D01*
X131830476Y-75566666D01*
X131878095Y-75661904D01*
G04 #@! TO.C,U2*
X164992380Y-97321904D02*
X165801904Y-97321904D01*
X165897142Y-97274285D01*
X165944761Y-97226666D01*
X165992380Y-97131428D01*
X165992380Y-96940952D01*
X165944761Y-96845714D01*
X165897142Y-96798095D01*
X165801904Y-96750476D01*
X164992380Y-96750476D01*
X165087619Y-96321904D02*
X165040000Y-96274285D01*
X164992380Y-96179047D01*
X164992380Y-95940952D01*
X165040000Y-95845714D01*
X165087619Y-95798095D01*
X165182857Y-95750476D01*
X165278095Y-95750476D01*
X165420952Y-95798095D01*
X165992380Y-96369523D01*
X165992380Y-95750476D01*
G04 #@! TO.C,U4*
X138752380Y-107561904D02*
X139561904Y-107561904D01*
X139657142Y-107514285D01*
X139704761Y-107466666D01*
X139752380Y-107371428D01*
X139752380Y-107180952D01*
X139704761Y-107085714D01*
X139657142Y-107038095D01*
X139561904Y-106990476D01*
X138752380Y-106990476D01*
X139085714Y-106085714D02*
X139752380Y-106085714D01*
X138704761Y-106323809D02*
X139419047Y-106561904D01*
X139419047Y-105942857D01*
G04 #@! TO.C,U5*
X164992380Y-85321904D02*
X165801904Y-85321904D01*
X165897142Y-85274285D01*
X165944761Y-85226666D01*
X165992380Y-85131428D01*
X165992380Y-84940952D01*
X165944761Y-84845714D01*
X165897142Y-84798095D01*
X165801904Y-84750476D01*
X164992380Y-84750476D01*
X164992380Y-83798095D02*
X164992380Y-84274285D01*
X165468571Y-84321904D01*
X165420952Y-84274285D01*
X165373333Y-84179047D01*
X165373333Y-83940952D01*
X165420952Y-83845714D01*
X165468571Y-83798095D01*
X165563809Y-83750476D01*
X165801904Y-83750476D01*
X165897142Y-83798095D01*
X165944761Y-83845714D01*
X165992380Y-83940952D01*
X165992380Y-84179047D01*
X165944761Y-84274285D01*
X165897142Y-84321904D01*
G04 #@! TO.C,U6*
X109192380Y-96041904D02*
X110001904Y-96041904D01*
X110097142Y-95994285D01*
X110144761Y-95946666D01*
X110192380Y-95851428D01*
X110192380Y-95660952D01*
X110144761Y-95565714D01*
X110097142Y-95518095D01*
X110001904Y-95470476D01*
X109192380Y-95470476D01*
X109192380Y-94565714D02*
X109192380Y-94756190D01*
X109240000Y-94851428D01*
X109287619Y-94899047D01*
X109430476Y-94994285D01*
X109620952Y-95041904D01*
X110001904Y-95041904D01*
X110097142Y-94994285D01*
X110144761Y-94946666D01*
X110192380Y-94851428D01*
X110192380Y-94660952D01*
X110144761Y-94565714D01*
X110097142Y-94518095D01*
X110001904Y-94470476D01*
X109763809Y-94470476D01*
X109668571Y-94518095D01*
X109620952Y-94565714D01*
X109573333Y-94660952D01*
X109573333Y-94851428D01*
X109620952Y-94946666D01*
X109668571Y-94994285D01*
X109763809Y-95041904D01*
G04 #@! TD*
%LPC*%
D15*
G04 #@! TO.C,C12*
X105500000Y-62000000D03*
D16*
X105500000Y-59500000D03*
G04 #@! TD*
D17*
G04 #@! TO.C,RN1*
X160620000Y-110440000D03*
X158080000Y-110440000D03*
X155540000Y-110440000D03*
X153000000Y-110440000D03*
X150460000Y-110440000D03*
X147920000Y-110440000D03*
X145380000Y-110440000D03*
X142840000Y-110440000D03*
D15*
X140300000Y-110440000D03*
G04 #@! TD*
G04 #@! TO.C,RN2*
X115500000Y-110400000D03*
D17*
X118040000Y-110400000D03*
X120580000Y-110400000D03*
X123120000Y-110400000D03*
X125660000Y-110400000D03*
X128200000Y-110400000D03*
X130740000Y-110400000D03*
X133280000Y-110400000D03*
X135820000Y-110400000D03*
G04 #@! TD*
D16*
G04 #@! TO.C,J5*
X164695000Y-117540000D03*
X161925000Y-117540000D03*
X159155000Y-117540000D03*
X156385000Y-117540000D03*
X166080000Y-115000000D03*
X163310000Y-115000000D03*
X160540000Y-115000000D03*
X157770000Y-115000000D03*
D15*
X155000000Y-115000000D03*
D18*
X148050000Y-116410000D03*
X173080000Y-116410000D03*
G04 #@! TD*
D16*
G04 #@! TO.C,C9*
X164910000Y-90410000D03*
X164910000Y-87910000D03*
G04 #@! TD*
G04 #@! TO.C,C10*
X112460000Y-98290000D03*
X112460000Y-100790000D03*
G04 #@! TD*
D15*
G04 #@! TO.C,U7*
X115500000Y-106400000D03*
D17*
X133280000Y-98780000D03*
X118040000Y-106400000D03*
X130740000Y-98780000D03*
X120580000Y-106400000D03*
X128200000Y-98780000D03*
X123120000Y-106400000D03*
X125660000Y-98780000D03*
X125660000Y-106400000D03*
X123120000Y-98780000D03*
X128200000Y-106400000D03*
X120580000Y-98780000D03*
X130740000Y-106400000D03*
X118040000Y-98780000D03*
X133280000Y-106400000D03*
X115500000Y-98780000D03*
G04 #@! TD*
G04 #@! TO.C,R8*
X180230000Y-100520000D03*
D16*
X180230000Y-110680000D03*
G04 #@! TD*
G04 #@! TO.C,R7*
X183550000Y-110730000D03*
D17*
X183550000Y-100570000D03*
G04 #@! TD*
D16*
G04 #@! TO.C,C7*
X109110000Y-79110000D03*
X109110000Y-81610000D03*
G04 #@! TD*
G04 #@! TO.C,C6*
X131730000Y-69900000D03*
X131730000Y-67400000D03*
G04 #@! TD*
G04 #@! TO.C,C5*
X109550000Y-67400000D03*
X109550000Y-69900000D03*
G04 #@! TD*
G04 #@! TO.C,C4*
X168320000Y-108370000D03*
X165820000Y-108370000D03*
G04 #@! TD*
G04 #@! TO.C,C3*
X175310000Y-108350000D03*
X172810000Y-108350000D03*
G04 #@! TD*
D19*
G04 #@! TO.C,Y1*
X173000000Y-103635000D03*
X168120000Y-103635000D03*
G04 #@! TD*
D20*
G04 #@! TO.C,MH4*
X184500000Y-119500000D03*
G04 #@! TD*
G04 #@! TO.C,MH3*
X95500000Y-119500000D03*
G04 #@! TD*
G04 #@! TO.C,MH2*
X184500000Y-54500000D03*
G04 #@! TD*
G04 #@! TO.C,MH1*
X95500000Y-54500000D03*
G04 #@! TD*
D17*
G04 #@! TO.C,U3*
X112625000Y-67945000D03*
X127865000Y-75565000D03*
X115165000Y-67945000D03*
X125325000Y-75565000D03*
X117705000Y-67945000D03*
X122785000Y-75565000D03*
X120245000Y-67945000D03*
X120245000Y-75565000D03*
X122785000Y-67945000D03*
X117705000Y-75565000D03*
X125325000Y-67945000D03*
X115165000Y-75565000D03*
X127865000Y-67945000D03*
D15*
X112625000Y-75565000D03*
G04 #@! TD*
D17*
G04 #@! TO.C,R6*
X105581300Y-103820000D03*
D16*
X95421300Y-103820000D03*
G04 #@! TD*
G04 #@! TO.C,R5*
X105581000Y-100820000D03*
D17*
X95421000Y-100820000D03*
G04 #@! TD*
G04 #@! TO.C,R4*
X95421000Y-97820000D03*
D16*
X105581000Y-97820000D03*
G04 #@! TD*
D17*
G04 #@! TO.C,R2*
X105560000Y-91680000D03*
D16*
X95400000Y-91680000D03*
G04 #@! TD*
G04 #@! TO.C,R1*
X95400000Y-88600000D03*
D17*
X105560000Y-88600000D03*
G04 #@! TD*
D15*
G04 #@! TO.C,C1*
X94000000Y-62000000D03*
D16*
X96500000Y-62000000D03*
G04 #@! TD*
G04 #@! TO.C,C2*
X96500000Y-82500000D03*
D15*
X94000000Y-82500000D03*
G04 #@! TD*
D16*
G04 #@! TO.C,C8*
X164820000Y-75940000D03*
X164820000Y-78440000D03*
G04 #@! TD*
G04 #@! TO.C,C11*
X138860000Y-100700000D03*
X138860000Y-98200000D03*
G04 #@! TD*
D21*
G04 #@! TO.C,J1*
X93380000Y-72300000D03*
D22*
X101880000Y-66900000D03*
X100180000Y-69400000D03*
D21*
X104680000Y-76600000D03*
D22*
X96880000Y-76800000D03*
G04 #@! TD*
D23*
G04 #@! TO.C,J2*
X158000000Y-72000000D03*
D24*
X158000000Y-69460000D03*
X160540000Y-72000000D03*
X160540000Y-69460000D03*
X163080000Y-72000000D03*
X163080000Y-69460000D03*
X165620000Y-72000000D03*
X165620000Y-69460000D03*
X168160000Y-72000000D03*
X168160000Y-69460000D03*
X170700000Y-72000000D03*
X170700000Y-69460000D03*
X173240000Y-72000000D03*
X173240000Y-69460000D03*
X175780000Y-72000000D03*
X175780000Y-69460000D03*
G04 #@! TD*
D18*
G04 #@! TO.C,J3*
X133900000Y-116550000D03*
X108870000Y-116550000D03*
D15*
X115820000Y-115140000D03*
D16*
X118590000Y-115140000D03*
X121360000Y-115140000D03*
X124130000Y-115140000D03*
X126900000Y-115140000D03*
X117205000Y-117680000D03*
X119975000Y-117680000D03*
X122745000Y-117680000D03*
X125515000Y-117680000D03*
G04 #@! TD*
D23*
G04 #@! TO.C,J4*
X116030000Y-62380000D03*
D24*
X116030000Y-59840000D03*
X118570000Y-62380000D03*
X118570000Y-59840000D03*
X121110000Y-62380000D03*
X121110000Y-59840000D03*
X123650000Y-62380000D03*
X123650000Y-59840000D03*
X126190000Y-62380000D03*
X126190000Y-59840000D03*
X128730000Y-62380000D03*
X128730000Y-59840000D03*
X131270000Y-62380000D03*
X131270000Y-59840000D03*
X133810000Y-62380000D03*
X133810000Y-59840000D03*
X136350000Y-62380000D03*
X136350000Y-59840000D03*
X138890000Y-62380000D03*
X138890000Y-59840000D03*
X141430000Y-62380000D03*
X141430000Y-59840000D03*
X143970000Y-62380000D03*
X143970000Y-59840000D03*
X146510000Y-62380000D03*
X146510000Y-59840000D03*
X149050000Y-62380000D03*
X149050000Y-59840000D03*
X151590000Y-62380000D03*
X151590000Y-59840000D03*
X154130000Y-62380000D03*
X154130000Y-59840000D03*
X156670000Y-62380000D03*
X156670000Y-59840000D03*
X159210000Y-62380000D03*
X159210000Y-59840000D03*
X161750000Y-62380000D03*
X161750000Y-59840000D03*
X164290000Y-62380000D03*
X164290000Y-59840000D03*
G04 #@! TD*
D16*
G04 #@! TO.C,R3*
X95420000Y-94790000D03*
D17*
X105580000Y-94790000D03*
G04 #@! TD*
D15*
G04 #@! TO.C,U1*
X134680000Y-75480000D03*
D17*
X152460000Y-67860000D03*
X137220000Y-75480000D03*
X149920000Y-67860000D03*
X139760000Y-75480000D03*
X147380000Y-67860000D03*
X142300000Y-75480000D03*
X144840000Y-67860000D03*
X144840000Y-75480000D03*
X142300000Y-67860000D03*
X147380000Y-75480000D03*
X139760000Y-67860000D03*
X149920000Y-75480000D03*
X137220000Y-67860000D03*
X152460000Y-75480000D03*
X134680000Y-67860000D03*
G04 #@! TD*
G04 #@! TO.C,U2*
X168000000Y-88380000D03*
X183240000Y-96000000D03*
X170540000Y-88380000D03*
X180700000Y-96000000D03*
X173080000Y-88380000D03*
X178160000Y-96000000D03*
X175620000Y-88380000D03*
X175620000Y-96000000D03*
X178160000Y-88380000D03*
X173080000Y-96000000D03*
X180700000Y-88380000D03*
X170540000Y-96000000D03*
X183240000Y-88380000D03*
D15*
X168000000Y-96000000D03*
G04 #@! TD*
D17*
G04 #@! TO.C,U4*
X141810000Y-98850000D03*
X159590000Y-106470000D03*
X144350000Y-98850000D03*
X157050000Y-106470000D03*
X146890000Y-98850000D03*
X154510000Y-106470000D03*
X149430000Y-98850000D03*
X151970000Y-106470000D03*
X151970000Y-98850000D03*
X149430000Y-106470000D03*
X154510000Y-98850000D03*
X146890000Y-106470000D03*
X157050000Y-98850000D03*
X144350000Y-106470000D03*
X159590000Y-98850000D03*
D15*
X141810000Y-106470000D03*
G04 #@! TD*
G04 #@! TO.C,U5*
X168000000Y-84000000D03*
D17*
X183240000Y-76380000D03*
X170540000Y-84000000D03*
X180700000Y-76380000D03*
X173080000Y-84000000D03*
X178160000Y-76380000D03*
X175620000Y-84000000D03*
X175620000Y-76380000D03*
X178160000Y-84000000D03*
X173080000Y-76380000D03*
X180700000Y-84000000D03*
X170540000Y-76380000D03*
X183240000Y-84000000D03*
X168000000Y-76380000D03*
G04 #@! TD*
D15*
G04 #@! TO.C,U6*
X112170000Y-94870000D03*
D17*
X160430000Y-79630000D03*
X114710000Y-94870000D03*
X157890000Y-79630000D03*
X117250000Y-94870000D03*
X155350000Y-79630000D03*
X119790000Y-94870000D03*
X152810000Y-79630000D03*
X122330000Y-94870000D03*
X150270000Y-79630000D03*
X124870000Y-94870000D03*
X147730000Y-79630000D03*
X127410000Y-94870000D03*
X145190000Y-79630000D03*
X129950000Y-94870000D03*
X142650000Y-79630000D03*
X132490000Y-94870000D03*
X140110000Y-79630000D03*
X135030000Y-94870000D03*
X137570000Y-79630000D03*
X137570000Y-94870000D03*
X135030000Y-79630000D03*
X140110000Y-94870000D03*
X132490000Y-79630000D03*
X142650000Y-94870000D03*
X129950000Y-79630000D03*
X145190000Y-94870000D03*
X127410000Y-79630000D03*
X147730000Y-94870000D03*
X124870000Y-79630000D03*
X150270000Y-94870000D03*
X122330000Y-79630000D03*
X152810000Y-94870000D03*
X119790000Y-79630000D03*
X155350000Y-94870000D03*
X117250000Y-79630000D03*
X157890000Y-94870000D03*
X114710000Y-79630000D03*
X160430000Y-94870000D03*
X112170000Y-79630000D03*
G04 #@! TD*
M02*
