M48
;DRILL file {KiCad (5.0.0-3-g5ebb6b6)} date 
;FORMAT={-:-/ absolute / metric / decimal}
FMAT,2
METRIC,TZ
T1C0.400
T2C0.800
T3C1.000
T4C1.200
T5C3.200
T6C3.200
%
G90
G05
M71
T1
X147.098Y-72.68
T2
X95.421Y-103.82
X105.581Y-103.82
X109.11Y-79.11
X109.11Y-81.61
X180.23Y-100.52
X180.23Y-110.68
X95.421Y-97.82
X105.581Y-97.82
X168.12Y-103.635
X173.Y-103.635
X134.68Y-67.86
X134.68Y-75.48
X137.22Y-67.86
X137.22Y-75.48
X139.76Y-67.86
X139.76Y-75.48
X142.3Y-67.86
X142.3Y-75.48
X144.84Y-67.86
X144.84Y-75.48
X147.38Y-67.86
X147.38Y-75.48
X149.92Y-67.86
X149.92Y-75.48
X152.46Y-67.86
X152.46Y-75.48
X95.4Y-88.6
X105.56Y-88.6
X138.86Y-98.2
X138.86Y-100.7
X112.46Y-98.29
X112.46Y-100.79
X109.55Y-67.4
X109.55Y-69.9
X168.Y-88.38
X168.Y-96.
X170.54Y-88.38
X170.54Y-96.
X173.08Y-88.38
X173.08Y-96.
X175.62Y-88.38
X175.62Y-96.
X178.16Y-88.38
X178.16Y-96.
X180.7Y-88.38
X180.7Y-96.
X183.24Y-88.38
X183.24Y-96.
X164.91Y-87.91
X164.91Y-90.41
X140.3Y-110.44
X142.84Y-110.44
X145.38Y-110.44
X147.92Y-110.44
X150.46Y-110.44
X153.Y-110.44
X155.54Y-110.44
X158.08Y-110.44
X160.62Y-110.44
X141.81Y-98.85
X141.81Y-106.47
X144.35Y-98.85
X144.35Y-106.47
X146.89Y-98.85
X146.89Y-106.47
X149.43Y-98.85
X149.43Y-106.47
X151.97Y-98.85
X151.97Y-106.47
X154.51Y-98.85
X154.51Y-106.47
X157.05Y-98.85
X157.05Y-106.47
X159.59Y-98.85
X159.59Y-106.47
X94.Y-82.5
X96.5Y-82.5
X105.5Y-59.5
X105.5Y-62.
X168.Y-76.38
X168.Y-84.
X170.54Y-76.38
X170.54Y-84.
X173.08Y-76.38
X173.08Y-84.
X175.62Y-76.38
X175.62Y-84.
X178.16Y-76.38
X178.16Y-84.
X180.7Y-76.38
X180.7Y-84.
X183.24Y-76.38
X183.24Y-84.
X172.81Y-108.35
X175.31Y-108.35
X164.82Y-75.94
X164.82Y-78.44
X112.17Y-79.63
X112.17Y-94.87
X114.71Y-79.63
X114.71Y-94.87
X117.25Y-79.63
X117.25Y-94.87
X119.79Y-79.63
X119.79Y-94.87
X122.33Y-79.63
X122.33Y-94.87
X124.87Y-79.63
X124.87Y-94.87
X127.41Y-79.63
X127.41Y-94.87
X129.95Y-79.63
X129.95Y-94.87
X132.49Y-79.63
X132.49Y-94.87
X135.03Y-79.63
X135.03Y-94.87
X137.57Y-79.63
X137.57Y-94.87
X140.11Y-79.63
X140.11Y-94.87
X142.65Y-79.63
X142.65Y-94.87
X145.19Y-79.63
X145.19Y-94.87
X147.73Y-79.63
X147.73Y-94.87
X150.27Y-79.63
X150.27Y-94.87
X152.81Y-79.63
X152.81Y-94.87
X155.35Y-79.63
X155.35Y-94.87
X157.89Y-79.63
X157.89Y-94.87
X160.43Y-79.63
X160.43Y-94.87
X95.421Y-100.82
X105.581Y-100.82
X95.42Y-94.79
X105.58Y-94.79
X95.4Y-91.68
X105.56Y-91.68
X183.55Y-100.57
X183.55Y-110.73
X94.Y-62.
X96.5Y-62.
X131.73Y-67.4
X131.73Y-69.9
X165.82Y-108.37
X168.32Y-108.37
X112.625Y-67.945
X112.625Y-75.565
X115.165Y-67.945
X115.165Y-75.565
X117.705Y-67.945
X117.705Y-75.565
X120.245Y-67.945
X120.245Y-75.565
X122.785Y-67.945
X122.785Y-75.565
X125.325Y-67.945
X125.325Y-75.565
X127.865Y-67.945
X127.865Y-75.565
X115.5Y-98.78
X115.5Y-106.4
X118.04Y-98.78
X118.04Y-106.4
X120.58Y-98.78
X120.58Y-106.4
X123.12Y-98.78
X123.12Y-106.4
X125.66Y-98.78
X125.66Y-106.4
X128.2Y-98.78
X128.2Y-106.4
X130.74Y-98.78
X130.74Y-106.4
X133.28Y-98.78
X133.28Y-106.4
X115.5Y-110.4
X118.04Y-110.4
X120.58Y-110.4
X123.12Y-110.4
X125.66Y-110.4
X128.2Y-110.4
X130.74Y-110.4
X133.28Y-110.4
X135.82Y-110.4
T3
X115.82Y-115.14
X117.205Y-117.68
X118.59Y-115.14
X119.975Y-117.68
X121.36Y-115.14
X122.745Y-117.68
X124.13Y-115.14
X125.515Y-117.68
X126.9Y-115.14
X116.03Y-59.84
X116.03Y-62.38
X118.57Y-59.84
X118.57Y-62.38
X121.11Y-59.84
X121.11Y-62.38
X123.65Y-59.84
X123.65Y-62.38
X126.19Y-59.84
X126.19Y-62.38
X128.73Y-59.84
X128.73Y-62.38
X131.27Y-59.84
X131.27Y-62.38
X133.81Y-59.84
X133.81Y-62.38
X136.35Y-59.84
X136.35Y-62.38
X138.89Y-59.84
X138.89Y-62.38
X141.43Y-59.84
X141.43Y-62.38
X143.97Y-59.84
X143.97Y-62.38
X146.51Y-59.84
X146.51Y-62.38
X149.05Y-59.84
X149.05Y-62.38
X151.59Y-59.84
X151.59Y-62.38
X154.13Y-59.84
X154.13Y-62.38
X156.67Y-59.84
X156.67Y-62.38
X159.21Y-59.84
X159.21Y-62.38
X161.75Y-59.84
X161.75Y-62.38
X164.29Y-59.84
X164.29Y-62.38
X155.Y-115.
X156.385Y-117.54
X157.77Y-115.
X159.155Y-117.54
X160.54Y-115.
X161.925Y-117.54
X163.31Y-115.
X164.695Y-117.54
X166.08Y-115.
X158.Y-69.46
X158.Y-72.
X160.54Y-69.46
X160.54Y-72.
X163.08Y-69.46
X163.08Y-72.
X165.62Y-69.46
X165.62Y-72.
X168.16Y-69.46
X168.16Y-72.
X170.7Y-69.46
X170.7Y-72.
X173.24Y-69.46
X173.24Y-72.
X175.78Y-69.46
X175.78Y-72.
T5
X148.05Y-116.41
X173.08Y-116.41
X108.87Y-116.55
X133.9Y-116.55
T6
X184.5Y-119.5
X95.5Y-54.5
X184.5Y-54.5
X95.5Y-119.5
T4
X93.38Y-72.7G85X93.38Y-71.9
G05
X96.48Y-76.8G85X97.28Y-76.8
G05
X99.78Y-69.4G85X100.58Y-69.4
G05
X101.48Y-66.9G85X102.28Y-66.9
G05
X104.68Y-77.G85X104.68Y-76.2
G05
T0
M30
