M48
; DRILL file {KiCad (6.0.4-0)} date 
; FORMAT={-:-/ absolute / metric / decimal}
; #@! TF.CreationDate,2022-06-07T18:13:58+09:00
; #@! TF.GenerationSoftware,Kicad,Pcbnew,(6.0.4-0)
; #@! TF.FileFunction,MixedPlating,1,2
FMAT,2
METRIC
; #@! TA.AperFunction,Plated,PTH,ViaDrill
T1C0.400
; #@! TA.AperFunction,Plated,PTH,ComponentDrill
T2C0.800
; #@! TA.AperFunction,Plated,PTH,ComponentDrill
T3C1.000
; #@! TA.AperFunction,Plated,PTH,ComponentDrill
T4C1.200
; #@! TA.AperFunction,Plated,PTH,ComponentDrill
T5C3.200
; #@! TA.AperFunction,NonPlated,NPTH,ComponentDrill
T6C3.200
%
G90
G05
T1
X141.156Y-139.552
X142.204Y-72.0
T2
X95.4Y-88.6
X95.4Y-91.68
X95.42Y-94.79
X95.421Y-97.82
X95.421Y-100.82
X95.421Y-103.82
X98.2Y-109.04
X98.2Y-112.04
X102.0Y-122.0
X104.5Y-122.0
X105.56Y-88.6
X105.56Y-91.68
X105.58Y-94.79
X105.581Y-97.82
X105.581Y-100.82
X105.581Y-103.82
X108.36Y-109.04
X108.36Y-112.04
X109.1Y-120.5
X109.1Y-130.66
X109.11Y-79.11
X109.11Y-81.61
X109.55Y-67.4
X109.55Y-69.9
X111.94Y-100.4
X112.0Y-107.2
X112.04Y-103.7
X112.17Y-79.63
X112.17Y-94.87
X112.4Y-120.5
X112.4Y-130.66
X112.625Y-67.945
X112.625Y-75.565
X112.69Y-112.0
X112.69Y-116.0
X114.71Y-79.63
X114.71Y-94.87
X115.165Y-67.945
X115.165Y-75.565
X116.46Y-122.79
X116.46Y-125.29
X117.25Y-79.63
X117.25Y-94.87
X117.705Y-67.945
X117.705Y-75.565
X119.5Y-123.28
X119.5Y-130.9
X119.5Y-134.9
X119.79Y-79.63
X119.79Y-94.87
X120.245Y-67.945
X120.245Y-75.565
X120.31Y-112.0
X120.31Y-116.0
X122.04Y-123.28
X122.04Y-130.9
X122.04Y-134.9
X122.1Y-100.4
X122.16Y-107.2
X122.2Y-103.7
X122.33Y-79.63
X122.33Y-94.87
X122.785Y-67.945
X122.785Y-75.565
X124.58Y-123.28
X124.58Y-130.9
X124.58Y-134.9
X124.87Y-79.63
X124.87Y-94.87
X125.325Y-67.945
X125.325Y-75.565
X127.12Y-123.28
X127.12Y-130.9
X127.12Y-134.9
X127.41Y-79.63
X127.41Y-94.87
X127.865Y-67.945
X127.865Y-75.565
X128.1Y-109.2
X128.1Y-111.7
X129.66Y-123.28
X129.66Y-130.9
X129.66Y-134.9
X129.95Y-79.63
X129.95Y-94.87
X131.7Y-109.68
X131.7Y-117.3
X131.73Y-67.4
X131.73Y-69.9
X132.2Y-123.28
X132.2Y-130.9
X132.2Y-134.9
X132.49Y-79.63
X132.49Y-94.87
X134.24Y-109.68
X134.24Y-117.3
X134.68Y-67.86
X134.68Y-75.48
X134.74Y-123.28
X134.74Y-130.9
X134.74Y-134.9
X135.03Y-79.63
X135.03Y-94.87
X136.78Y-109.68
X136.78Y-117.3
X137.22Y-67.86
X137.22Y-75.48
X137.28Y-123.28
X137.28Y-130.9
X137.28Y-134.9
X137.57Y-79.63
X137.57Y-94.87
X139.32Y-109.68
X139.32Y-117.3
X139.76Y-67.86
X139.76Y-75.48
X139.82Y-134.9
X140.11Y-79.63
X140.11Y-94.87
X142.3Y-67.86
X142.3Y-75.48
X142.65Y-79.63
X142.65Y-94.87
X142.86Y-122.7
X142.86Y-125.2
X144.3Y-134.94
X144.84Y-67.86
X144.84Y-75.48
X145.19Y-79.63
X145.19Y-94.87
X145.81Y-123.35
X145.81Y-130.97
X146.84Y-134.94
X147.38Y-67.86
X147.38Y-75.48
X147.73Y-79.63
X147.73Y-94.87
X148.35Y-123.35
X148.35Y-130.97
X149.38Y-134.94
X149.92Y-67.86
X149.92Y-75.48
X150.27Y-79.63
X150.27Y-94.87
X150.89Y-123.35
X150.89Y-130.97
X151.92Y-134.94
X152.46Y-67.86
X152.46Y-75.48
X152.81Y-79.63
X152.81Y-94.87
X153.43Y-123.35
X153.43Y-130.97
X154.46Y-134.94
X155.35Y-79.63
X155.35Y-94.87
X155.97Y-123.35
X155.97Y-130.97
X157.0Y-134.94
X157.89Y-79.63
X157.89Y-94.87
X158.51Y-123.35
X158.51Y-130.97
X159.54Y-134.94
X160.43Y-79.63
X160.43Y-94.87
X161.05Y-123.35
X161.05Y-130.97
X162.08Y-134.94
X163.59Y-123.35
X163.59Y-130.97
X164.62Y-134.94
X164.82Y-75.94
X164.82Y-78.44
X164.91Y-87.91
X164.91Y-90.41
X165.82Y-108.37
X168.0Y-76.38
X168.0Y-84.0
X168.0Y-88.38
X168.0Y-96.0
X168.12Y-103.635
X168.32Y-108.37
X170.54Y-76.38
X170.54Y-84.0
X170.54Y-88.38
X170.54Y-96.0
X172.81Y-108.35
X173.0Y-103.635
X173.08Y-76.38
X173.08Y-84.0
X173.08Y-88.38
X173.08Y-96.0
X175.31Y-108.35
X175.62Y-76.38
X175.62Y-84.0
X175.62Y-88.38
X175.62Y-96.0
X178.16Y-76.38
X178.16Y-84.0
X178.16Y-88.38
X178.16Y-96.0
X180.23Y-100.52
X180.23Y-110.68
X180.7Y-76.38
X180.7Y-84.0
X180.7Y-88.38
X180.7Y-96.0
X183.24Y-76.38
X183.24Y-84.0
X183.24Y-88.38
X183.24Y-96.0
X183.55Y-100.57
X183.55Y-110.73
T3
X93.96Y-109.25
X93.96Y-111.79
X116.03Y-59.84
X116.03Y-62.38
X117.32Y-141.64
X118.57Y-59.84
X118.57Y-62.38
X118.705Y-144.18
X120.09Y-141.64
X121.11Y-59.84
X121.11Y-62.38
X121.475Y-144.18
X122.86Y-141.64
X123.65Y-59.84
X123.65Y-62.38
X124.245Y-144.18
X125.63Y-141.64
X126.19Y-59.84
X126.19Y-62.38
X127.015Y-144.18
X128.4Y-141.64
X128.73Y-59.84
X128.73Y-62.38
X131.27Y-59.84
X131.27Y-62.38
X133.81Y-59.84
X133.81Y-62.38
X136.35Y-59.84
X136.35Y-62.38
X138.89Y-59.84
X138.89Y-62.38
X141.43Y-59.84
X141.43Y-62.38
X143.97Y-59.84
X143.97Y-62.38
X146.51Y-59.84
X146.51Y-62.38
X149.05Y-59.84
X149.05Y-62.38
X151.59Y-59.84
X151.59Y-62.38
X154.13Y-59.84
X154.13Y-62.38
X156.5Y-141.5
X156.67Y-59.84
X156.67Y-62.38
X157.885Y-144.04
X158.0Y-69.46
X158.0Y-72.0
X159.21Y-59.84
X159.21Y-62.38
X159.27Y-141.5
X160.54Y-69.46
X160.54Y-72.0
X160.655Y-144.04
X161.75Y-59.84
X161.75Y-62.38
X162.04Y-141.5
X163.08Y-69.46
X163.08Y-72.0
X163.425Y-144.04
X164.29Y-59.84
X164.29Y-62.38
X164.81Y-141.5
X165.62Y-69.46
X165.62Y-72.0
X166.195Y-144.04
X167.58Y-141.5
X168.16Y-69.46
X168.16Y-72.0
X170.7Y-69.46
X170.7Y-72.0
X173.24Y-69.46
X173.24Y-72.0
X175.78Y-69.46
X175.78Y-72.0
T5
X110.37Y-143.05
X135.4Y-143.05
X149.55Y-142.91
X174.58Y-142.91
T6
X95.5Y-54.5
X95.5Y-119.5
X95.5Y-145.5
X184.5Y-54.5
X184.5Y-119.5
X184.5Y-145.5
T4
G00X93.2Y-130.9
M15
G01X93.2Y-130.1
M16
G05
G00X93.38Y-72.7
M15
G01X93.38Y-71.9
M16
G05
G00X96.3Y-135.0
M15
G01X97.1Y-135.0
M16
G05
G00X96.48Y-76.8
M15
G01X97.28Y-76.8
M16
G05
G00X99.6Y-127.6
M15
G01X100.4Y-127.6
M16
G05
G00X99.78Y-69.4
M15
G01X100.58Y-69.4
M16
G05
G00X101.3Y-125.1
M15
G01X102.1Y-125.1
M16
G05
G00X101.48Y-66.9
M15
G01X102.28Y-66.9
M16
G05
G00X104.5Y-135.2
M15
G01X104.5Y-134.4
M16
G05
G00X104.68Y-77.0
M15
G01X104.68Y-76.2
M16
G05
T0
M30
