G04 #@! TF.GenerationSoftware,KiCad,Pcbnew,(6.0.6)*
G04 #@! TF.CreationDate,2022-11-01T20:53:13+09:00*
G04 #@! TF.ProjectId,KZ80-YM2149,4b5a3830-2d59-44d3-9231-34392e6b6963,rev?*
G04 #@! TF.SameCoordinates,Original*
G04 #@! TF.FileFunction,Legend,Top*
G04 #@! TF.FilePolarity,Positive*
%FSLAX46Y46*%
G04 Gerber Fmt 4.6, Leading zero omitted, Abs format (unit mm)*
G04 Created by KiCad (PCBNEW (6.0.6)) date 2022-11-01 20:53:13*
%MOMM*%
%LPD*%
G01*
G04 APERTURE LIST*
%ADD10C,0.150000*%
%ADD11C,0.300000*%
%ADD12C,0.250000*%
%ADD13C,0.254000*%
%ADD14C,0.120000*%
%ADD15C,0.200000*%
%ADD16O,2.000000X3.000000*%
%ADD17O,3.000000X2.000000*%
%ADD18C,2.000000*%
%ADD19O,2.000000X2.000000*%
%ADD20C,3.600000*%
%ADD21C,1.900000*%
%ADD22C,6.400000*%
%ADD23O,2.400000X3.400000*%
%ADD24O,3.400000X2.400000*%
%ADD25O,2.100000X2.100000*%
%ADD26O,2.000000X2.800000*%
G04 APERTURE END LIST*
D10*
X175750120Y-66889726D02*
X175750120Y-66556392D01*
X176273929Y-66413535D02*
X176273929Y-66889726D01*
X175273929Y-66889726D01*
X175273929Y-66413535D01*
X175273929Y-65794488D02*
X175273929Y-65699250D01*
X175321549Y-65604011D01*
X175369168Y-65556392D01*
X175464406Y-65508773D01*
X175654882Y-65461154D01*
X175892977Y-65461154D01*
X176083453Y-65508773D01*
X176178691Y-65556392D01*
X176226310Y-65604011D01*
X176273929Y-65699250D01*
X176273929Y-65794488D01*
X176226310Y-65889726D01*
X176178691Y-65937345D01*
X176083453Y-65984964D01*
X175892977Y-66032583D01*
X175654882Y-66032583D01*
X175464406Y-65984964D01*
X175369168Y-65937345D01*
X175321549Y-65889726D01*
X175273929Y-65794488D01*
D11*
X148797142Y-126468571D02*
X149797142Y-126468571D01*
X149154285Y-127968571D01*
X151011428Y-126968571D02*
X151011428Y-127968571D01*
X150654285Y-126397142D02*
X150297142Y-127468571D01*
X151225714Y-127468571D01*
X151797142Y-127968571D02*
X151797142Y-126468571D01*
X151797142Y-127182857D02*
X152654285Y-127182857D01*
X152654285Y-127968571D02*
X152654285Y-126468571D01*
X154225714Y-127825714D02*
X154154285Y-127897142D01*
X153940000Y-127968571D01*
X153797142Y-127968571D01*
X153582857Y-127897142D01*
X153440000Y-127754285D01*
X153368571Y-127611428D01*
X153297142Y-127325714D01*
X153297142Y-127111428D01*
X153368571Y-126825714D01*
X153440000Y-126682857D01*
X153582857Y-126540000D01*
X153797142Y-126468571D01*
X153940000Y-126468571D01*
X154154285Y-126540000D01*
X154225714Y-126611428D01*
X155654285Y-127968571D02*
X154797142Y-127968571D01*
X155225714Y-127968571D02*
X155225714Y-126468571D01*
X155082857Y-126682857D01*
X154940000Y-126825714D01*
X154797142Y-126897142D01*
X157011428Y-126468571D02*
X156297142Y-126468571D01*
X156225714Y-127182857D01*
X156297142Y-127111428D01*
X156440000Y-127040000D01*
X156797142Y-127040000D01*
X156940000Y-127111428D01*
X157011428Y-127182857D01*
X157082857Y-127325714D01*
X157082857Y-127682857D01*
X157011428Y-127825714D01*
X156940000Y-127897142D01*
X156797142Y-127968571D01*
X156440000Y-127968571D01*
X156297142Y-127897142D01*
X156225714Y-127825714D01*
X157582857Y-126468571D02*
X158582857Y-126468571D01*
X157940000Y-127968571D01*
X114681428Y-71048571D02*
X115681428Y-71048571D01*
X115038571Y-72548571D01*
X116895714Y-71548571D02*
X116895714Y-72548571D01*
X116538571Y-70977142D02*
X116181428Y-72048571D01*
X117110000Y-72048571D01*
X117681428Y-72548571D02*
X117681428Y-71048571D01*
X117681428Y-71762857D02*
X118538571Y-71762857D01*
X118538571Y-72548571D02*
X118538571Y-71048571D01*
X120110000Y-72405714D02*
X120038571Y-72477142D01*
X119824285Y-72548571D01*
X119681428Y-72548571D01*
X119467142Y-72477142D01*
X119324285Y-72334285D01*
X119252857Y-72191428D01*
X119181428Y-71905714D01*
X119181428Y-71691428D01*
X119252857Y-71405714D01*
X119324285Y-71262857D01*
X119467142Y-71120000D01*
X119681428Y-71048571D01*
X119824285Y-71048571D01*
X120038571Y-71120000D01*
X120110000Y-71191428D01*
X121038571Y-71048571D02*
X121181428Y-71048571D01*
X121324285Y-71120000D01*
X121395714Y-71191428D01*
X121467142Y-71334285D01*
X121538571Y-71620000D01*
X121538571Y-71977142D01*
X121467142Y-72262857D01*
X121395714Y-72405714D01*
X121324285Y-72477142D01*
X121181428Y-72548571D01*
X121038571Y-72548571D01*
X120895714Y-72477142D01*
X120824285Y-72405714D01*
X120752857Y-72262857D01*
X120681428Y-71977142D01*
X120681428Y-71620000D01*
X120752857Y-71334285D01*
X120824285Y-71191428D01*
X120895714Y-71120000D01*
X121038571Y-71048571D01*
X122110000Y-71191428D02*
X122181428Y-71120000D01*
X122324285Y-71048571D01*
X122681428Y-71048571D01*
X122824285Y-71120000D01*
X122895714Y-71191428D01*
X122967142Y-71334285D01*
X122967142Y-71477142D01*
X122895714Y-71691428D01*
X122038571Y-72548571D01*
X122967142Y-72548571D01*
D10*
X157773929Y-66723059D02*
X157773929Y-66627821D01*
X157821549Y-66532583D01*
X157869168Y-66484964D01*
X157964406Y-66437345D01*
X158154882Y-66389726D01*
X158392977Y-66389726D01*
X158583453Y-66437345D01*
X158678691Y-66484964D01*
X158726310Y-66532583D01*
X158773929Y-66627821D01*
X158773929Y-66723059D01*
X158726310Y-66818297D01*
X158678691Y-66865916D01*
X158583453Y-66913535D01*
X158392977Y-66961154D01*
X158154882Y-66961154D01*
X157964406Y-66913535D01*
X157869168Y-66865916D01*
X157821549Y-66818297D01*
X157773929Y-66723059D01*
X157773929Y-65770678D02*
X157773929Y-65675440D01*
X157821549Y-65580202D01*
X157869168Y-65532583D01*
X157964406Y-65484964D01*
X158154882Y-65437345D01*
X158392977Y-65437345D01*
X158583453Y-65484964D01*
X158678691Y-65532583D01*
X158726310Y-65580202D01*
X158773929Y-65675440D01*
X158773929Y-65770678D01*
X158726310Y-65865916D01*
X158678691Y-65913535D01*
X158583453Y-65961154D01*
X158392977Y-66008773D01*
X158154882Y-66008773D01*
X157964406Y-65961154D01*
X157869168Y-65913535D01*
X157821549Y-65865916D01*
X157773929Y-65770678D01*
X165273929Y-66484964D02*
X165273929Y-66675440D01*
X165321549Y-66770678D01*
X165369168Y-66818297D01*
X165512025Y-66913535D01*
X165702501Y-66961154D01*
X166083453Y-66961154D01*
X166178691Y-66913535D01*
X166226310Y-66865916D01*
X166273929Y-66770678D01*
X166273929Y-66580202D01*
X166226310Y-66484964D01*
X166178691Y-66437345D01*
X166083453Y-66389726D01*
X165845358Y-66389726D01*
X165750120Y-66437345D01*
X165702501Y-66484964D01*
X165654882Y-66580202D01*
X165654882Y-66770678D01*
X165702501Y-66865916D01*
X165750120Y-66913535D01*
X165845358Y-66961154D01*
X165273929Y-65770678D02*
X165273929Y-65675440D01*
X165321549Y-65580202D01*
X165369168Y-65532583D01*
X165464406Y-65484964D01*
X165654882Y-65437345D01*
X165892977Y-65437345D01*
X166083453Y-65484964D01*
X166178691Y-65532583D01*
X166226310Y-65580202D01*
X166273929Y-65675440D01*
X166273929Y-65770678D01*
X166226310Y-65865916D01*
X166178691Y-65913535D01*
X166083453Y-65961154D01*
X165892977Y-66008773D01*
X165654882Y-66008773D01*
X165464406Y-65961154D01*
X165369168Y-65913535D01*
X165321549Y-65865916D01*
X165273929Y-65770678D01*
X164690476Y-117952380D02*
X164690476Y-116952380D01*
X165261904Y-117952380D02*
X164833333Y-117380952D01*
X165261904Y-116952380D02*
X164690476Y-117523809D01*
X165690476Y-116952380D02*
X165690476Y-117761904D01*
X165738095Y-117857142D01*
X165785714Y-117904761D01*
X165880952Y-117952380D01*
X166071428Y-117952380D01*
X166166666Y-117904761D01*
X166214285Y-117857142D01*
X166261904Y-117761904D01*
X166261904Y-116952380D01*
X166738095Y-117952380D02*
X166738095Y-116952380D01*
X167309523Y-117952380D01*
X167309523Y-116952380D01*
X167785714Y-117952380D02*
X167785714Y-116952380D01*
X168261904Y-117571428D02*
X169023809Y-117571428D01*
X169500000Y-117952380D02*
X169500000Y-116952380D01*
X170071428Y-117952380D01*
X170071428Y-116952380D01*
X170547619Y-117428571D02*
X170880952Y-117428571D01*
X171023809Y-117952380D02*
X170547619Y-117952380D01*
X170547619Y-116952380D01*
X171023809Y-116952380D01*
X171309523Y-116952380D02*
X171880952Y-116952380D01*
X171595238Y-117952380D02*
X171595238Y-116952380D01*
X172928571Y-117047619D02*
X172976190Y-117000000D01*
X173071428Y-116952380D01*
X173309523Y-116952380D01*
X173404761Y-117000000D01*
X173452380Y-117047619D01*
X173500000Y-117142857D01*
X173500000Y-117238095D01*
X173452380Y-117380952D01*
X172880952Y-117952380D01*
X173500000Y-117952380D01*
X174119047Y-116952380D02*
X174214285Y-116952380D01*
X174309523Y-117000000D01*
X174357142Y-117047619D01*
X174404761Y-117142857D01*
X174452380Y-117333333D01*
X174452380Y-117571428D01*
X174404761Y-117761904D01*
X174357142Y-117857142D01*
X174309523Y-117904761D01*
X174214285Y-117952380D01*
X174119047Y-117952380D01*
X174023809Y-117904761D01*
X173976190Y-117857142D01*
X173928571Y-117761904D01*
X173880952Y-117571428D01*
X173880952Y-117333333D01*
X173928571Y-117142857D01*
X173976190Y-117047619D01*
X174023809Y-117000000D01*
X174119047Y-116952380D01*
X174833333Y-117047619D02*
X174880952Y-117000000D01*
X174976190Y-116952380D01*
X175214285Y-116952380D01*
X175309523Y-117000000D01*
X175357142Y-117047619D01*
X175404761Y-117142857D01*
X175404761Y-117238095D01*
X175357142Y-117380952D01*
X174785714Y-117952380D01*
X175404761Y-117952380D01*
X175785714Y-117047619D02*
X175833333Y-117000000D01*
X175928571Y-116952380D01*
X176166666Y-116952380D01*
X176261904Y-117000000D01*
X176309523Y-117047619D01*
X176357142Y-117142857D01*
X176357142Y-117238095D01*
X176309523Y-117380952D01*
X175738095Y-117952380D01*
X176357142Y-117952380D01*
X173678691Y-66365916D02*
X173726310Y-66413535D01*
X173773929Y-66556392D01*
X173773929Y-66651630D01*
X173726310Y-66794488D01*
X173631072Y-66889726D01*
X173535834Y-66937345D01*
X173345358Y-66984964D01*
X173202501Y-66984964D01*
X173012025Y-66937345D01*
X172916787Y-66889726D01*
X172821549Y-66794488D01*
X172773929Y-66651630D01*
X172773929Y-66556392D01*
X172821549Y-66413535D01*
X172869168Y-66365916D01*
X172773929Y-65746869D02*
X172773929Y-65651630D01*
X172821549Y-65556392D01*
X172869168Y-65508773D01*
X172964406Y-65461154D01*
X173154882Y-65413535D01*
X173392977Y-65413535D01*
X173583453Y-65461154D01*
X173678691Y-65508773D01*
X173726310Y-65556392D01*
X173773929Y-65651630D01*
X173773929Y-65746869D01*
X173726310Y-65842107D01*
X173678691Y-65889726D01*
X173583453Y-65937345D01*
X173392977Y-65984964D01*
X173154882Y-65984964D01*
X172964406Y-65937345D01*
X172869168Y-65889726D01*
X172821549Y-65842107D01*
X172773929Y-65746869D01*
D11*
X177857142Y-147178571D02*
X177857142Y-148250000D01*
X177785714Y-148464285D01*
X177642857Y-148607142D01*
X177428571Y-148678571D01*
X177285714Y-148678571D01*
X178500000Y-148607142D02*
X178714285Y-148678571D01*
X179071428Y-148678571D01*
X179214285Y-148607142D01*
X179285714Y-148535714D01*
X179357142Y-148392857D01*
X179357142Y-148250000D01*
X179285714Y-148107142D01*
X179214285Y-148035714D01*
X179071428Y-147964285D01*
X178785714Y-147892857D01*
X178642857Y-147821428D01*
X178571428Y-147750000D01*
X178500000Y-147607142D01*
X178500000Y-147464285D01*
X178571428Y-147321428D01*
X178642857Y-147250000D01*
X178785714Y-147178571D01*
X179142857Y-147178571D01*
X179357142Y-147250000D01*
X180000000Y-148107142D02*
X181142857Y-148107142D01*
X181785714Y-147321428D02*
X181857142Y-147250000D01*
X182000000Y-147178571D01*
X182357142Y-147178571D01*
X182500000Y-147250000D01*
X182571428Y-147321428D01*
X182642857Y-147464285D01*
X182642857Y-147607142D01*
X182571428Y-147821428D01*
X181714285Y-148678571D01*
X182642857Y-148678571D01*
X137297142Y-70958571D02*
X138297142Y-70958571D01*
X137654285Y-72458571D01*
X139511428Y-71458571D02*
X139511428Y-72458571D01*
X139154285Y-70887142D02*
X138797142Y-71958571D01*
X139725714Y-71958571D01*
X140297142Y-72458571D02*
X140297142Y-70958571D01*
X140297142Y-71672857D02*
X141154285Y-71672857D01*
X141154285Y-72458571D02*
X141154285Y-70958571D01*
X142725714Y-72315714D02*
X142654285Y-72387142D01*
X142440000Y-72458571D01*
X142297142Y-72458571D01*
X142082857Y-72387142D01*
X141940000Y-72244285D01*
X141868571Y-72101428D01*
X141797142Y-71815714D01*
X141797142Y-71601428D01*
X141868571Y-71315714D01*
X141940000Y-71172857D01*
X142082857Y-71030000D01*
X142297142Y-70958571D01*
X142440000Y-70958571D01*
X142654285Y-71030000D01*
X142725714Y-71101428D01*
X144154285Y-72458571D02*
X143297142Y-72458571D01*
X143725714Y-72458571D02*
X143725714Y-70958571D01*
X143582857Y-71172857D01*
X143440000Y-71315714D01*
X143297142Y-71387142D01*
X144654285Y-70958571D02*
X145582857Y-70958571D01*
X145082857Y-71530000D01*
X145297142Y-71530000D01*
X145440000Y-71601428D01*
X145511428Y-71672857D01*
X145582857Y-71815714D01*
X145582857Y-72172857D01*
X145511428Y-72315714D01*
X145440000Y-72387142D01*
X145297142Y-72458571D01*
X144868571Y-72458571D01*
X144725714Y-72387142D01*
X144654285Y-72315714D01*
X146440000Y-71601428D02*
X146297142Y-71530000D01*
X146225714Y-71458571D01*
X146154285Y-71315714D01*
X146154285Y-71244285D01*
X146225714Y-71101428D01*
X146297142Y-71030000D01*
X146440000Y-70958571D01*
X146725714Y-70958571D01*
X146868571Y-71030000D01*
X146940000Y-71101428D01*
X147011428Y-71244285D01*
X147011428Y-71315714D01*
X146940000Y-71458571D01*
X146868571Y-71530000D01*
X146725714Y-71601428D01*
X146440000Y-71601428D01*
X146297142Y-71672857D01*
X146225714Y-71744285D01*
X146154285Y-71887142D01*
X146154285Y-72172857D01*
X146225714Y-72315714D01*
X146297142Y-72387142D01*
X146440000Y-72458571D01*
X146725714Y-72458571D01*
X146868571Y-72387142D01*
X146940000Y-72315714D01*
X147011428Y-72172857D01*
X147011428Y-71887142D01*
X146940000Y-71744285D01*
X146868571Y-71672857D01*
X146725714Y-71601428D01*
D10*
X91171904Y-115194761D02*
X91314761Y-115242380D01*
X91552857Y-115242380D01*
X91648095Y-115194761D01*
X91695714Y-115147142D01*
X91743333Y-115051904D01*
X91743333Y-114956666D01*
X91695714Y-114861428D01*
X91648095Y-114813809D01*
X91552857Y-114766190D01*
X91362380Y-114718571D01*
X91267142Y-114670952D01*
X91219523Y-114623333D01*
X91171904Y-114528095D01*
X91171904Y-114432857D01*
X91219523Y-114337619D01*
X91267142Y-114290000D01*
X91362380Y-114242380D01*
X91600476Y-114242380D01*
X91743333Y-114290000D01*
X92362380Y-114242380D02*
X92552857Y-114242380D01*
X92648095Y-114290000D01*
X92743333Y-114385238D01*
X92790952Y-114575714D01*
X92790952Y-114909047D01*
X92743333Y-115099523D01*
X92648095Y-115194761D01*
X92552857Y-115242380D01*
X92362380Y-115242380D01*
X92267142Y-115194761D01*
X92171904Y-115099523D01*
X92124285Y-114909047D01*
X92124285Y-114575714D01*
X92171904Y-114385238D01*
X92267142Y-114290000D01*
X92362380Y-114242380D01*
X93219523Y-114242380D02*
X93219523Y-115051904D01*
X93267142Y-115147142D01*
X93314761Y-115194761D01*
X93410000Y-115242380D01*
X93600476Y-115242380D01*
X93695714Y-115194761D01*
X93743333Y-115147142D01*
X93790952Y-115051904D01*
X93790952Y-114242380D01*
X94267142Y-115242380D02*
X94267142Y-114242380D01*
X94838571Y-115242380D01*
X94838571Y-114242380D01*
X95314761Y-115242380D02*
X95314761Y-114242380D01*
X95552857Y-114242380D01*
X95695714Y-114290000D01*
X95790952Y-114385238D01*
X95838571Y-114480476D01*
X95886190Y-114670952D01*
X95886190Y-114813809D01*
X95838571Y-115004285D01*
X95790952Y-115099523D01*
X95695714Y-115194761D01*
X95552857Y-115242380D01*
X95314761Y-115242380D01*
X96314761Y-114861428D02*
X97076666Y-114861428D01*
X97552857Y-115242380D02*
X97552857Y-114242380D01*
X98029047Y-115242380D02*
X98029047Y-114242380D01*
X98600476Y-115242380D01*
X98600476Y-114242380D01*
D11*
X156726428Y-146328571D02*
X156726428Y-147400000D01*
X156655000Y-147614285D01*
X156512142Y-147757142D01*
X156297857Y-147828571D01*
X156155000Y-147828571D01*
X157655000Y-147828571D02*
X157512142Y-147757142D01*
X157440714Y-147685714D01*
X157369285Y-147542857D01*
X157369285Y-147114285D01*
X157440714Y-146971428D01*
X157512142Y-146900000D01*
X157655000Y-146828571D01*
X157869285Y-146828571D01*
X158012142Y-146900000D01*
X158083571Y-146971428D01*
X158155000Y-147114285D01*
X158155000Y-147542857D01*
X158083571Y-147685714D01*
X158012142Y-147757142D01*
X157869285Y-147828571D01*
X157655000Y-147828571D01*
X158655000Y-146828571D02*
X159012142Y-147828571D01*
X159369285Y-146828571D02*
X159012142Y-147828571D01*
X158869285Y-148185714D01*
X158797857Y-148257142D01*
X158655000Y-148328571D01*
X159869285Y-147757142D02*
X160083571Y-147828571D01*
X160440714Y-147828571D01*
X160583571Y-147757142D01*
X160655000Y-147685714D01*
X160726428Y-147542857D01*
X160726428Y-147400000D01*
X160655000Y-147257142D01*
X160583571Y-147185714D01*
X160440714Y-147114285D01*
X160155000Y-147042857D01*
X160012142Y-146971428D01*
X159940714Y-146900000D01*
X159869285Y-146757142D01*
X159869285Y-146614285D01*
X159940714Y-146471428D01*
X160012142Y-146400000D01*
X160155000Y-146328571D01*
X160512142Y-146328571D01*
X160726428Y-146400000D01*
X161155000Y-146828571D02*
X161726428Y-146828571D01*
X161369285Y-146328571D02*
X161369285Y-147614285D01*
X161440714Y-147757142D01*
X161583571Y-147828571D01*
X161726428Y-147828571D01*
X162226428Y-147828571D02*
X162226428Y-146828571D01*
X162226428Y-146328571D02*
X162155000Y-146400000D01*
X162226428Y-146471428D01*
X162297857Y-146400000D01*
X162226428Y-146328571D01*
X162226428Y-146471428D01*
X163583571Y-147757142D02*
X163440714Y-147828571D01*
X163155000Y-147828571D01*
X163012142Y-147757142D01*
X162940714Y-147685714D01*
X162869285Y-147542857D01*
X162869285Y-147114285D01*
X162940714Y-146971428D01*
X163012142Y-146900000D01*
X163155000Y-146828571D01*
X163440714Y-146828571D01*
X163583571Y-146900000D01*
X164226428Y-147828571D02*
X164226428Y-146328571D01*
X164369285Y-147257142D02*
X164797857Y-147828571D01*
X164797857Y-146828571D02*
X164226428Y-147400000D01*
X165440714Y-147257142D02*
X166583571Y-147257142D01*
X167226428Y-146471428D02*
X167297857Y-146400000D01*
X167440714Y-146328571D01*
X167797857Y-146328571D01*
X167940714Y-146400000D01*
X168012142Y-146471428D01*
X168083571Y-146614285D01*
X168083571Y-146757142D01*
X168012142Y-146971428D01*
X167155000Y-147828571D01*
X168083571Y-147828571D01*
X102857142Y-147178571D02*
X102857142Y-148250000D01*
X102785714Y-148464285D01*
X102642857Y-148607142D01*
X102428571Y-148678571D01*
X102285714Y-148678571D01*
X103500000Y-148607142D02*
X103714285Y-148678571D01*
X104071428Y-148678571D01*
X104214285Y-148607142D01*
X104285714Y-148535714D01*
X104357142Y-148392857D01*
X104357142Y-148250000D01*
X104285714Y-148107142D01*
X104214285Y-148035714D01*
X104071428Y-147964285D01*
X103785714Y-147892857D01*
X103642857Y-147821428D01*
X103571428Y-147750000D01*
X103500000Y-147607142D01*
X103500000Y-147464285D01*
X103571428Y-147321428D01*
X103642857Y-147250000D01*
X103785714Y-147178571D01*
X104142857Y-147178571D01*
X104357142Y-147250000D01*
X105000000Y-148107142D02*
X106142857Y-148107142D01*
X107642857Y-148678571D02*
X106785714Y-148678571D01*
X107214285Y-148678571D02*
X107214285Y-147178571D01*
X107071428Y-147392857D01*
X106928571Y-147535714D01*
X106785714Y-147607142D01*
X117356428Y-146328571D02*
X117356428Y-147400000D01*
X117285000Y-147614285D01*
X117142142Y-147757142D01*
X116927857Y-147828571D01*
X116785000Y-147828571D01*
X118285000Y-147828571D02*
X118142142Y-147757142D01*
X118070714Y-147685714D01*
X117999285Y-147542857D01*
X117999285Y-147114285D01*
X118070714Y-146971428D01*
X118142142Y-146900000D01*
X118285000Y-146828571D01*
X118499285Y-146828571D01*
X118642142Y-146900000D01*
X118713571Y-146971428D01*
X118785000Y-147114285D01*
X118785000Y-147542857D01*
X118713571Y-147685714D01*
X118642142Y-147757142D01*
X118499285Y-147828571D01*
X118285000Y-147828571D01*
X119285000Y-146828571D02*
X119642142Y-147828571D01*
X119999285Y-146828571D02*
X119642142Y-147828571D01*
X119499285Y-148185714D01*
X119427857Y-148257142D01*
X119285000Y-148328571D01*
X120499285Y-147757142D02*
X120713571Y-147828571D01*
X121070714Y-147828571D01*
X121213571Y-147757142D01*
X121285000Y-147685714D01*
X121356428Y-147542857D01*
X121356428Y-147400000D01*
X121285000Y-147257142D01*
X121213571Y-147185714D01*
X121070714Y-147114285D01*
X120785000Y-147042857D01*
X120642142Y-146971428D01*
X120570714Y-146900000D01*
X120499285Y-146757142D01*
X120499285Y-146614285D01*
X120570714Y-146471428D01*
X120642142Y-146400000D01*
X120785000Y-146328571D01*
X121142142Y-146328571D01*
X121356428Y-146400000D01*
X121785000Y-146828571D02*
X122356428Y-146828571D01*
X121999285Y-146328571D02*
X121999285Y-147614285D01*
X122070714Y-147757142D01*
X122213571Y-147828571D01*
X122356428Y-147828571D01*
X122856428Y-147828571D02*
X122856428Y-146828571D01*
X122856428Y-146328571D02*
X122785000Y-146400000D01*
X122856428Y-146471428D01*
X122927857Y-146400000D01*
X122856428Y-146328571D01*
X122856428Y-146471428D01*
X124213571Y-147757142D02*
X124070714Y-147828571D01*
X123785000Y-147828571D01*
X123642142Y-147757142D01*
X123570714Y-147685714D01*
X123499285Y-147542857D01*
X123499285Y-147114285D01*
X123570714Y-146971428D01*
X123642142Y-146900000D01*
X123785000Y-146828571D01*
X124070714Y-146828571D01*
X124213571Y-146900000D01*
X124856428Y-147828571D02*
X124856428Y-146328571D01*
X124999285Y-147257142D02*
X125427857Y-147828571D01*
X125427857Y-146828571D02*
X124856428Y-147400000D01*
X126070714Y-147257142D02*
X127213571Y-147257142D01*
X128713571Y-147828571D02*
X127856428Y-147828571D01*
X128285000Y-147828571D02*
X128285000Y-146328571D01*
X128142142Y-146542857D01*
X127999285Y-146685714D01*
X127856428Y-146757142D01*
D10*
X170988215Y-66913535D02*
X170988215Y-66437345D01*
X171273929Y-67008773D02*
X170273929Y-66675440D01*
X171273929Y-66342107D01*
X170273929Y-65818297D02*
X170273929Y-65723059D01*
X170321549Y-65627821D01*
X170369168Y-65580202D01*
X170464406Y-65532583D01*
X170654882Y-65484964D01*
X170892977Y-65484964D01*
X171083453Y-65532583D01*
X171178691Y-65580202D01*
X171226310Y-65627821D01*
X171273929Y-65723059D01*
X171273929Y-65818297D01*
X171226310Y-65913535D01*
X171178691Y-65961154D01*
X171083453Y-66008773D01*
X170892977Y-66056392D01*
X170654882Y-66056392D01*
X170464406Y-66008773D01*
X170369168Y-65961154D01*
X170321549Y-65913535D01*
X170273929Y-65818297D01*
X163107263Y-66484964D02*
X163773929Y-66484964D01*
X162726310Y-66723059D02*
X163440596Y-66961154D01*
X163440596Y-66342107D01*
X162773929Y-65770678D02*
X162773929Y-65675440D01*
X162821549Y-65580202D01*
X162869168Y-65532583D01*
X162964406Y-65484964D01*
X163154882Y-65437345D01*
X163392977Y-65437345D01*
X163583453Y-65484964D01*
X163678691Y-65532583D01*
X163726310Y-65580202D01*
X163773929Y-65675440D01*
X163773929Y-65770678D01*
X163726310Y-65865916D01*
X163678691Y-65913535D01*
X163583453Y-65961154D01*
X163392977Y-66008773D01*
X163154882Y-66008773D01*
X162964406Y-65961154D01*
X162869168Y-65913535D01*
X162821549Y-65865916D01*
X162773929Y-65770678D01*
D11*
X144590714Y-113361071D02*
X144233571Y-113361071D01*
X144233571Y-111218214D01*
X144590714Y-111218214D01*
X145162142Y-112861071D02*
X145162142Y-111361071D01*
X146019285Y-112861071D02*
X145376428Y-112003928D01*
X146019285Y-111361071D02*
X145162142Y-112218214D01*
X146519285Y-111361071D02*
X147519285Y-111361071D01*
X146519285Y-112861071D01*
X147519285Y-112861071D01*
X148305000Y-112003928D02*
X148162142Y-111932500D01*
X148090714Y-111861071D01*
X148019285Y-111718214D01*
X148019285Y-111646785D01*
X148090714Y-111503928D01*
X148162142Y-111432500D01*
X148305000Y-111361071D01*
X148590714Y-111361071D01*
X148733571Y-111432500D01*
X148805000Y-111503928D01*
X148876428Y-111646785D01*
X148876428Y-111718214D01*
X148805000Y-111861071D01*
X148733571Y-111932500D01*
X148590714Y-112003928D01*
X148305000Y-112003928D01*
X148162142Y-112075357D01*
X148090714Y-112146785D01*
X148019285Y-112289642D01*
X148019285Y-112575357D01*
X148090714Y-112718214D01*
X148162142Y-112789642D01*
X148305000Y-112861071D01*
X148590714Y-112861071D01*
X148733571Y-112789642D01*
X148805000Y-112718214D01*
X148876428Y-112575357D01*
X148876428Y-112289642D01*
X148805000Y-112146785D01*
X148733571Y-112075357D01*
X148590714Y-112003928D01*
X149805000Y-111361071D02*
X149947857Y-111361071D01*
X150090714Y-111432500D01*
X150162142Y-111503928D01*
X150233571Y-111646785D01*
X150305000Y-111932500D01*
X150305000Y-112289642D01*
X150233571Y-112575357D01*
X150162142Y-112718214D01*
X150090714Y-112789642D01*
X149947857Y-112861071D01*
X149805000Y-112861071D01*
X149662142Y-112789642D01*
X149590714Y-112718214D01*
X149519285Y-112575357D01*
X149447857Y-112289642D01*
X149447857Y-111932500D01*
X149519285Y-111646785D01*
X149590714Y-111503928D01*
X149662142Y-111432500D01*
X149805000Y-111361071D01*
X150947857Y-112289642D02*
X152090714Y-112289642D01*
X152805000Y-112861071D02*
X152805000Y-111361071D01*
X153376428Y-111361071D01*
X153519285Y-111432500D01*
X153590714Y-111503928D01*
X153662142Y-111646785D01*
X153662142Y-111861071D01*
X153590714Y-112003928D01*
X153519285Y-112075357D01*
X153376428Y-112146785D01*
X152805000Y-112146785D01*
X154233571Y-112789642D02*
X154447857Y-112861071D01*
X154805000Y-112861071D01*
X154947857Y-112789642D01*
X155019285Y-112718214D01*
X155090714Y-112575357D01*
X155090714Y-112432500D01*
X155019285Y-112289642D01*
X154947857Y-112218214D01*
X154805000Y-112146785D01*
X154519285Y-112075357D01*
X154376428Y-112003928D01*
X154305000Y-111932500D01*
X154233571Y-111789642D01*
X154233571Y-111646785D01*
X154305000Y-111503928D01*
X154376428Y-111432500D01*
X154519285Y-111361071D01*
X154876428Y-111361071D01*
X155090714Y-111432500D01*
X156519285Y-111432500D02*
X156376428Y-111361071D01*
X156162142Y-111361071D01*
X155947857Y-111432500D01*
X155805000Y-111575357D01*
X155733571Y-111718214D01*
X155662142Y-112003928D01*
X155662142Y-112218214D01*
X155733571Y-112503928D01*
X155805000Y-112646785D01*
X155947857Y-112789642D01*
X156162142Y-112861071D01*
X156305000Y-112861071D01*
X156519285Y-112789642D01*
X156590714Y-112718214D01*
X156590714Y-112218214D01*
X156305000Y-112218214D01*
X157090714Y-113361071D02*
X157447857Y-113361071D01*
X157447857Y-111218214D01*
X157090714Y-111218214D01*
X160233571Y-112861071D02*
X159733571Y-112146785D01*
X159376428Y-112861071D02*
X159376428Y-111361071D01*
X159947857Y-111361071D01*
X160090714Y-111432500D01*
X160162142Y-111503928D01*
X160233571Y-111646785D01*
X160233571Y-111861071D01*
X160162142Y-112003928D01*
X160090714Y-112075357D01*
X159947857Y-112146785D01*
X159376428Y-112146785D01*
X160876428Y-112075357D02*
X161376428Y-112075357D01*
X161590714Y-112861071D02*
X160876428Y-112861071D01*
X160876428Y-111361071D01*
X161590714Y-111361071D01*
X162019285Y-111361071D02*
X162519285Y-112861071D01*
X163019285Y-111361071D01*
X163447857Y-111503928D02*
X163519285Y-111432500D01*
X163662142Y-111361071D01*
X164019285Y-111361071D01*
X164162142Y-111432500D01*
X164233571Y-111503928D01*
X164305000Y-111646785D01*
X164305000Y-111789642D01*
X164233571Y-112003928D01*
X163376428Y-112861071D01*
X164305000Y-112861071D01*
X164947857Y-112718214D02*
X165019285Y-112789642D01*
X164947857Y-112861071D01*
X164876428Y-112789642D01*
X164947857Y-112718214D01*
X164947857Y-112861071D01*
X166447857Y-112861071D02*
X165590714Y-112861071D01*
X166019285Y-112861071D02*
X166019285Y-111361071D01*
X165876428Y-111575357D01*
X165733571Y-111718214D01*
X165590714Y-111789642D01*
X144162142Y-115276071D02*
X144162142Y-113776071D01*
X144733571Y-113776071D01*
X144876428Y-113847500D01*
X144947857Y-113918928D01*
X145019285Y-114061785D01*
X145019285Y-114276071D01*
X144947857Y-114418928D01*
X144876428Y-114490357D01*
X144733571Y-114561785D01*
X144162142Y-114561785D01*
X145590714Y-115204642D02*
X145805000Y-115276071D01*
X146162142Y-115276071D01*
X146305000Y-115204642D01*
X146376428Y-115133214D01*
X146447857Y-114990357D01*
X146447857Y-114847500D01*
X146376428Y-114704642D01*
X146305000Y-114633214D01*
X146162142Y-114561785D01*
X145876428Y-114490357D01*
X145733571Y-114418928D01*
X145662142Y-114347500D01*
X145590714Y-114204642D01*
X145590714Y-114061785D01*
X145662142Y-113918928D01*
X145733571Y-113847500D01*
X145876428Y-113776071D01*
X146233571Y-113776071D01*
X146447857Y-113847500D01*
X147876428Y-113847500D02*
X147733571Y-113776071D01*
X147519285Y-113776071D01*
X147305000Y-113847500D01*
X147162142Y-113990357D01*
X147090714Y-114133214D01*
X147019285Y-114418928D01*
X147019285Y-114633214D01*
X147090714Y-114918928D01*
X147162142Y-115061785D01*
X147305000Y-115204642D01*
X147519285Y-115276071D01*
X147662142Y-115276071D01*
X147876428Y-115204642D01*
X147947857Y-115133214D01*
X147947857Y-114633214D01*
X147662142Y-114633214D01*
X150947857Y-115276071D02*
X150876428Y-115276071D01*
X150733571Y-115204642D01*
X150519285Y-114990357D01*
X150162142Y-114561785D01*
X150019285Y-114347500D01*
X149947857Y-114133214D01*
X149947857Y-113990357D01*
X150019285Y-113847500D01*
X150162142Y-113776071D01*
X150233571Y-113776071D01*
X150376428Y-113847500D01*
X150447857Y-113990357D01*
X150447857Y-114061785D01*
X150376428Y-114204642D01*
X150305000Y-114276071D01*
X149876428Y-114561785D01*
X149805000Y-114633214D01*
X149733571Y-114776071D01*
X149733571Y-114990357D01*
X149805000Y-115133214D01*
X149876428Y-115204642D01*
X150019285Y-115276071D01*
X150233571Y-115276071D01*
X150376428Y-115204642D01*
X150447857Y-115133214D01*
X150662142Y-114847500D01*
X150733571Y-114633214D01*
X150733571Y-114490357D01*
X153162142Y-113776071D02*
X153162142Y-114847500D01*
X153090714Y-115061785D01*
X152947857Y-115204642D01*
X152733571Y-115276071D01*
X152590714Y-115276071D01*
X154162142Y-113776071D02*
X154447857Y-113776071D01*
X154590714Y-113847500D01*
X154733571Y-113990357D01*
X154805000Y-114276071D01*
X154805000Y-114776071D01*
X154733571Y-115061785D01*
X154590714Y-115204642D01*
X154447857Y-115276071D01*
X154162142Y-115276071D01*
X154019285Y-115204642D01*
X153876428Y-115061785D01*
X153805000Y-114776071D01*
X153805000Y-114276071D01*
X153876428Y-113990357D01*
X154019285Y-113847500D01*
X154162142Y-113776071D01*
X155733571Y-114561785D02*
X155733571Y-115276071D01*
X155233571Y-113776071D02*
X155733571Y-114561785D01*
X156233571Y-113776071D01*
X156662142Y-115204642D02*
X156876428Y-115276071D01*
X157233571Y-115276071D01*
X157376428Y-115204642D01*
X157447857Y-115133214D01*
X157519285Y-114990357D01*
X157519285Y-114847500D01*
X157447857Y-114704642D01*
X157376428Y-114633214D01*
X157233571Y-114561785D01*
X156947857Y-114490357D01*
X156805000Y-114418928D01*
X156733571Y-114347500D01*
X156662142Y-114204642D01*
X156662142Y-114061785D01*
X156733571Y-113918928D01*
X156805000Y-113847500D01*
X156947857Y-113776071D01*
X157305000Y-113776071D01*
X157519285Y-113847500D01*
X157947857Y-113776071D02*
X158805000Y-113776071D01*
X158376428Y-115276071D02*
X158376428Y-113776071D01*
X159305000Y-115276071D02*
X159305000Y-113776071D01*
X160876428Y-115133214D02*
X160805000Y-115204642D01*
X160590714Y-115276071D01*
X160447857Y-115276071D01*
X160233571Y-115204642D01*
X160090714Y-115061785D01*
X160019285Y-114918928D01*
X159947857Y-114633214D01*
X159947857Y-114418928D01*
X160019285Y-114133214D01*
X160090714Y-113990357D01*
X160233571Y-113847500D01*
X160447857Y-113776071D01*
X160590714Y-113776071D01*
X160805000Y-113847500D01*
X160876428Y-113918928D01*
X161519285Y-115276071D02*
X161519285Y-113776071D01*
X162376428Y-115276071D02*
X161733571Y-114418928D01*
X162376428Y-113776071D02*
X161519285Y-114633214D01*
X165376428Y-115276071D02*
X165305000Y-115276071D01*
X165162142Y-115204642D01*
X164947857Y-114990357D01*
X164590714Y-114561785D01*
X164447857Y-114347500D01*
X164376428Y-114133214D01*
X164376428Y-113990357D01*
X164447857Y-113847500D01*
X164590714Y-113776071D01*
X164662142Y-113776071D01*
X164805000Y-113847500D01*
X164876428Y-113990357D01*
X164876428Y-114061785D01*
X164805000Y-114204642D01*
X164733571Y-114276071D01*
X164305000Y-114561785D01*
X164233571Y-114633214D01*
X164162142Y-114776071D01*
X164162142Y-114990357D01*
X164233571Y-115133214D01*
X164305000Y-115204642D01*
X164447857Y-115276071D01*
X164662142Y-115276071D01*
X164805000Y-115204642D01*
X164876428Y-115133214D01*
X165090714Y-114847500D01*
X165162142Y-114633214D01*
X165162142Y-114490357D01*
X168019285Y-115133214D02*
X167947857Y-115204642D01*
X167733571Y-115276071D01*
X167590714Y-115276071D01*
X167376428Y-115204642D01*
X167233571Y-115061785D01*
X167162142Y-114918928D01*
X167090714Y-114633214D01*
X167090714Y-114418928D01*
X167162142Y-114133214D01*
X167233571Y-113990357D01*
X167376428Y-113847500D01*
X167590714Y-113776071D01*
X167733571Y-113776071D01*
X167947857Y-113847500D01*
X168019285Y-113918928D01*
X168662142Y-115276071D02*
X168662142Y-113776071D01*
X169162142Y-114847500D01*
X169662142Y-113776071D01*
X169662142Y-115276071D01*
X170162142Y-113776071D02*
X171019285Y-113776071D01*
X170590714Y-115276071D02*
X170590714Y-113776071D01*
X173162142Y-114490357D02*
X173376428Y-114561785D01*
X173447857Y-114633214D01*
X173519285Y-114776071D01*
X173519285Y-114990357D01*
X173447857Y-115133214D01*
X173376428Y-115204642D01*
X173233571Y-115276071D01*
X172662142Y-115276071D01*
X172662142Y-113776071D01*
X173162142Y-113776071D01*
X173305000Y-113847500D01*
X173376428Y-113918928D01*
X173447857Y-114061785D01*
X173447857Y-114204642D01*
X173376428Y-114347500D01*
X173305000Y-114418928D01*
X173162142Y-114490357D01*
X172662142Y-114490357D01*
X174447857Y-113776071D02*
X174733571Y-113776071D01*
X174876428Y-113847500D01*
X175019285Y-113990357D01*
X175090714Y-114276071D01*
X175090714Y-114776071D01*
X175019285Y-115061785D01*
X174876428Y-115204642D01*
X174733571Y-115276071D01*
X174447857Y-115276071D01*
X174305000Y-115204642D01*
X174162142Y-115061785D01*
X174090714Y-114776071D01*
X174090714Y-114276071D01*
X174162142Y-113990357D01*
X174305000Y-113847500D01*
X174447857Y-113776071D01*
X175662142Y-114847500D02*
X176376428Y-114847500D01*
X175519285Y-115276071D02*
X176019285Y-113776071D01*
X176519285Y-115276071D01*
X177876428Y-115276071D02*
X177376428Y-114561785D01*
X177019285Y-115276071D02*
X177019285Y-113776071D01*
X177590714Y-113776071D01*
X177733571Y-113847500D01*
X177805000Y-113918928D01*
X177876428Y-114061785D01*
X177876428Y-114276071D01*
X177805000Y-114418928D01*
X177733571Y-114490357D01*
X177590714Y-114561785D01*
X177019285Y-114561785D01*
X178519285Y-115276071D02*
X178519285Y-113776071D01*
X178876428Y-113776071D01*
X179090714Y-113847500D01*
X179233571Y-113990357D01*
X179305000Y-114133214D01*
X179376428Y-114418928D01*
X179376428Y-114633214D01*
X179305000Y-114918928D01*
X179233571Y-115061785D01*
X179090714Y-115204642D01*
X178876428Y-115276071D01*
X178519285Y-115276071D01*
X123637142Y-126378571D02*
X124637142Y-126378571D01*
X123994285Y-127878571D01*
X125851428Y-126878571D02*
X125851428Y-127878571D01*
X125494285Y-126307142D02*
X125137142Y-127378571D01*
X126065714Y-127378571D01*
X126637142Y-127878571D02*
X126637142Y-126378571D01*
X126637142Y-127092857D02*
X127494285Y-127092857D01*
X127494285Y-127878571D02*
X127494285Y-126378571D01*
X129065714Y-127735714D02*
X128994285Y-127807142D01*
X128780000Y-127878571D01*
X128637142Y-127878571D01*
X128422857Y-127807142D01*
X128280000Y-127664285D01*
X128208571Y-127521428D01*
X128137142Y-127235714D01*
X128137142Y-127021428D01*
X128208571Y-126735714D01*
X128280000Y-126592857D01*
X128422857Y-126450000D01*
X128637142Y-126378571D01*
X128780000Y-126378571D01*
X128994285Y-126450000D01*
X129065714Y-126521428D01*
X130494285Y-127878571D02*
X129637142Y-127878571D01*
X130065714Y-127878571D02*
X130065714Y-126378571D01*
X129922857Y-126592857D01*
X129780000Y-126735714D01*
X129637142Y-126807142D01*
X131851428Y-126378571D02*
X131137142Y-126378571D01*
X131065714Y-127092857D01*
X131137142Y-127021428D01*
X131280000Y-126950000D01*
X131637142Y-126950000D01*
X131780000Y-127021428D01*
X131851428Y-127092857D01*
X131922857Y-127235714D01*
X131922857Y-127592857D01*
X131851428Y-127735714D01*
X131780000Y-127807142D01*
X131637142Y-127878571D01*
X131280000Y-127878571D01*
X131137142Y-127807142D01*
X131065714Y-127735714D01*
X132422857Y-126378571D02*
X133422857Y-126378571D01*
X132780000Y-127878571D01*
D10*
X160369168Y-66961154D02*
X160321549Y-66913535D01*
X160273929Y-66818297D01*
X160273929Y-66580202D01*
X160321549Y-66484964D01*
X160369168Y-66437345D01*
X160464406Y-66389726D01*
X160559644Y-66389726D01*
X160702501Y-66437345D01*
X161273929Y-67008773D01*
X161273929Y-66389726D01*
X160273929Y-65770678D02*
X160273929Y-65675440D01*
X160321549Y-65580202D01*
X160369168Y-65532583D01*
X160464406Y-65484964D01*
X160654882Y-65437345D01*
X160892977Y-65437345D01*
X161083453Y-65484964D01*
X161178691Y-65532583D01*
X161226310Y-65580202D01*
X161273929Y-65675440D01*
X161273929Y-65770678D01*
X161226310Y-65865916D01*
X161178691Y-65913535D01*
X161083453Y-65961154D01*
X160892977Y-66008773D01*
X160654882Y-66008773D01*
X160464406Y-65961154D01*
X160369168Y-65913535D01*
X160321549Y-65865916D01*
X160273929Y-65770678D01*
X168202501Y-66770678D02*
X168154882Y-66865916D01*
X168107263Y-66913535D01*
X168012025Y-66961154D01*
X167964406Y-66961154D01*
X167869168Y-66913535D01*
X167821549Y-66865916D01*
X167773929Y-66770678D01*
X167773929Y-66580202D01*
X167821549Y-66484964D01*
X167869168Y-66437345D01*
X167964406Y-66389726D01*
X168012025Y-66389726D01*
X168107263Y-66437345D01*
X168154882Y-66484964D01*
X168202501Y-66580202D01*
X168202501Y-66770678D01*
X168250120Y-66865916D01*
X168297739Y-66913535D01*
X168392977Y-66961154D01*
X168583453Y-66961154D01*
X168678691Y-66913535D01*
X168726310Y-66865916D01*
X168773929Y-66770678D01*
X168773929Y-66580202D01*
X168726310Y-66484964D01*
X168678691Y-66437345D01*
X168583453Y-66389726D01*
X168392977Y-66389726D01*
X168297739Y-66437345D01*
X168250120Y-66484964D01*
X168202501Y-66580202D01*
X167773929Y-65770678D02*
X167773929Y-65675440D01*
X167821549Y-65580202D01*
X167869168Y-65532583D01*
X167964406Y-65484964D01*
X168154882Y-65437345D01*
X168392977Y-65437345D01*
X168583453Y-65484964D01*
X168678691Y-65532583D01*
X168726310Y-65580202D01*
X168773929Y-65675440D01*
X168773929Y-65770678D01*
X168726310Y-65865916D01*
X168678691Y-65913535D01*
X168583453Y-65961154D01*
X168392977Y-66008773D01*
X168154882Y-66008773D01*
X167964406Y-65961154D01*
X167869168Y-65913535D01*
X167821549Y-65865916D01*
X167773929Y-65770678D01*
D11*
X171301428Y-91628571D02*
X172301428Y-91628571D01*
X171658571Y-93128571D01*
X173515714Y-92128571D02*
X173515714Y-93128571D01*
X173158571Y-91557142D02*
X172801428Y-92628571D01*
X173730000Y-92628571D01*
X174301428Y-93128571D02*
X174301428Y-91628571D01*
X174301428Y-92342857D02*
X175158571Y-92342857D01*
X175158571Y-93128571D02*
X175158571Y-91628571D01*
X176730000Y-92985714D02*
X176658571Y-93057142D01*
X176444285Y-93128571D01*
X176301428Y-93128571D01*
X176087142Y-93057142D01*
X175944285Y-92914285D01*
X175872857Y-92771428D01*
X175801428Y-92485714D01*
X175801428Y-92271428D01*
X175872857Y-91985714D01*
X175944285Y-91842857D01*
X176087142Y-91700000D01*
X176301428Y-91628571D01*
X176444285Y-91628571D01*
X176658571Y-91700000D01*
X176730000Y-91771428D01*
X177658571Y-91628571D02*
X177801428Y-91628571D01*
X177944285Y-91700000D01*
X178015714Y-91771428D01*
X178087142Y-91914285D01*
X178158571Y-92200000D01*
X178158571Y-92557142D01*
X178087142Y-92842857D01*
X178015714Y-92985714D01*
X177944285Y-93057142D01*
X177801428Y-93128571D01*
X177658571Y-93128571D01*
X177515714Y-93057142D01*
X177444285Y-92985714D01*
X177372857Y-92842857D01*
X177301428Y-92557142D01*
X177301428Y-92200000D01*
X177372857Y-91914285D01*
X177444285Y-91771428D01*
X177515714Y-91700000D01*
X177658571Y-91628571D01*
X179087142Y-91628571D02*
X179230000Y-91628571D01*
X179372857Y-91700000D01*
X179444285Y-91771428D01*
X179515714Y-91914285D01*
X179587142Y-92200000D01*
X179587142Y-92557142D01*
X179515714Y-92842857D01*
X179444285Y-92985714D01*
X179372857Y-93057142D01*
X179230000Y-93128571D01*
X179087142Y-93128571D01*
X178944285Y-93057142D01*
X178872857Y-92985714D01*
X178801428Y-92842857D01*
X178730000Y-92557142D01*
X178730000Y-92200000D01*
X178801428Y-91914285D01*
X178872857Y-91771428D01*
X178944285Y-91700000D01*
X179087142Y-91628571D01*
D10*
X167404761Y-63571428D02*
X167452380Y-63428571D01*
X167452380Y-63190476D01*
X167404761Y-63095238D01*
X167357142Y-63047619D01*
X167261904Y-63000000D01*
X167166666Y-63000000D01*
X167071428Y-63047619D01*
X167023809Y-63095238D01*
X166976190Y-63190476D01*
X166928571Y-63380952D01*
X166880952Y-63476190D01*
X166833333Y-63523809D01*
X166738095Y-63571428D01*
X166642857Y-63571428D01*
X166547619Y-63523809D01*
X166500000Y-63476190D01*
X166452380Y-63380952D01*
X166452380Y-63142857D01*
X166500000Y-63000000D01*
X166928571Y-62238095D02*
X166976190Y-62095238D01*
X167023809Y-62047619D01*
X167119047Y-62000000D01*
X167261904Y-62000000D01*
X167357142Y-62047619D01*
X167404761Y-62095238D01*
X167452380Y-62190476D01*
X167452380Y-62571428D01*
X166452380Y-62571428D01*
X166452380Y-62238095D01*
X166500000Y-62142857D01*
X166547619Y-62095238D01*
X166642857Y-62047619D01*
X166738095Y-62047619D01*
X166833333Y-62095238D01*
X166880952Y-62142857D01*
X166928571Y-62238095D01*
X166928571Y-62571428D01*
X167357142Y-61000000D02*
X167404761Y-61047619D01*
X167452380Y-61190476D01*
X167452380Y-61285714D01*
X167404761Y-61428571D01*
X167309523Y-61523809D01*
X167214285Y-61571428D01*
X167023809Y-61619047D01*
X166880952Y-61619047D01*
X166690476Y-61571428D01*
X166595238Y-61523809D01*
X166500000Y-61428571D01*
X166452380Y-61285714D01*
X166452380Y-61190476D01*
X166500000Y-61047619D01*
X166547619Y-61000000D01*
X166880952Y-60428571D02*
X166833333Y-60523809D01*
X166785714Y-60571428D01*
X166690476Y-60619047D01*
X166642857Y-60619047D01*
X166547619Y-60571428D01*
X166500000Y-60523809D01*
X166452380Y-60428571D01*
X166452380Y-60238095D01*
X166500000Y-60142857D01*
X166547619Y-60095238D01*
X166642857Y-60047619D01*
X166690476Y-60047619D01*
X166785714Y-60095238D01*
X166833333Y-60142857D01*
X166880952Y-60238095D01*
X166880952Y-60428571D01*
X166928571Y-60523809D01*
X166976190Y-60571428D01*
X167071428Y-60619047D01*
X167261904Y-60619047D01*
X167357142Y-60571428D01*
X167404761Y-60523809D01*
X167452380Y-60428571D01*
X167452380Y-60238095D01*
X167404761Y-60142857D01*
X167357142Y-60095238D01*
X167261904Y-60047619D01*
X167071428Y-60047619D01*
X166976190Y-60095238D01*
X166928571Y-60142857D01*
X166880952Y-60238095D01*
X166452380Y-59428571D02*
X166452380Y-59333333D01*
X166500000Y-59238095D01*
X166547619Y-59190476D01*
X166642857Y-59142857D01*
X166833333Y-59095238D01*
X167071428Y-59095238D01*
X167261904Y-59142857D01*
X167357142Y-59190476D01*
X167404761Y-59238095D01*
X167452380Y-59333333D01*
X167452380Y-59428571D01*
X167404761Y-59523809D01*
X167357142Y-59571428D01*
X167261904Y-59619047D01*
X167071428Y-59666666D01*
X166833333Y-59666666D01*
X166642857Y-59619047D01*
X166547619Y-59571428D01*
X166500000Y-59523809D01*
X166452380Y-59428571D01*
X166880952Y-58523809D02*
X166833333Y-58619047D01*
X166785714Y-58666666D01*
X166690476Y-58714285D01*
X166642857Y-58714285D01*
X166547619Y-58666666D01*
X166500000Y-58619047D01*
X166452380Y-58523809D01*
X166452380Y-58333333D01*
X166500000Y-58238095D01*
X166547619Y-58190476D01*
X166642857Y-58142857D01*
X166690476Y-58142857D01*
X166785714Y-58190476D01*
X166833333Y-58238095D01*
X166880952Y-58333333D01*
X166880952Y-58523809D01*
X166928571Y-58619047D01*
X166976190Y-58666666D01*
X167071428Y-58714285D01*
X167261904Y-58714285D01*
X167357142Y-58666666D01*
X167404761Y-58619047D01*
X167452380Y-58523809D01*
X167452380Y-58333333D01*
X167404761Y-58238095D01*
X167357142Y-58190476D01*
X167261904Y-58142857D01*
X167071428Y-58142857D01*
X166976190Y-58190476D01*
X166928571Y-58238095D01*
X166880952Y-58333333D01*
X166452380Y-57523809D02*
X166452380Y-57428571D01*
X166500000Y-57333333D01*
X166547619Y-57285714D01*
X166642857Y-57238095D01*
X166833333Y-57190476D01*
X167071428Y-57190476D01*
X167261904Y-57238095D01*
X167357142Y-57285714D01*
X167404761Y-57333333D01*
X167452380Y-57428571D01*
X167452380Y-57523809D01*
X167404761Y-57619047D01*
X167357142Y-57666666D01*
X167261904Y-57714285D01*
X167071428Y-57761904D01*
X166833333Y-57761904D01*
X166642857Y-57714285D01*
X166547619Y-57666666D01*
X166500000Y-57619047D01*
X166452380Y-57523809D01*
X166928571Y-55666666D02*
X166976190Y-55523809D01*
X167023809Y-55476190D01*
X167119047Y-55428571D01*
X167261904Y-55428571D01*
X167357142Y-55476190D01*
X167404761Y-55523809D01*
X167452380Y-55619047D01*
X167452380Y-56000000D01*
X166452380Y-56000000D01*
X166452380Y-55666666D01*
X166500000Y-55571428D01*
X166547619Y-55523809D01*
X166642857Y-55476190D01*
X166738095Y-55476190D01*
X166833333Y-55523809D01*
X166880952Y-55571428D01*
X166928571Y-55666666D01*
X166928571Y-56000000D01*
X166452380Y-55000000D02*
X167261904Y-55000000D01*
X167357142Y-54952380D01*
X167404761Y-54904761D01*
X167452380Y-54809523D01*
X167452380Y-54619047D01*
X167404761Y-54523809D01*
X167357142Y-54476190D01*
X167261904Y-54428571D01*
X166452380Y-54428571D01*
X167404761Y-54000000D02*
X167452380Y-53857142D01*
X167452380Y-53619047D01*
X167404761Y-53523809D01*
X167357142Y-53476190D01*
X167261904Y-53428571D01*
X167166666Y-53428571D01*
X167071428Y-53476190D01*
X167023809Y-53523809D01*
X166976190Y-53619047D01*
X166928571Y-53809523D01*
X166880952Y-53904761D01*
X166833333Y-53952380D01*
X166738095Y-54000000D01*
X166642857Y-54000000D01*
X166547619Y-53952380D01*
X166500000Y-53904761D01*
X166452380Y-53809523D01*
X166452380Y-53571428D01*
X166500000Y-53428571D01*
D11*
X171671428Y-79648571D02*
X172671428Y-79648571D01*
X172028571Y-81148571D01*
X173885714Y-80148571D02*
X173885714Y-81148571D01*
X173528571Y-79577142D02*
X173171428Y-80648571D01*
X174100000Y-80648571D01*
X174671428Y-81148571D02*
X174671428Y-79648571D01*
X174671428Y-80362857D02*
X175528571Y-80362857D01*
X175528571Y-81148571D02*
X175528571Y-79648571D01*
X177100000Y-81005714D02*
X177028571Y-81077142D01*
X176814285Y-81148571D01*
X176671428Y-81148571D01*
X176457142Y-81077142D01*
X176314285Y-80934285D01*
X176242857Y-80791428D01*
X176171428Y-80505714D01*
X176171428Y-80291428D01*
X176242857Y-80005714D01*
X176314285Y-79862857D01*
X176457142Y-79720000D01*
X176671428Y-79648571D01*
X176814285Y-79648571D01*
X177028571Y-79720000D01*
X177100000Y-79791428D01*
X177600000Y-79648571D02*
X178600000Y-79648571D01*
X177957142Y-81148571D01*
X179814285Y-80148571D02*
X179814285Y-81148571D01*
X179457142Y-79577142D02*
X179100000Y-80648571D01*
X180028571Y-80648571D01*
D12*
X94428571Y-139214285D02*
X94333333Y-139309523D01*
X94047619Y-139404761D01*
X93857142Y-139404761D01*
X93571428Y-139309523D01*
X93380952Y-139119047D01*
X93285714Y-138928571D01*
X93190476Y-138547619D01*
X93190476Y-138261904D01*
X93285714Y-137880952D01*
X93380952Y-137690476D01*
X93571428Y-137500000D01*
X93857142Y-137404761D01*
X94047619Y-137404761D01*
X94333333Y-137500000D01*
X94428571Y-137595238D01*
X95285714Y-139404761D02*
X95285714Y-137404761D01*
X95952380Y-138833333D01*
X96619047Y-137404761D01*
X96619047Y-139404761D01*
X97285714Y-137404761D02*
X98428571Y-137404761D01*
X97857142Y-139404761D02*
X97857142Y-137404761D01*
X100619047Y-139404761D02*
X100619047Y-137404761D01*
X101571428Y-139404761D02*
X101571428Y-137404761D01*
X102714285Y-139404761D01*
X102714285Y-137404761D01*
D11*
X132964285Y-114178571D02*
X132250000Y-114178571D01*
X132250000Y-112678571D01*
X133464285Y-114178571D02*
X133464285Y-112678571D01*
X133964285Y-113750000D01*
X134464285Y-112678571D01*
X134464285Y-114178571D01*
X135035714Y-112678571D02*
X135964285Y-112678571D01*
X135464285Y-113250000D01*
X135678571Y-113250000D01*
X135821428Y-113321428D01*
X135892857Y-113392857D01*
X135964285Y-113535714D01*
X135964285Y-113892857D01*
X135892857Y-114035714D01*
X135821428Y-114107142D01*
X135678571Y-114178571D01*
X135250000Y-114178571D01*
X135107142Y-114107142D01*
X135035714Y-114035714D01*
X137392857Y-114178571D02*
X136535714Y-114178571D01*
X136964285Y-114178571D02*
X136964285Y-112678571D01*
X136821428Y-112892857D01*
X136678571Y-113035714D01*
X136535714Y-113107142D01*
X138821428Y-114178571D02*
X137964285Y-114178571D01*
X138392857Y-114178571D02*
X138392857Y-112678571D01*
X138250000Y-112892857D01*
X138107142Y-113035714D01*
X137964285Y-113107142D01*
X122298571Y-86654285D02*
X122298571Y-87368571D01*
X121798571Y-85868571D02*
X122298571Y-86654285D01*
X122798571Y-85868571D01*
X123298571Y-87368571D02*
X123298571Y-85868571D01*
X123798571Y-86940000D01*
X124298571Y-85868571D01*
X124298571Y-87368571D01*
X124941428Y-86011428D02*
X125012857Y-85940000D01*
X125155714Y-85868571D01*
X125512857Y-85868571D01*
X125655714Y-85940000D01*
X125727142Y-86011428D01*
X125798571Y-86154285D01*
X125798571Y-86297142D01*
X125727142Y-86511428D01*
X124870000Y-87368571D01*
X125798571Y-87368571D01*
X127227142Y-87368571D02*
X126370000Y-87368571D01*
X126798571Y-87368571D02*
X126798571Y-85868571D01*
X126655714Y-86082857D01*
X126512857Y-86225714D01*
X126370000Y-86297142D01*
X128512857Y-86368571D02*
X128512857Y-87368571D01*
X128155714Y-85797142D02*
X127798571Y-86868571D01*
X128727142Y-86868571D01*
X129370000Y-87368571D02*
X129655714Y-87368571D01*
X129798571Y-87297142D01*
X129870000Y-87225714D01*
X130012857Y-87011428D01*
X130084285Y-86725714D01*
X130084285Y-86154285D01*
X130012857Y-86011428D01*
X129941428Y-85940000D01*
X129798571Y-85868571D01*
X129512857Y-85868571D01*
X129370000Y-85940000D01*
X129298571Y-86011428D01*
X129227142Y-86154285D01*
X129227142Y-86511428D01*
X129298571Y-86654285D01*
X129370000Y-86725714D01*
X129512857Y-86797142D01*
X129798571Y-86797142D01*
X129941428Y-86725714D01*
X130012857Y-86654285D01*
X130084285Y-86511428D01*
X133441428Y-87940000D02*
X133370000Y-87868571D01*
X133227142Y-87654285D01*
X133155714Y-87511428D01*
X133084285Y-87297142D01*
X133012857Y-86940000D01*
X133012857Y-86654285D01*
X133084285Y-86297142D01*
X133155714Y-86082857D01*
X133227142Y-85940000D01*
X133370000Y-85725714D01*
X133441428Y-85654285D01*
X133941428Y-86940000D02*
X134655714Y-86940000D01*
X133798571Y-87368571D02*
X134298571Y-85868571D01*
X134798571Y-87368571D01*
X135584285Y-86654285D02*
X135584285Y-87368571D01*
X135084285Y-85868571D02*
X135584285Y-86654285D01*
X136084285Y-85868571D01*
X136584285Y-86797142D02*
X137727142Y-86797142D01*
X138298571Y-85868571D02*
X139227142Y-85868571D01*
X138727142Y-86440000D01*
X138941428Y-86440000D01*
X139084285Y-86511428D01*
X139155714Y-86582857D01*
X139227142Y-86725714D01*
X139227142Y-87082857D01*
X139155714Y-87225714D01*
X139084285Y-87297142D01*
X138941428Y-87368571D01*
X138512857Y-87368571D01*
X138370000Y-87297142D01*
X138298571Y-87225714D01*
X139870000Y-86797142D02*
X141012857Y-86797142D01*
X141941428Y-86511428D02*
X141798571Y-86440000D01*
X141727142Y-86368571D01*
X141655714Y-86225714D01*
X141655714Y-86154285D01*
X141727142Y-86011428D01*
X141798571Y-85940000D01*
X141941428Y-85868571D01*
X142227142Y-85868571D01*
X142370000Y-85940000D01*
X142441428Y-86011428D01*
X142512857Y-86154285D01*
X142512857Y-86225714D01*
X142441428Y-86368571D01*
X142370000Y-86440000D01*
X142227142Y-86511428D01*
X141941428Y-86511428D01*
X141798571Y-86582857D01*
X141727142Y-86654285D01*
X141655714Y-86797142D01*
X141655714Y-87082857D01*
X141727142Y-87225714D01*
X141798571Y-87297142D01*
X141941428Y-87368571D01*
X142227142Y-87368571D01*
X142370000Y-87297142D01*
X142441428Y-87225714D01*
X142512857Y-87082857D01*
X142512857Y-86797142D01*
X142441428Y-86654285D01*
X142370000Y-86582857D01*
X142227142Y-86511428D01*
X143227142Y-87368571D02*
X143512857Y-87368571D01*
X143655714Y-87297142D01*
X143727142Y-87225714D01*
X143870000Y-87011428D01*
X143941428Y-86725714D01*
X143941428Y-86154285D01*
X143870000Y-86011428D01*
X143798571Y-85940000D01*
X143655714Y-85868571D01*
X143370000Y-85868571D01*
X143227142Y-85940000D01*
X143155714Y-86011428D01*
X143084285Y-86154285D01*
X143084285Y-86511428D01*
X143155714Y-86654285D01*
X143227142Y-86725714D01*
X143370000Y-86797142D01*
X143655714Y-86797142D01*
X143798571Y-86725714D01*
X143870000Y-86654285D01*
X143941428Y-86511428D01*
X145370000Y-87368571D02*
X144512857Y-87368571D01*
X144941428Y-87368571D02*
X144941428Y-85868571D01*
X144798571Y-86082857D01*
X144655714Y-86225714D01*
X144512857Y-86297142D01*
X146298571Y-85868571D02*
X146441428Y-85868571D01*
X146584285Y-85940000D01*
X146655714Y-86011428D01*
X146727142Y-86154285D01*
X146798571Y-86440000D01*
X146798571Y-86797142D01*
X146727142Y-87082857D01*
X146655714Y-87225714D01*
X146584285Y-87297142D01*
X146441428Y-87368571D01*
X146298571Y-87368571D01*
X146155714Y-87297142D01*
X146084285Y-87225714D01*
X146012857Y-87082857D01*
X145941428Y-86797142D01*
X145941428Y-86440000D01*
X146012857Y-86154285D01*
X146084285Y-86011428D01*
X146155714Y-85940000D01*
X146298571Y-85868571D01*
X147298571Y-87940000D02*
X147370000Y-87868571D01*
X147512857Y-87654285D01*
X147584285Y-87511428D01*
X147655714Y-87297142D01*
X147727142Y-86940000D01*
X147727142Y-86654285D01*
X147655714Y-86297142D01*
X147584285Y-86082857D01*
X147512857Y-85940000D01*
X147370000Y-85725714D01*
X147298571Y-85654285D01*
D10*
X100233333Y-89052380D02*
X99900000Y-88576190D01*
X99661904Y-89052380D02*
X99661904Y-88052380D01*
X100042857Y-88052380D01*
X100138095Y-88100000D01*
X100185714Y-88147619D01*
X100233333Y-88242857D01*
X100233333Y-88385714D01*
X100185714Y-88480952D01*
X100138095Y-88528571D01*
X100042857Y-88576190D01*
X99661904Y-88576190D01*
X101185714Y-89052380D02*
X100614285Y-89052380D01*
X100900000Y-89052380D02*
X100900000Y-88052380D01*
X100804761Y-88195238D01*
X100709523Y-88290476D01*
X100614285Y-88338095D01*
X100233333Y-92132380D02*
X99900000Y-91656190D01*
X99661904Y-92132380D02*
X99661904Y-91132380D01*
X100042857Y-91132380D01*
X100138095Y-91180000D01*
X100185714Y-91227619D01*
X100233333Y-91322857D01*
X100233333Y-91465714D01*
X100185714Y-91560952D01*
X100138095Y-91608571D01*
X100042857Y-91656190D01*
X99661904Y-91656190D01*
X100614285Y-91227619D02*
X100661904Y-91180000D01*
X100757142Y-91132380D01*
X100995238Y-91132380D01*
X101090476Y-91180000D01*
X101138095Y-91227619D01*
X101185714Y-91322857D01*
X101185714Y-91418095D01*
X101138095Y-91560952D01*
X100566666Y-92132380D01*
X101185714Y-92132380D01*
X100414333Y-98272380D02*
X100081000Y-97796190D01*
X99842904Y-98272380D02*
X99842904Y-97272380D01*
X100223857Y-97272380D01*
X100319095Y-97320000D01*
X100366714Y-97367619D01*
X100414333Y-97462857D01*
X100414333Y-97605714D01*
X100366714Y-97700952D01*
X100319095Y-97748571D01*
X100223857Y-97796190D01*
X99842904Y-97796190D01*
X101271476Y-97605714D02*
X101271476Y-98272380D01*
X101033380Y-97224761D02*
X100795285Y-97939047D01*
X101414333Y-97939047D01*
X100334333Y-101272380D02*
X100001000Y-100796190D01*
X99762904Y-101272380D02*
X99762904Y-100272380D01*
X100143857Y-100272380D01*
X100239095Y-100320000D01*
X100286714Y-100367619D01*
X100334333Y-100462857D01*
X100334333Y-100605714D01*
X100286714Y-100700952D01*
X100239095Y-100748571D01*
X100143857Y-100796190D01*
X99762904Y-100796190D01*
X101239095Y-100272380D02*
X100762904Y-100272380D01*
X100715285Y-100748571D01*
X100762904Y-100700952D01*
X100858142Y-100653333D01*
X101096238Y-100653333D01*
X101191476Y-100700952D01*
X101239095Y-100748571D01*
X101286714Y-100843809D01*
X101286714Y-101081904D01*
X101239095Y-101177142D01*
X101191476Y-101224761D01*
X101096238Y-101272380D01*
X100858142Y-101272380D01*
X100762904Y-101224761D01*
X100715285Y-101177142D01*
X100254633Y-104272380D02*
X99921300Y-103796190D01*
X99683204Y-104272380D02*
X99683204Y-103272380D01*
X100064157Y-103272380D01*
X100159395Y-103320000D01*
X100207014Y-103367619D01*
X100254633Y-103462857D01*
X100254633Y-103605714D01*
X100207014Y-103700952D01*
X100159395Y-103748571D01*
X100064157Y-103796190D01*
X99683204Y-103796190D01*
X101111776Y-103272380D02*
X100921300Y-103272380D01*
X100826061Y-103320000D01*
X100778442Y-103367619D01*
X100683204Y-103510476D01*
X100635585Y-103700952D01*
X100635585Y-104081904D01*
X100683204Y-104177142D01*
X100730823Y-104224761D01*
X100826061Y-104272380D01*
X101016538Y-104272380D01*
X101111776Y-104224761D01*
X101159395Y-104177142D01*
X101207014Y-104081904D01*
X101207014Y-103843809D01*
X101159395Y-103748571D01*
X101111776Y-103700952D01*
X101016538Y-103653333D01*
X100826061Y-103653333D01*
X100730823Y-103700952D01*
X100683204Y-103748571D01*
X100635585Y-103843809D01*
X109747380Y-76826904D02*
X110556904Y-76826904D01*
X110652142Y-76779285D01*
X110699761Y-76731666D01*
X110747380Y-76636428D01*
X110747380Y-76445952D01*
X110699761Y-76350714D01*
X110652142Y-76303095D01*
X110556904Y-76255476D01*
X109747380Y-76255476D01*
X109747380Y-75874523D02*
X109747380Y-75255476D01*
X110128333Y-75588809D01*
X110128333Y-75445952D01*
X110175952Y-75350714D01*
X110223571Y-75303095D01*
X110318809Y-75255476D01*
X110556904Y-75255476D01*
X110652142Y-75303095D01*
X110699761Y-75350714D01*
X110747380Y-75445952D01*
X110747380Y-75731666D01*
X110699761Y-75826904D01*
X110652142Y-75874523D01*
X170023809Y-103611190D02*
X170023809Y-104087380D01*
X169690476Y-103087380D02*
X170023809Y-103611190D01*
X170357142Y-103087380D01*
X171214285Y-104087380D02*
X170642857Y-104087380D01*
X170928571Y-104087380D02*
X170928571Y-103087380D01*
X170833333Y-103230238D01*
X170738095Y-103325476D01*
X170642857Y-103373095D01*
X175623333Y-110827142D02*
X175575714Y-110874761D01*
X175432857Y-110922380D01*
X175337619Y-110922380D01*
X175194761Y-110874761D01*
X175099523Y-110779523D01*
X175051904Y-110684285D01*
X175004285Y-110493809D01*
X175004285Y-110350952D01*
X175051904Y-110160476D01*
X175099523Y-110065238D01*
X175194761Y-109970000D01*
X175337619Y-109922380D01*
X175432857Y-109922380D01*
X175575714Y-109970000D01*
X175623333Y-110017619D01*
X175956666Y-109922380D02*
X176575714Y-109922380D01*
X176242380Y-110303333D01*
X176385238Y-110303333D01*
X176480476Y-110350952D01*
X176528095Y-110398571D01*
X176575714Y-110493809D01*
X176575714Y-110731904D01*
X176528095Y-110827142D01*
X176480476Y-110874761D01*
X176385238Y-110922380D01*
X176099523Y-110922380D01*
X176004285Y-110874761D01*
X175956666Y-110827142D01*
X168603333Y-110807142D02*
X168555714Y-110854761D01*
X168412857Y-110902380D01*
X168317619Y-110902380D01*
X168174761Y-110854761D01*
X168079523Y-110759523D01*
X168031904Y-110664285D01*
X167984285Y-110473809D01*
X167984285Y-110330952D01*
X168031904Y-110140476D01*
X168079523Y-110045238D01*
X168174761Y-109950000D01*
X168317619Y-109902380D01*
X168412857Y-109902380D01*
X168555714Y-109950000D01*
X168603333Y-109997619D01*
X169460476Y-110235714D02*
X169460476Y-110902380D01*
X169222380Y-109854761D02*
X168984285Y-110569047D01*
X169603333Y-110569047D01*
X109907142Y-73066666D02*
X109954761Y-73114285D01*
X110002380Y-73257142D01*
X110002380Y-73352380D01*
X109954761Y-73495238D01*
X109859523Y-73590476D01*
X109764285Y-73638095D01*
X109573809Y-73685714D01*
X109430952Y-73685714D01*
X109240476Y-73638095D01*
X109145238Y-73590476D01*
X109050000Y-73495238D01*
X109002380Y-73352380D01*
X109002380Y-73257142D01*
X109050000Y-73114285D01*
X109097619Y-73066666D01*
X109002380Y-72161904D02*
X109002380Y-72638095D01*
X109478571Y-72685714D01*
X109430952Y-72638095D01*
X109383333Y-72542857D01*
X109383333Y-72304761D01*
X109430952Y-72209523D01*
X109478571Y-72161904D01*
X109573809Y-72114285D01*
X109811904Y-72114285D01*
X109907142Y-72161904D01*
X109954761Y-72209523D01*
X110002380Y-72304761D01*
X110002380Y-72542857D01*
X109954761Y-72638095D01*
X109907142Y-72685714D01*
X132087142Y-73066666D02*
X132134761Y-73114285D01*
X132182380Y-73257142D01*
X132182380Y-73352380D01*
X132134761Y-73495238D01*
X132039523Y-73590476D01*
X131944285Y-73638095D01*
X131753809Y-73685714D01*
X131610952Y-73685714D01*
X131420476Y-73638095D01*
X131325238Y-73590476D01*
X131230000Y-73495238D01*
X131182380Y-73352380D01*
X131182380Y-73257142D01*
X131230000Y-73114285D01*
X131277619Y-73066666D01*
X131182380Y-72209523D02*
X131182380Y-72400000D01*
X131230000Y-72495238D01*
X131277619Y-72542857D01*
X131420476Y-72638095D01*
X131610952Y-72685714D01*
X131991904Y-72685714D01*
X132087142Y-72638095D01*
X132134761Y-72590476D01*
X132182380Y-72495238D01*
X132182380Y-72304761D01*
X132134761Y-72209523D01*
X132087142Y-72161904D01*
X131991904Y-72114285D01*
X131753809Y-72114285D01*
X131658571Y-72161904D01*
X131610952Y-72209523D01*
X131563333Y-72304761D01*
X131563333Y-72495238D01*
X131610952Y-72590476D01*
X131658571Y-72638095D01*
X131753809Y-72685714D01*
X109467142Y-84141666D02*
X109514761Y-84189285D01*
X109562380Y-84332142D01*
X109562380Y-84427380D01*
X109514761Y-84570238D01*
X109419523Y-84665476D01*
X109324285Y-84713095D01*
X109133809Y-84760714D01*
X108990952Y-84760714D01*
X108800476Y-84713095D01*
X108705238Y-84665476D01*
X108610000Y-84570238D01*
X108562380Y-84427380D01*
X108562380Y-84332142D01*
X108610000Y-84189285D01*
X108657619Y-84141666D01*
X108562380Y-83808333D02*
X108562380Y-83141666D01*
X109562380Y-83570238D01*
X184002380Y-105816666D02*
X183526190Y-106150000D01*
X184002380Y-106388095D02*
X183002380Y-106388095D01*
X183002380Y-106007142D01*
X183050000Y-105911904D01*
X183097619Y-105864285D01*
X183192857Y-105816666D01*
X183335714Y-105816666D01*
X183430952Y-105864285D01*
X183478571Y-105911904D01*
X183526190Y-106007142D01*
X183526190Y-106388095D01*
X183002380Y-105483333D02*
X183002380Y-104816666D01*
X184002380Y-105245238D01*
X180682380Y-105766666D02*
X180206190Y-106100000D01*
X180682380Y-106338095D02*
X179682380Y-106338095D01*
X179682380Y-105957142D01*
X179730000Y-105861904D01*
X179777619Y-105814285D01*
X179872857Y-105766666D01*
X180015714Y-105766666D01*
X180110952Y-105814285D01*
X180158571Y-105861904D01*
X180206190Y-105957142D01*
X180206190Y-106338095D01*
X180110952Y-105195238D02*
X180063333Y-105290476D01*
X180015714Y-105338095D01*
X179920476Y-105385714D01*
X179872857Y-105385714D01*
X179777619Y-105338095D01*
X179730000Y-105290476D01*
X179682380Y-105195238D01*
X179682380Y-105004761D01*
X179730000Y-104909523D01*
X179777619Y-104861904D01*
X179872857Y-104814285D01*
X179920476Y-104814285D01*
X180015714Y-104861904D01*
X180063333Y-104909523D01*
X180110952Y-105004761D01*
X180110952Y-105195238D01*
X180158571Y-105290476D01*
X180206190Y-105338095D01*
X180301428Y-105385714D01*
X180491904Y-105385714D01*
X180587142Y-105338095D01*
X180634761Y-105290476D01*
X180682380Y-105195238D01*
X180682380Y-105004761D01*
X180634761Y-104909523D01*
X180587142Y-104861904D01*
X180491904Y-104814285D01*
X180301428Y-104814285D01*
X180206190Y-104861904D01*
X180158571Y-104909523D01*
X180110952Y-105004761D01*
X116622380Y-132161904D02*
X117431904Y-132161904D01*
X117527142Y-132114285D01*
X117574761Y-132066666D01*
X117622380Y-131971428D01*
X117622380Y-131780952D01*
X117574761Y-131685714D01*
X117527142Y-131638095D01*
X117431904Y-131590476D01*
X116622380Y-131590476D01*
X116622380Y-131209523D02*
X116622380Y-130542857D01*
X117622380Y-130971428D01*
X153666666Y-140452380D02*
X153666666Y-141166666D01*
X153619047Y-141309523D01*
X153523809Y-141404761D01*
X153380952Y-141452380D01*
X153285714Y-141452380D01*
X154619047Y-140452380D02*
X154142857Y-140452380D01*
X154095238Y-140928571D01*
X154142857Y-140880952D01*
X154238095Y-140833333D01*
X154476190Y-140833333D01*
X154571428Y-140880952D01*
X154619047Y-140928571D01*
X154666666Y-141023809D01*
X154666666Y-141261904D01*
X154619047Y-141357142D01*
X154571428Y-141404761D01*
X154476190Y-141452380D01*
X154238095Y-141452380D01*
X154142857Y-141404761D01*
X154095238Y-141357142D01*
X116752142Y-128432857D02*
X116799761Y-128480476D01*
X116847380Y-128623333D01*
X116847380Y-128718571D01*
X116799761Y-128861428D01*
X116704523Y-128956666D01*
X116609285Y-129004285D01*
X116418809Y-129051904D01*
X116275952Y-129051904D01*
X116085476Y-129004285D01*
X115990238Y-128956666D01*
X115895000Y-128861428D01*
X115847380Y-128718571D01*
X115847380Y-128623333D01*
X115895000Y-128480476D01*
X115942619Y-128432857D01*
X116847380Y-127480476D02*
X116847380Y-128051904D01*
X116847380Y-127766190D02*
X115847380Y-127766190D01*
X115990238Y-127861428D01*
X116085476Y-127956666D01*
X116133095Y-128051904D01*
X115847380Y-126861428D02*
X115847380Y-126766190D01*
X115895000Y-126670952D01*
X115942619Y-126623333D01*
X116037857Y-126575714D01*
X116228333Y-126528095D01*
X116466428Y-126528095D01*
X116656904Y-126575714D01*
X116752142Y-126623333D01*
X116799761Y-126670952D01*
X116847380Y-126766190D01*
X116847380Y-126861428D01*
X116799761Y-126956666D01*
X116752142Y-127004285D01*
X116656904Y-127051904D01*
X116466428Y-127099523D01*
X116228333Y-127099523D01*
X116037857Y-127051904D01*
X115942619Y-127004285D01*
X115895000Y-126956666D01*
X115847380Y-126861428D01*
X165357142Y-92926666D02*
X165404761Y-92974285D01*
X165452380Y-93117142D01*
X165452380Y-93212380D01*
X165404761Y-93355238D01*
X165309523Y-93450476D01*
X165214285Y-93498095D01*
X165023809Y-93545714D01*
X164880952Y-93545714D01*
X164690476Y-93498095D01*
X164595238Y-93450476D01*
X164500000Y-93355238D01*
X164452380Y-93212380D01*
X164452380Y-93117142D01*
X164500000Y-92974285D01*
X164547619Y-92926666D01*
X165452380Y-92450476D02*
X165452380Y-92260000D01*
X165404761Y-92164761D01*
X165357142Y-92117142D01*
X165214285Y-92021904D01*
X165023809Y-91974285D01*
X164642857Y-91974285D01*
X164547619Y-92021904D01*
X164500000Y-92069523D01*
X164452380Y-92164761D01*
X164452380Y-92355238D01*
X164500000Y-92450476D01*
X164547619Y-92498095D01*
X164642857Y-92545714D01*
X164880952Y-92545714D01*
X164976190Y-92498095D01*
X165023809Y-92450476D01*
X165071428Y-92355238D01*
X165071428Y-92164761D01*
X165023809Y-92069523D01*
X164976190Y-92021904D01*
X164880952Y-91974285D01*
X115519523Y-135772380D02*
X115186190Y-135296190D01*
X114948095Y-135772380D02*
X114948095Y-134772380D01*
X115329047Y-134772380D01*
X115424285Y-134820000D01*
X115471904Y-134867619D01*
X115519523Y-134962857D01*
X115519523Y-135105714D01*
X115471904Y-135200952D01*
X115424285Y-135248571D01*
X115329047Y-135296190D01*
X114948095Y-135296190D01*
X115948095Y-135772380D02*
X115948095Y-134772380D01*
X116519523Y-135772380D01*
X116519523Y-134772380D01*
X116948095Y-134867619D02*
X116995714Y-134820000D01*
X117090952Y-134772380D01*
X117329047Y-134772380D01*
X117424285Y-134820000D01*
X117471904Y-134867619D01*
X117519523Y-134962857D01*
X117519523Y-135058095D01*
X117471904Y-135200952D01*
X116900476Y-135772380D01*
X117519523Y-135772380D01*
X167509523Y-135822380D02*
X167176190Y-135346190D01*
X166938095Y-135822380D02*
X166938095Y-134822380D01*
X167319047Y-134822380D01*
X167414285Y-134870000D01*
X167461904Y-134917619D01*
X167509523Y-135012857D01*
X167509523Y-135155714D01*
X167461904Y-135250952D01*
X167414285Y-135298571D01*
X167319047Y-135346190D01*
X166938095Y-135346190D01*
X167938095Y-135822380D02*
X167938095Y-134822380D01*
X168509523Y-135822380D01*
X168509523Y-134822380D01*
X169509523Y-135822380D02*
X168938095Y-135822380D01*
X169223809Y-135822380D02*
X169223809Y-134822380D01*
X169128571Y-134965238D01*
X169033333Y-135060476D01*
X168938095Y-135108095D01*
X165357142Y-81036666D02*
X165404761Y-81084285D01*
X165452380Y-81227142D01*
X165452380Y-81322380D01*
X165404761Y-81465238D01*
X165309523Y-81560476D01*
X165214285Y-81608095D01*
X165023809Y-81655714D01*
X164880952Y-81655714D01*
X164690476Y-81608095D01*
X164595238Y-81560476D01*
X164500000Y-81465238D01*
X164452380Y-81322380D01*
X164452380Y-81227142D01*
X164500000Y-81084285D01*
X164547619Y-81036666D01*
X164880952Y-80465238D02*
X164833333Y-80560476D01*
X164785714Y-80608095D01*
X164690476Y-80655714D01*
X164642857Y-80655714D01*
X164547619Y-80608095D01*
X164500000Y-80560476D01*
X164452380Y-80465238D01*
X164452380Y-80274761D01*
X164500000Y-80179523D01*
X164547619Y-80131904D01*
X164642857Y-80084285D01*
X164690476Y-80084285D01*
X164785714Y-80131904D01*
X164833333Y-80179523D01*
X164880952Y-80274761D01*
X164880952Y-80465238D01*
X164928571Y-80560476D01*
X164976190Y-80608095D01*
X165071428Y-80655714D01*
X165261904Y-80655714D01*
X165357142Y-80608095D01*
X165404761Y-80560476D01*
X165452380Y-80465238D01*
X165452380Y-80274761D01*
X165404761Y-80179523D01*
X165357142Y-80131904D01*
X165261904Y-80084285D01*
X165071428Y-80084285D01*
X164976190Y-80131904D01*
X164928571Y-80179523D01*
X164880952Y-80274761D01*
X143457142Y-128612857D02*
X143504761Y-128660476D01*
X143552380Y-128803333D01*
X143552380Y-128898571D01*
X143504761Y-129041428D01*
X143409523Y-129136666D01*
X143314285Y-129184285D01*
X143123809Y-129231904D01*
X142980952Y-129231904D01*
X142790476Y-129184285D01*
X142695238Y-129136666D01*
X142600000Y-129041428D01*
X142552380Y-128898571D01*
X142552380Y-128803333D01*
X142600000Y-128660476D01*
X142647619Y-128612857D01*
X143552380Y-127660476D02*
X143552380Y-128231904D01*
X143552380Y-127946190D02*
X142552380Y-127946190D01*
X142695238Y-128041428D01*
X142790476Y-128136666D01*
X142838095Y-128231904D01*
X143552380Y-126708095D02*
X143552380Y-127279523D01*
X143552380Y-126993809D02*
X142552380Y-126993809D01*
X142695238Y-127089047D01*
X142790476Y-127184285D01*
X142838095Y-127279523D01*
D13*
X99934666Y-71697523D02*
X99934666Y-72604666D01*
X99874190Y-72786095D01*
X99753238Y-72907047D01*
X99571809Y-72967523D01*
X99450857Y-72967523D01*
X101204666Y-72967523D02*
X100478952Y-72967523D01*
X100841809Y-72967523D02*
X100841809Y-71697523D01*
X100720857Y-71878952D01*
X100599904Y-71999904D01*
X100478952Y-72060380D01*
D10*
X155122380Y-71063333D02*
X155836666Y-71063333D01*
X155979523Y-71110952D01*
X156074761Y-71206190D01*
X156122380Y-71349047D01*
X156122380Y-71444285D01*
X155217619Y-70634761D02*
X155170000Y-70587142D01*
X155122380Y-70491904D01*
X155122380Y-70253809D01*
X155170000Y-70158571D01*
X155217619Y-70110952D01*
X155312857Y-70063333D01*
X155408095Y-70063333D01*
X155550952Y-70110952D01*
X156122380Y-70682380D01*
X156122380Y-70063333D01*
X113212380Y-57058333D02*
X113926666Y-57058333D01*
X114069523Y-57105952D01*
X114164761Y-57201190D01*
X114212380Y-57344047D01*
X114212380Y-57439285D01*
X113545714Y-56153571D02*
X114212380Y-56153571D01*
X113164761Y-56391666D02*
X113879047Y-56629761D01*
X113879047Y-56010714D01*
X100363333Y-95172380D02*
X100030000Y-94696190D01*
X99791904Y-95172380D02*
X99791904Y-94172380D01*
X100172857Y-94172380D01*
X100268095Y-94220000D01*
X100315714Y-94267619D01*
X100363333Y-94362857D01*
X100363333Y-94505714D01*
X100315714Y-94600952D01*
X100268095Y-94648571D01*
X100172857Y-94696190D01*
X99791904Y-94696190D01*
X100696666Y-94172380D02*
X101315714Y-94172380D01*
X100982380Y-94553333D01*
X101125238Y-94553333D01*
X101220476Y-94600952D01*
X101268095Y-94648571D01*
X101315714Y-94743809D01*
X101315714Y-94981904D01*
X101268095Y-95077142D01*
X101220476Y-95124761D01*
X101125238Y-95172380D01*
X100839523Y-95172380D01*
X100744285Y-95124761D01*
X100696666Y-95077142D01*
X131592380Y-76661904D02*
X132401904Y-76661904D01*
X132497142Y-76614285D01*
X132544761Y-76566666D01*
X132592380Y-76471428D01*
X132592380Y-76280952D01*
X132544761Y-76185714D01*
X132497142Y-76138095D01*
X132401904Y-76090476D01*
X131592380Y-76090476D01*
X132592380Y-75090476D02*
X132592380Y-75661904D01*
X132592380Y-75376190D02*
X131592380Y-75376190D01*
X131735238Y-75471428D01*
X131830476Y-75566666D01*
X131878095Y-75661904D01*
X164992380Y-97321904D02*
X165801904Y-97321904D01*
X165897142Y-97274285D01*
X165944761Y-97226666D01*
X165992380Y-97131428D01*
X165992380Y-96940952D01*
X165944761Y-96845714D01*
X165897142Y-96798095D01*
X165801904Y-96750476D01*
X164992380Y-96750476D01*
X165087619Y-96321904D02*
X165040000Y-96274285D01*
X164992380Y-96179047D01*
X164992380Y-95940952D01*
X165040000Y-95845714D01*
X165087619Y-95798095D01*
X165182857Y-95750476D01*
X165278095Y-95750476D01*
X165420952Y-95798095D01*
X165992380Y-96369523D01*
X165992380Y-95750476D01*
X142752380Y-132061904D02*
X143561904Y-132061904D01*
X143657142Y-132014285D01*
X143704761Y-131966666D01*
X143752380Y-131871428D01*
X143752380Y-131680952D01*
X143704761Y-131585714D01*
X143657142Y-131538095D01*
X143561904Y-131490476D01*
X142752380Y-131490476D01*
X143085714Y-130585714D02*
X143752380Y-130585714D01*
X142704761Y-130823809D02*
X143419047Y-131061904D01*
X143419047Y-130442857D01*
X164992380Y-85321904D02*
X165801904Y-85321904D01*
X165897142Y-85274285D01*
X165944761Y-85226666D01*
X165992380Y-85131428D01*
X165992380Y-84940952D01*
X165944761Y-84845714D01*
X165897142Y-84798095D01*
X165801904Y-84750476D01*
X164992380Y-84750476D01*
X164992380Y-83798095D02*
X164992380Y-84274285D01*
X165468571Y-84321904D01*
X165420952Y-84274285D01*
X165373333Y-84179047D01*
X165373333Y-83940952D01*
X165420952Y-83845714D01*
X165468571Y-83798095D01*
X165563809Y-83750476D01*
X165801904Y-83750476D01*
X165897142Y-83798095D01*
X165944761Y-83845714D01*
X165992380Y-83940952D01*
X165992380Y-84179047D01*
X165944761Y-84274285D01*
X165897142Y-84321904D01*
X109192380Y-96041904D02*
X110001904Y-96041904D01*
X110097142Y-95994285D01*
X110144761Y-95946666D01*
X110192380Y-95851428D01*
X110192380Y-95660952D01*
X110144761Y-95565714D01*
X110097142Y-95518095D01*
X110001904Y-95470476D01*
X109192380Y-95470476D01*
X109192380Y-94565714D02*
X109192380Y-94756190D01*
X109240000Y-94851428D01*
X109287619Y-94899047D01*
X109430476Y-94994285D01*
X109620952Y-95041904D01*
X110001904Y-95041904D01*
X110097142Y-94994285D01*
X110144761Y-94946666D01*
X110192380Y-94851428D01*
X110192380Y-94660952D01*
X110144761Y-94565714D01*
X110097142Y-94518095D01*
X110001904Y-94470476D01*
X109763809Y-94470476D01*
X109668571Y-94518095D01*
X109620952Y-94565714D01*
X109573333Y-94660952D01*
X109573333Y-94851428D01*
X109620952Y-94946666D01*
X109668571Y-94994285D01*
X109763809Y-95041904D01*
X114486666Y-140592380D02*
X114486666Y-141306666D01*
X114439047Y-141449523D01*
X114343809Y-141544761D01*
X114200952Y-141592380D01*
X114105714Y-141592380D01*
X114867619Y-140592380D02*
X115486666Y-140592380D01*
X115153333Y-140973333D01*
X115296190Y-140973333D01*
X115391428Y-141020952D01*
X115439047Y-141068571D01*
X115486666Y-141163809D01*
X115486666Y-141401904D01*
X115439047Y-141497142D01*
X115391428Y-141544761D01*
X115296190Y-141592380D01*
X115010476Y-141592380D01*
X114915238Y-141544761D01*
X114867619Y-141497142D01*
X128357142Y-107142857D02*
X128404761Y-107190476D01*
X128452380Y-107333333D01*
X128452380Y-107428571D01*
X128404761Y-107571428D01*
X128309523Y-107666666D01*
X128214285Y-107714285D01*
X128023809Y-107761904D01*
X127880952Y-107761904D01*
X127690476Y-107714285D01*
X127595238Y-107666666D01*
X127500000Y-107571428D01*
X127452380Y-107428571D01*
X127452380Y-107333333D01*
X127500000Y-107190476D01*
X127547619Y-107142857D01*
X128452380Y-106190476D02*
X128452380Y-106761904D01*
X128452380Y-106476190D02*
X127452380Y-106476190D01*
X127595238Y-106571428D01*
X127690476Y-106666666D01*
X127738095Y-106761904D01*
X127452380Y-105857142D02*
X127452380Y-105238095D01*
X127833333Y-105571428D01*
X127833333Y-105428571D01*
X127880952Y-105333333D01*
X127928571Y-105285714D01*
X128023809Y-105238095D01*
X128261904Y-105238095D01*
X128357142Y-105285714D01*
X128404761Y-105333333D01*
X128452380Y-105428571D01*
X128452380Y-105714285D01*
X128404761Y-105809523D01*
X128357142Y-105857142D01*
X102607142Y-120307142D02*
X102559523Y-120354761D01*
X102416666Y-120402380D01*
X102321428Y-120402380D01*
X102178571Y-120354761D01*
X102083333Y-120259523D01*
X102035714Y-120164285D01*
X101988095Y-119973809D01*
X101988095Y-119830952D01*
X102035714Y-119640476D01*
X102083333Y-119545238D01*
X102178571Y-119450000D01*
X102321428Y-119402380D01*
X102416666Y-119402380D01*
X102559523Y-119450000D01*
X102607142Y-119497619D01*
X103559523Y-120402380D02*
X102988095Y-120402380D01*
X103273809Y-120402380D02*
X103273809Y-119402380D01*
X103178571Y-119545238D01*
X103083333Y-119640476D01*
X102988095Y-119688095D01*
X104416666Y-119735714D02*
X104416666Y-120402380D01*
X104178571Y-119354761D02*
X103940476Y-120069047D01*
X104559523Y-120069047D01*
D13*
X99754666Y-129897523D02*
X99754666Y-130804666D01*
X99694190Y-130986095D01*
X99573238Y-131107047D01*
X99391809Y-131167523D01*
X99270857Y-131167523D01*
X100903714Y-129897523D02*
X100661809Y-129897523D01*
X100540857Y-129958000D01*
X100480380Y-130018476D01*
X100359428Y-130199904D01*
X100298952Y-130441809D01*
X100298952Y-130925619D01*
X100359428Y-131046571D01*
X100419904Y-131107047D01*
X100540857Y-131167523D01*
X100782761Y-131167523D01*
X100903714Y-131107047D01*
X100964190Y-131046571D01*
X101024666Y-130925619D01*
X101024666Y-130623238D01*
X100964190Y-130502285D01*
X100903714Y-130441809D01*
X100782761Y-130381333D01*
X100540857Y-130381333D01*
X100419904Y-130441809D01*
X100359428Y-130502285D01*
X100298952Y-130623238D01*
D10*
X116913333Y-107452380D02*
X116580000Y-106976190D01*
X116341904Y-107452380D02*
X116341904Y-106452380D01*
X116722857Y-106452380D01*
X116818095Y-106500000D01*
X116865714Y-106547619D01*
X116913333Y-106642857D01*
X116913333Y-106785714D01*
X116865714Y-106880952D01*
X116818095Y-106928571D01*
X116722857Y-106976190D01*
X116341904Y-106976190D01*
X117389523Y-107452380D02*
X117580000Y-107452380D01*
X117675238Y-107404761D01*
X117722857Y-107357142D01*
X117818095Y-107214285D01*
X117865714Y-107023809D01*
X117865714Y-106642857D01*
X117818095Y-106547619D01*
X117770476Y-106500000D01*
X117675238Y-106452380D01*
X117484761Y-106452380D01*
X117389523Y-106500000D01*
X117341904Y-106547619D01*
X117294285Y-106642857D01*
X117294285Y-106880952D01*
X117341904Y-106976190D01*
X117389523Y-107023809D01*
X117484761Y-107071428D01*
X117675238Y-107071428D01*
X117770476Y-107023809D01*
X117818095Y-106976190D01*
X117865714Y-106880952D01*
X115957142Y-100852380D02*
X115623809Y-100376190D01*
X115385714Y-100852380D02*
X115385714Y-99852380D01*
X115766666Y-99852380D01*
X115861904Y-99900000D01*
X115909523Y-99947619D01*
X115957142Y-100042857D01*
X115957142Y-100185714D01*
X115909523Y-100280952D01*
X115861904Y-100328571D01*
X115766666Y-100376190D01*
X115385714Y-100376190D01*
X116909523Y-100852380D02*
X116338095Y-100852380D01*
X116623809Y-100852380D02*
X116623809Y-99852380D01*
X116528571Y-99995238D01*
X116433333Y-100090476D01*
X116338095Y-100138095D01*
X117528571Y-99852380D02*
X117623809Y-99852380D01*
X117719047Y-99900000D01*
X117766666Y-99947619D01*
X117814285Y-100042857D01*
X117861904Y-100233333D01*
X117861904Y-100471428D01*
X117814285Y-100661904D01*
X117766666Y-100757142D01*
X117719047Y-100804761D01*
X117623809Y-100852380D01*
X117528571Y-100852380D01*
X117433333Y-100804761D01*
X117385714Y-100757142D01*
X117338095Y-100661904D01*
X117290476Y-100471428D01*
X117290476Y-100233333D01*
X117338095Y-100042857D01*
X117385714Y-99947619D01*
X117433333Y-99900000D01*
X117528571Y-99852380D01*
X116357142Y-104052380D02*
X116023809Y-103576190D01*
X115785714Y-104052380D02*
X115785714Y-103052380D01*
X116166666Y-103052380D01*
X116261904Y-103100000D01*
X116309523Y-103147619D01*
X116357142Y-103242857D01*
X116357142Y-103385714D01*
X116309523Y-103480952D01*
X116261904Y-103528571D01*
X116166666Y-103576190D01*
X115785714Y-103576190D01*
X117309523Y-104052380D02*
X116738095Y-104052380D01*
X117023809Y-104052380D02*
X117023809Y-103052380D01*
X116928571Y-103195238D01*
X116833333Y-103290476D01*
X116738095Y-103338095D01*
X118261904Y-104052380D02*
X117690476Y-104052380D01*
X117976190Y-104052380D02*
X117976190Y-103052380D01*
X117880952Y-103195238D01*
X117785714Y-103290476D01*
X117690476Y-103338095D01*
X109652380Y-126142857D02*
X109176190Y-126476190D01*
X109652380Y-126714285D02*
X108652380Y-126714285D01*
X108652380Y-126333333D01*
X108700000Y-126238095D01*
X108747619Y-126190476D01*
X108842857Y-126142857D01*
X108985714Y-126142857D01*
X109080952Y-126190476D01*
X109128571Y-126238095D01*
X109176190Y-126333333D01*
X109176190Y-126714285D01*
X109652380Y-125190476D02*
X109652380Y-125761904D01*
X109652380Y-125476190D02*
X108652380Y-125476190D01*
X108795238Y-125571428D01*
X108890476Y-125666666D01*
X108938095Y-125761904D01*
X108747619Y-124809523D02*
X108700000Y-124761904D01*
X108652380Y-124666666D01*
X108652380Y-124428571D01*
X108700000Y-124333333D01*
X108747619Y-124285714D01*
X108842857Y-124238095D01*
X108938095Y-124238095D01*
X109080952Y-124285714D01*
X109652380Y-124857142D01*
X109652380Y-124238095D01*
X112852380Y-126222857D02*
X112376190Y-126556190D01*
X112852380Y-126794285D02*
X111852380Y-126794285D01*
X111852380Y-126413333D01*
X111900000Y-126318095D01*
X111947619Y-126270476D01*
X112042857Y-126222857D01*
X112185714Y-126222857D01*
X112280952Y-126270476D01*
X112328571Y-126318095D01*
X112376190Y-126413333D01*
X112376190Y-126794285D01*
X112852380Y-125270476D02*
X112852380Y-125841904D01*
X112852380Y-125556190D02*
X111852380Y-125556190D01*
X111995238Y-125651428D01*
X112090476Y-125746666D01*
X112138095Y-125841904D01*
X111852380Y-124937142D02*
X111852380Y-124318095D01*
X112233333Y-124651428D01*
X112233333Y-124508571D01*
X112280952Y-124413333D01*
X112328571Y-124365714D01*
X112423809Y-124318095D01*
X112661904Y-124318095D01*
X112757142Y-124365714D01*
X112804761Y-124413333D01*
X112852380Y-124508571D01*
X112852380Y-124794285D01*
X112804761Y-124889523D01*
X112757142Y-124937142D01*
X92316666Y-106022380D02*
X92316666Y-106736666D01*
X92269047Y-106879523D01*
X92173809Y-106974761D01*
X92030952Y-107022380D01*
X91935714Y-107022380D01*
X92697619Y-106022380D02*
X93364285Y-106022380D01*
X92935714Y-107022380D01*
X102777142Y-109542380D02*
X102443809Y-109066190D01*
X102205714Y-109542380D02*
X102205714Y-108542380D01*
X102586666Y-108542380D01*
X102681904Y-108590000D01*
X102729523Y-108637619D01*
X102777142Y-108732857D01*
X102777142Y-108875714D01*
X102729523Y-108970952D01*
X102681904Y-109018571D01*
X102586666Y-109066190D01*
X102205714Y-109066190D01*
X103729523Y-109542380D02*
X103158095Y-109542380D01*
X103443809Y-109542380D02*
X103443809Y-108542380D01*
X103348571Y-108685238D01*
X103253333Y-108780476D01*
X103158095Y-108828095D01*
X104586666Y-108875714D02*
X104586666Y-109542380D01*
X104348571Y-108494761D02*
X104110476Y-109209047D01*
X104729523Y-109209047D01*
X102687142Y-112502380D02*
X102353809Y-112026190D01*
X102115714Y-112502380D02*
X102115714Y-111502380D01*
X102496666Y-111502380D01*
X102591904Y-111550000D01*
X102639523Y-111597619D01*
X102687142Y-111692857D01*
X102687142Y-111835714D01*
X102639523Y-111930952D01*
X102591904Y-111978571D01*
X102496666Y-112026190D01*
X102115714Y-112026190D01*
X103639523Y-112502380D02*
X103068095Y-112502380D01*
X103353809Y-112502380D02*
X103353809Y-111502380D01*
X103258571Y-111645238D01*
X103163333Y-111740476D01*
X103068095Y-111788095D01*
X104544285Y-111502380D02*
X104068095Y-111502380D01*
X104020476Y-111978571D01*
X104068095Y-111930952D01*
X104163333Y-111883333D01*
X104401428Y-111883333D01*
X104496666Y-111930952D01*
X104544285Y-111978571D01*
X104591904Y-112073809D01*
X104591904Y-112311904D01*
X104544285Y-112407142D01*
X104496666Y-112454761D01*
X104401428Y-112502380D01*
X104163333Y-112502380D01*
X104068095Y-112454761D01*
X104020476Y-112407142D01*
X95107142Y-82416666D02*
X95154761Y-82464285D01*
X95202380Y-82607142D01*
X95202380Y-82702380D01*
X95154761Y-82845238D01*
X95059523Y-82940476D01*
X94964285Y-82988095D01*
X94773809Y-83035714D01*
X94630952Y-83035714D01*
X94440476Y-82988095D01*
X94345238Y-82940476D01*
X94250000Y-82845238D01*
X94202380Y-82702380D01*
X94202380Y-82607142D01*
X94250000Y-82464285D01*
X94297619Y-82416666D01*
X94297619Y-82035714D02*
X94250000Y-81988095D01*
X94202380Y-81892857D01*
X94202380Y-81654761D01*
X94250000Y-81559523D01*
X94297619Y-81511904D01*
X94392857Y-81464285D01*
X94488095Y-81464285D01*
X94630952Y-81511904D01*
X95202380Y-82083333D01*
X95202380Y-81464285D01*
X116261904Y-112452380D02*
X116261904Y-111452380D01*
X116500000Y-111452380D01*
X116642857Y-111500000D01*
X116738095Y-111595238D01*
X116785714Y-111690476D01*
X116833333Y-111880952D01*
X116833333Y-112023809D01*
X116785714Y-112214285D01*
X116738095Y-112309523D01*
X116642857Y-112404761D01*
X116500000Y-112452380D01*
X116261904Y-112452380D01*
X117785714Y-112452380D02*
X117214285Y-112452380D01*
X117500000Y-112452380D02*
X117500000Y-111452380D01*
X117404761Y-111595238D01*
X117309523Y-111690476D01*
X117214285Y-111738095D01*
X112428095Y-110652380D02*
X112428095Y-109652380D01*
X112999523Y-110652380D02*
X112570952Y-110080952D01*
X112999523Y-109652380D02*
X112428095Y-110223809D01*
X105402042Y-57607142D02*
X105354423Y-57654761D01*
X105211566Y-57702380D01*
X105116328Y-57702380D01*
X104973471Y-57654761D01*
X104878233Y-57559523D01*
X104830614Y-57464285D01*
X104782995Y-57273809D01*
X104782995Y-57130952D01*
X104830614Y-56940476D01*
X104878233Y-56845238D01*
X104973471Y-56750000D01*
X105116328Y-56702380D01*
X105211566Y-56702380D01*
X105354423Y-56750000D01*
X105402042Y-56797619D01*
X106354423Y-57702380D02*
X105782995Y-57702380D01*
X106068709Y-57702380D02*
X106068709Y-56702380D01*
X105973471Y-56845238D01*
X105878233Y-56940476D01*
X105782995Y-56988095D01*
X106735376Y-56797619D02*
X106782995Y-56750000D01*
X106878233Y-56702380D01*
X107116328Y-56702380D01*
X107211566Y-56750000D01*
X107259185Y-56797619D01*
X107306804Y-56892857D01*
X107306804Y-56988095D01*
X107259185Y-57130952D01*
X106687757Y-57702380D01*
X107306804Y-57702380D01*
X128822380Y-114251904D02*
X129631904Y-114251904D01*
X129727142Y-114204285D01*
X129774761Y-114156666D01*
X129822380Y-114061428D01*
X129822380Y-113870952D01*
X129774761Y-113775714D01*
X129727142Y-113728095D01*
X129631904Y-113680476D01*
X128822380Y-113680476D01*
X129250952Y-113061428D02*
X129203333Y-113156666D01*
X129155714Y-113204285D01*
X129060476Y-113251904D01*
X129012857Y-113251904D01*
X128917619Y-113204285D01*
X128870000Y-113156666D01*
X128822380Y-113061428D01*
X128822380Y-112870952D01*
X128870000Y-112775714D01*
X128917619Y-112728095D01*
X129012857Y-112680476D01*
X129060476Y-112680476D01*
X129155714Y-112728095D01*
X129203333Y-112775714D01*
X129250952Y-112870952D01*
X129250952Y-113061428D01*
X129298571Y-113156666D01*
X129346190Y-113204285D01*
X129441428Y-113251904D01*
X129631904Y-113251904D01*
X129727142Y-113204285D01*
X129774761Y-113156666D01*
X129822380Y-113061428D01*
X129822380Y-112870952D01*
X129774761Y-112775714D01*
X129727142Y-112728095D01*
X129631904Y-112680476D01*
X129441428Y-112680476D01*
X129346190Y-112728095D01*
X129298571Y-112775714D01*
X129250952Y-112870952D01*
X97378233Y-59107142D02*
X97330614Y-59154761D01*
X97187757Y-59202380D01*
X97092519Y-59202380D01*
X96949661Y-59154761D01*
X96854423Y-59059523D01*
X96806804Y-58964285D01*
X96759185Y-58773809D01*
X96759185Y-58630952D01*
X96806804Y-58440476D01*
X96854423Y-58345238D01*
X96949661Y-58250000D01*
X97092519Y-58202380D01*
X97187757Y-58202380D01*
X97330614Y-58250000D01*
X97378233Y-58297619D01*
X98330614Y-59202380D02*
X97759185Y-59202380D01*
X98044900Y-59202380D02*
X98044900Y-58202380D01*
X97949661Y-58345238D01*
X97854423Y-58440476D01*
X97759185Y-58488095D01*
X116261904Y-116452380D02*
X116261904Y-115452380D01*
X116500000Y-115452380D01*
X116642857Y-115500000D01*
X116738095Y-115595238D01*
X116785714Y-115690476D01*
X116833333Y-115880952D01*
X116833333Y-116023809D01*
X116785714Y-116214285D01*
X116738095Y-116309523D01*
X116642857Y-116404761D01*
X116500000Y-116452380D01*
X116261904Y-116452380D01*
X117214285Y-115547619D02*
X117261904Y-115500000D01*
X117357142Y-115452380D01*
X117595238Y-115452380D01*
X117690476Y-115500000D01*
X117738095Y-115547619D01*
X117785714Y-115642857D01*
X117785714Y-115738095D01*
X117738095Y-115880952D01*
X117166666Y-116452380D01*
X117785714Y-116452380D01*
X112428095Y-114652380D02*
X112428095Y-113652380D01*
X112999523Y-114652380D02*
X112570952Y-114080952D01*
X112999523Y-113652380D02*
X112428095Y-114223809D01*
D14*
X103750000Y-89970000D02*
X103750000Y-87230000D01*
X97210000Y-89970000D02*
X103750000Y-89970000D01*
X97210000Y-87230000D02*
X97210000Y-89970000D01*
X103750000Y-87230000D02*
X97210000Y-87230000D01*
X104520000Y-88600000D02*
X103750000Y-88600000D01*
X96440000Y-88600000D02*
X97210000Y-88600000D01*
X103750000Y-93050000D02*
X103750000Y-90310000D01*
X104520000Y-91680000D02*
X103750000Y-91680000D01*
X97210000Y-90310000D02*
X97210000Y-93050000D01*
X103750000Y-90310000D02*
X97210000Y-90310000D01*
X96440000Y-91680000D02*
X97210000Y-91680000D01*
X97210000Y-93050000D02*
X103750000Y-93050000D01*
X103771000Y-96450000D02*
X97231000Y-96450000D01*
X97231000Y-96450000D02*
X97231000Y-99190000D01*
X96461000Y-97820000D02*
X97231000Y-97820000D01*
X97231000Y-99190000D02*
X103771000Y-99190000D01*
X104541000Y-97820000D02*
X103771000Y-97820000D01*
X103771000Y-99190000D02*
X103771000Y-96450000D01*
X104541000Y-100820000D02*
X103771000Y-100820000D01*
X103771000Y-102190000D02*
X103771000Y-99450000D01*
X97231000Y-99450000D02*
X97231000Y-102190000D01*
X103771000Y-99450000D02*
X97231000Y-99450000D01*
X96461000Y-100820000D02*
X97231000Y-100820000D01*
X97231000Y-102190000D02*
X103771000Y-102190000D01*
X97231300Y-105190000D02*
X103771300Y-105190000D01*
X104541300Y-103820000D02*
X103771300Y-103820000D01*
X96461300Y-103820000D02*
X97231300Y-103820000D01*
X97231300Y-102450000D02*
X97231300Y-105190000D01*
X103771300Y-102450000D02*
X97231300Y-102450000D01*
X103771300Y-105190000D02*
X103771300Y-102450000D01*
X129255000Y-76895000D02*
X129255000Y-66615000D01*
X111295000Y-69105000D02*
X111295000Y-70755000D01*
X111295000Y-74405000D02*
X129195000Y-74405000D01*
X129195000Y-69105000D02*
X111295000Y-69105000D01*
X111295000Y-72755000D02*
X111295000Y-74405000D01*
X129195000Y-74405000D02*
X129195000Y-69105000D01*
X111235000Y-66615000D02*
X111235000Y-76895000D01*
X111235000Y-76895000D02*
X129255000Y-76895000D01*
X129255000Y-66615000D02*
X111235000Y-66615000D01*
X111295000Y-72755000D02*
G75*
G03*
X111295000Y-70755000I0J1000000D01*
G01*
X173685000Y-106160000D02*
X167435000Y-106160000D01*
X173685000Y-101110000D02*
X167435000Y-101110000D01*
X173685000Y-106160000D02*
G75*
G03*
X173685000Y-101110000I0J2525000D01*
G01*
X167435000Y-101110000D02*
G75*
G03*
X167435000Y-106160000I0J-2525000D01*
G01*
X174689000Y-109270000D02*
X173431000Y-109270000D01*
X174689000Y-107430000D02*
X173431000Y-107430000D01*
X166441000Y-107450000D02*
X167699000Y-107450000D01*
X166441000Y-109290000D02*
X167699000Y-109290000D01*
X108630000Y-68021000D02*
X108630000Y-69279000D01*
X110470000Y-68021000D02*
X110470000Y-69279000D01*
X130810000Y-68021000D02*
X130810000Y-69279000D01*
X132650000Y-68021000D02*
X132650000Y-69279000D01*
X110030000Y-79731000D02*
X110030000Y-80989000D01*
X108190000Y-79731000D02*
X108190000Y-80989000D01*
X182180000Y-102380000D02*
X182180000Y-108920000D01*
X182180000Y-108920000D02*
X184920000Y-108920000D01*
X184920000Y-102380000D02*
X182180000Y-102380000D01*
X184920000Y-108920000D02*
X184920000Y-102380000D01*
X183550000Y-109690000D02*
X183550000Y-108920000D01*
X183550000Y-101610000D02*
X183550000Y-102380000D01*
X180230000Y-101560000D02*
X180230000Y-102330000D01*
X178860000Y-102330000D02*
X178860000Y-108870000D01*
X178860000Y-108870000D02*
X181600000Y-108870000D01*
X181600000Y-102330000D02*
X178860000Y-102330000D01*
X181600000Y-108870000D02*
X181600000Y-102330000D01*
X180230000Y-109640000D02*
X180230000Y-108870000D01*
X138610000Y-129740000D02*
X138610000Y-124440000D01*
X138670000Y-132230000D02*
X138670000Y-121950000D01*
X138670000Y-121950000D02*
X118110000Y-121950000D01*
X118170000Y-128090000D02*
X118170000Y-129740000D01*
X118110000Y-132230000D02*
X138670000Y-132230000D01*
X118170000Y-124440000D02*
X118170000Y-126090000D01*
X118110000Y-121950000D02*
X118110000Y-132230000D01*
X138610000Y-124440000D02*
X118170000Y-124440000D01*
X118170000Y-129740000D02*
X138610000Y-129740000D01*
X118170000Y-128090000D02*
G75*
G03*
X118170000Y-126090000I0J1000000D01*
G01*
X155440000Y-140440000D02*
X168640000Y-140440000D01*
X168640000Y-149280000D02*
X170650000Y-149280000D01*
X156500000Y-140178675D02*
X156250000Y-139745662D01*
X156250000Y-139745662D02*
X156750000Y-139745662D01*
X170650000Y-149280000D02*
X170650000Y-153380000D01*
X153430000Y-149280000D02*
X155440000Y-149280000D01*
X155440000Y-149280000D02*
X155440000Y-140440000D01*
X156750000Y-139745662D02*
X156500000Y-140178675D01*
X153430000Y-153380000D02*
X153430000Y-149280000D01*
X168640000Y-140440000D02*
X168640000Y-149280000D01*
X115540000Y-123411000D02*
X115540000Y-124669000D01*
X117380000Y-123411000D02*
X117380000Y-124669000D01*
X165830000Y-88531000D02*
X165830000Y-89789000D01*
X163990000Y-88531000D02*
X163990000Y-89789000D01*
X120770000Y-133500000D02*
X120770000Y-136300000D01*
X141260000Y-136300000D02*
X141260000Y-133500000D01*
X118060000Y-136300000D02*
X141260000Y-136300000D01*
X141260000Y-133500000D02*
X118060000Y-133500000D01*
X118060000Y-133500000D02*
X118060000Y-136300000D01*
X142860000Y-136340000D02*
X166060000Y-136340000D01*
X166060000Y-136340000D02*
X166060000Y-133540000D01*
X142860000Y-133540000D02*
X142860000Y-136340000D01*
X145570000Y-133540000D02*
X145570000Y-136340000D01*
X166060000Y-133540000D02*
X142860000Y-133540000D01*
X163900000Y-76561000D02*
X163900000Y-77819000D01*
X165740000Y-76561000D02*
X165740000Y-77819000D01*
X141940000Y-123321000D02*
X141940000Y-124579000D01*
X143780000Y-123321000D02*
X143780000Y-124579000D01*
D15*
X91680000Y-75300000D02*
X91680000Y-78100000D01*
X105880000Y-66500000D02*
X105880000Y-75428000D01*
X88180000Y-75300000D02*
X91680000Y-75300000D01*
X98780000Y-66500000D02*
X91680000Y-66500000D01*
X91680000Y-66500000D02*
X91680000Y-69300000D01*
X88180000Y-69300000D02*
X88180000Y-75300000D01*
X91680000Y-78100000D02*
X95785000Y-78100000D01*
X91680000Y-69300000D02*
X88180000Y-69300000D01*
D13*
X87604000Y-72249000D02*
G75*
G03*
X87604000Y-72249000I-103000J0D01*
G01*
D14*
X159270000Y-73330000D02*
X159270000Y-70730000D01*
X156670000Y-70730000D02*
X156670000Y-68130000D01*
X158000000Y-73330000D02*
X156670000Y-73330000D01*
X159270000Y-73330000D02*
X177110000Y-73330000D01*
X159270000Y-70730000D02*
X156670000Y-70730000D01*
X156670000Y-68130000D02*
X177110000Y-68130000D01*
X177110000Y-73330000D02*
X177110000Y-68130000D01*
X156670000Y-73330000D02*
X156670000Y-72000000D01*
X121490000Y-58797071D02*
X121490000Y-58400000D01*
X134190000Y-61337071D02*
X134190000Y-60882929D01*
X122380000Y-58400000D02*
X122380000Y-55740000D01*
X135970000Y-61337071D02*
X135970000Y-60882929D01*
X116190000Y-55740000D02*
X116190000Y-49740000D01*
X151210000Y-49740000D02*
X151970000Y-49740000D01*
X136730000Y-58797071D02*
X136730000Y-58400000D01*
X133430000Y-49740000D02*
X134190000Y-49740000D01*
X116410000Y-49740000D02*
X116410000Y-55740000D01*
X126570000Y-61337071D02*
X126570000Y-60882929D01*
X139270000Y-61337071D02*
X139270000Y-60882929D01*
X146890000Y-58797071D02*
X146890000Y-58400000D01*
X118190000Y-58797071D02*
X118190000Y-58400000D01*
X128350000Y-55740000D02*
X128350000Y-49740000D01*
X137620000Y-58400000D02*
X137620000Y-55740000D01*
X165620000Y-55740000D02*
X114700000Y-55740000D01*
X131650000Y-61337071D02*
X131650000Y-60882929D01*
X139270000Y-58797071D02*
X139270000Y-58400000D01*
X126570000Y-58797071D02*
X126570000Y-58400000D01*
X116410000Y-58797071D02*
X116410000Y-58400000D01*
X123270000Y-55740000D02*
X123270000Y-49740000D01*
X120730000Y-49740000D02*
X121490000Y-49740000D01*
X115650000Y-58797071D02*
X115650000Y-58400000D01*
X143590000Y-58797071D02*
X143590000Y-58400000D01*
X141810000Y-58797071D02*
X141810000Y-58400000D01*
X128350000Y-49740000D02*
X129110000Y-49740000D01*
X158830000Y-58797071D02*
X158830000Y-58400000D01*
X124030000Y-61337071D02*
X124030000Y-60882929D01*
X130890000Y-58797071D02*
X130890000Y-58400000D01*
X144350000Y-61337071D02*
X144350000Y-60882929D01*
X141810000Y-49740000D02*
X141810000Y-55740000D01*
X114760000Y-63650000D02*
X114760000Y-62380000D01*
X126570000Y-49740000D02*
X126570000Y-55740000D01*
X153750000Y-49740000D02*
X154510000Y-49740000D01*
X161370000Y-55740000D02*
X161370000Y-49740000D01*
X156290000Y-55740000D02*
X156290000Y-49740000D01*
X141050000Y-61337071D02*
X141050000Y-60882929D01*
X157050000Y-61337071D02*
X157050000Y-60882929D01*
X115650000Y-55740000D02*
X115650000Y-49740000D01*
X141050000Y-58797071D02*
X141050000Y-58400000D01*
X165620000Y-58400000D02*
X165620000Y-55740000D01*
X118950000Y-61337071D02*
X118950000Y-60882929D01*
X129110000Y-61337071D02*
X129110000Y-60882929D01*
X115650000Y-49740000D02*
X116410000Y-49740000D01*
X151210000Y-58797071D02*
X151210000Y-58400000D01*
X118190000Y-49740000D02*
X118950000Y-49740000D01*
X144350000Y-58797071D02*
X144350000Y-58400000D01*
X151970000Y-49740000D02*
X151970000Y-55740000D01*
X138510000Y-58797071D02*
X138510000Y-58400000D01*
X124030000Y-49740000D02*
X124030000Y-55740000D01*
X130890000Y-61337071D02*
X130890000Y-60882929D01*
X138510000Y-49740000D02*
X139270000Y-49740000D01*
X140160000Y-58400000D02*
X140160000Y-55740000D01*
X131650000Y-49740000D02*
X131650000Y-55740000D01*
X136730000Y-61337071D02*
X136730000Y-60882929D01*
X152860000Y-58400000D02*
X152860000Y-55740000D01*
X121490000Y-61337071D02*
X121490000Y-60882929D01*
X129110000Y-49740000D02*
X129110000Y-55740000D01*
X120730000Y-55740000D02*
X120730000Y-49740000D01*
X135970000Y-58797071D02*
X135970000Y-58400000D01*
X117300000Y-58400000D02*
X117300000Y-55740000D01*
X131650000Y-58797071D02*
X131650000Y-58400000D01*
X148670000Y-58797071D02*
X148670000Y-58400000D01*
X154510000Y-58797071D02*
X154510000Y-58400000D01*
X156290000Y-61337071D02*
X156290000Y-60882929D01*
X161370000Y-61337071D02*
X161370000Y-60882929D01*
X161370000Y-49740000D02*
X162130000Y-49740000D01*
X149430000Y-61337071D02*
X149430000Y-60882929D01*
X158830000Y-49740000D02*
X159590000Y-49740000D01*
X164670000Y-61337071D02*
X164670000Y-60882929D01*
X163910000Y-55740000D02*
X163910000Y-49740000D01*
X134190000Y-49740000D02*
X134190000Y-55740000D01*
X124030000Y-58797071D02*
X124030000Y-58400000D01*
X135970000Y-55740000D02*
X135970000Y-49740000D01*
X118950000Y-58797071D02*
X118950000Y-58400000D01*
X164670000Y-58797071D02*
X164670000Y-58400000D01*
X151210000Y-55740000D02*
X151210000Y-49740000D01*
X154510000Y-61337071D02*
X154510000Y-60882929D01*
X148670000Y-55740000D02*
X148670000Y-49740000D01*
X134190000Y-58797071D02*
X134190000Y-58400000D01*
X146890000Y-61337071D02*
X146890000Y-60882929D01*
X162130000Y-58797071D02*
X162130000Y-58400000D01*
X132540000Y-58400000D02*
X132540000Y-55740000D01*
X146890000Y-49740000D02*
X146890000Y-55740000D01*
X115650000Y-61270000D02*
X115650000Y-60882929D01*
X115710000Y-55740000D02*
X115710000Y-49740000D01*
X133430000Y-55740000D02*
X133430000Y-49740000D01*
X143590000Y-49740000D02*
X144350000Y-49740000D01*
X155400000Y-58400000D02*
X155400000Y-55740000D01*
X143590000Y-55740000D02*
X143590000Y-49740000D01*
X116410000Y-61270000D02*
X116410000Y-60882929D01*
X150320000Y-58400000D02*
X150320000Y-55740000D01*
X163910000Y-61337071D02*
X163910000Y-60882929D01*
X121490000Y-49740000D02*
X121490000Y-55740000D01*
X116070000Y-55740000D02*
X116070000Y-49740000D01*
X160480000Y-58400000D02*
X160480000Y-55740000D01*
X118950000Y-49740000D02*
X118950000Y-55740000D01*
X120730000Y-58797071D02*
X120730000Y-58400000D01*
X156290000Y-49740000D02*
X157050000Y-49740000D01*
X151970000Y-61337071D02*
X151970000Y-60882929D01*
X142700000Y-58400000D02*
X142700000Y-55740000D01*
X146130000Y-49740000D02*
X146890000Y-49740000D01*
X120730000Y-61337071D02*
X120730000Y-60882929D01*
X130000000Y-58400000D02*
X130000000Y-55740000D01*
X133430000Y-58797071D02*
X133430000Y-58400000D01*
X146130000Y-55740000D02*
X146130000Y-49740000D01*
X148670000Y-61337071D02*
X148670000Y-60882929D01*
X143590000Y-61337071D02*
X143590000Y-60882929D01*
X133430000Y-61337071D02*
X133430000Y-60882929D01*
X144350000Y-49740000D02*
X144350000Y-55740000D01*
X135970000Y-49740000D02*
X136730000Y-49740000D01*
X125810000Y-49740000D02*
X126570000Y-49740000D01*
X130890000Y-49740000D02*
X131650000Y-49740000D01*
X123270000Y-49740000D02*
X124030000Y-49740000D01*
X157050000Y-49740000D02*
X157050000Y-55740000D01*
X125810000Y-58797071D02*
X125810000Y-58400000D01*
X159590000Y-61337071D02*
X159590000Y-60882929D01*
X149430000Y-58797071D02*
X149430000Y-58400000D01*
X158830000Y-55740000D02*
X158830000Y-49740000D01*
X116030000Y-63650000D02*
X114760000Y-63650000D01*
X145240000Y-58400000D02*
X145240000Y-55740000D01*
X123270000Y-58797071D02*
X123270000Y-58400000D01*
X146130000Y-58797071D02*
X146130000Y-58400000D01*
X116310000Y-55740000D02*
X116310000Y-49740000D01*
X163910000Y-58797071D02*
X163910000Y-58400000D01*
X130890000Y-55740000D02*
X130890000Y-49740000D01*
X135080000Y-58400000D02*
X135080000Y-55740000D01*
X159590000Y-49740000D02*
X159590000Y-55740000D01*
X127460000Y-58400000D02*
X127460000Y-55740000D01*
X163910000Y-49740000D02*
X164670000Y-49740000D01*
X129110000Y-58797071D02*
X129110000Y-58400000D01*
X154510000Y-49740000D02*
X154510000Y-55740000D01*
X138510000Y-55740000D02*
X138510000Y-49740000D01*
X139270000Y-49740000D02*
X139270000Y-55740000D01*
X141050000Y-55740000D02*
X141050000Y-49740000D01*
X153750000Y-58797071D02*
X153750000Y-58400000D01*
X157050000Y-58797071D02*
X157050000Y-58400000D01*
X147780000Y-58400000D02*
X147780000Y-55740000D01*
X149430000Y-49740000D02*
X149430000Y-55740000D01*
X123270000Y-61337071D02*
X123270000Y-60882929D01*
X124920000Y-58400000D02*
X124920000Y-55740000D01*
X118190000Y-61337071D02*
X118190000Y-60882929D01*
X162130000Y-61337071D02*
X162130000Y-60882929D01*
X161370000Y-58797071D02*
X161370000Y-58400000D01*
X153750000Y-55740000D02*
X153750000Y-49740000D01*
X118190000Y-55740000D02*
X118190000Y-49740000D01*
X115830000Y-55740000D02*
X115830000Y-49740000D01*
X159590000Y-58797071D02*
X159590000Y-58400000D01*
X114700000Y-58400000D02*
X165620000Y-58400000D01*
X151210000Y-61337071D02*
X151210000Y-60882929D01*
X146130000Y-61337071D02*
X146130000Y-60882929D01*
X163020000Y-58400000D02*
X163020000Y-55740000D01*
X114700000Y-55740000D02*
X114700000Y-58400000D01*
X125810000Y-61337071D02*
X125810000Y-60882929D01*
X128350000Y-58797071D02*
X128350000Y-58400000D01*
X153750000Y-61337071D02*
X153750000Y-60882929D01*
X115950000Y-55740000D02*
X115950000Y-49740000D01*
X141050000Y-49740000D02*
X141810000Y-49740000D01*
X158830000Y-61337071D02*
X158830000Y-60882929D01*
X148670000Y-49740000D02*
X149430000Y-49740000D01*
X164670000Y-49740000D02*
X164670000Y-55740000D01*
X136730000Y-49740000D02*
X136730000Y-55740000D01*
X157940000Y-58400000D02*
X157940000Y-55740000D01*
X156290000Y-58797071D02*
X156290000Y-58400000D01*
X125810000Y-55740000D02*
X125810000Y-49740000D01*
X141810000Y-61337071D02*
X141810000Y-60882929D01*
X128350000Y-61337071D02*
X128350000Y-60882929D01*
X151970000Y-58797071D02*
X151970000Y-58400000D01*
X162130000Y-49740000D02*
X162130000Y-55740000D01*
X119840000Y-58400000D02*
X119840000Y-55740000D01*
X138510000Y-61337071D02*
X138510000Y-60882929D01*
X96460000Y-94790000D02*
X97230000Y-94790000D01*
X103770000Y-93420000D02*
X97230000Y-93420000D01*
X104540000Y-94790000D02*
X103770000Y-94790000D01*
X97230000Y-96160000D02*
X103770000Y-96160000D01*
X103770000Y-96160000D02*
X103770000Y-93420000D01*
X97230000Y-93420000D02*
X97230000Y-96160000D01*
X133290000Y-76810000D02*
X153850000Y-76810000D01*
X133350000Y-69020000D02*
X133350000Y-70670000D01*
X133350000Y-74320000D02*
X153790000Y-74320000D01*
X133290000Y-66530000D02*
X133290000Y-76810000D01*
X153790000Y-74320000D02*
X153790000Y-69020000D01*
X153790000Y-69020000D02*
X133350000Y-69020000D01*
X153850000Y-66530000D02*
X133290000Y-66530000D01*
X133350000Y-72670000D02*
X133350000Y-74320000D01*
X153850000Y-76810000D02*
X153850000Y-66530000D01*
X133350000Y-72670000D02*
G75*
G03*
X133350000Y-70670000I0J1000000D01*
G01*
X166670000Y-94840000D02*
X184570000Y-94840000D01*
X184570000Y-94840000D02*
X184570000Y-89540000D01*
X166610000Y-97330000D02*
X184630000Y-97330000D01*
X166670000Y-89540000D02*
X166670000Y-91190000D01*
X166610000Y-87050000D02*
X166610000Y-97330000D01*
X184630000Y-97330000D02*
X184630000Y-87050000D01*
X184570000Y-89540000D02*
X166670000Y-89540000D01*
X166670000Y-93190000D02*
X166670000Y-94840000D01*
X184630000Y-87050000D02*
X166610000Y-87050000D01*
X166670000Y-93190000D02*
G75*
G03*
X166670000Y-91190000I0J1000000D01*
G01*
X144480000Y-129810000D02*
X164920000Y-129810000D01*
X144420000Y-132300000D02*
X164980000Y-132300000D01*
X144420000Y-122020000D02*
X144420000Y-132300000D01*
X144480000Y-128160000D02*
X144480000Y-129810000D01*
X164980000Y-122020000D02*
X144420000Y-122020000D01*
X164920000Y-129810000D02*
X164920000Y-124510000D01*
X164980000Y-132300000D02*
X164980000Y-122020000D01*
X144480000Y-124510000D02*
X144480000Y-126160000D01*
X164920000Y-124510000D02*
X144480000Y-124510000D01*
X144480000Y-128160000D02*
G75*
G03*
X144480000Y-126160000I0J1000000D01*
G01*
X166610000Y-75050000D02*
X166610000Y-85330000D01*
X166610000Y-85330000D02*
X184630000Y-85330000D01*
X184630000Y-75050000D02*
X166610000Y-75050000D01*
X166670000Y-77540000D02*
X166670000Y-79190000D01*
X166670000Y-81190000D02*
X166670000Y-82840000D01*
X184570000Y-82840000D02*
X184570000Y-77540000D01*
X184630000Y-85330000D02*
X184630000Y-75050000D01*
X184570000Y-77540000D02*
X166670000Y-77540000D01*
X166670000Y-82840000D02*
X184570000Y-82840000D01*
X166670000Y-81190000D02*
G75*
G03*
X166670000Y-79190000I0J1000000D01*
G01*
X110840000Y-93710000D02*
X161760000Y-93710000D01*
X161820000Y-78300000D02*
X110780000Y-78300000D01*
X110840000Y-88250000D02*
X110840000Y-93710000D01*
X161820000Y-96200000D02*
X161820000Y-78300000D01*
X161760000Y-80790000D02*
X110840000Y-80790000D01*
X161760000Y-93710000D02*
X161760000Y-80790000D01*
X110840000Y-80790000D02*
X110840000Y-86250000D01*
X110780000Y-78300000D02*
X110780000Y-96200000D01*
X110780000Y-96200000D02*
X161820000Y-96200000D01*
X110840000Y-88250000D02*
G75*
G03*
X110840000Y-86250000I0J1000000D01*
G01*
X117070000Y-139885662D02*
X117570000Y-139885662D01*
X116260000Y-149420000D02*
X116260000Y-140580000D01*
X129460000Y-149420000D02*
X131470000Y-149420000D01*
X114250000Y-149420000D02*
X116260000Y-149420000D01*
X129460000Y-140580000D02*
X129460000Y-149420000D01*
X131470000Y-149420000D02*
X131470000Y-153520000D01*
X117570000Y-139885662D02*
X117320000Y-140318675D01*
X114250000Y-153520000D02*
X114250000Y-149420000D01*
X117320000Y-140318675D02*
X117070000Y-139885662D01*
X116260000Y-140580000D02*
X129460000Y-140580000D01*
X129020000Y-109821000D02*
X129020000Y-111079000D01*
X127180000Y-109821000D02*
X127180000Y-111079000D01*
X102621000Y-121080000D02*
X103879000Y-121080000D01*
X102621000Y-122920000D02*
X103879000Y-122920000D01*
D15*
X91500000Y-124700000D02*
X91500000Y-127500000D01*
X88000000Y-133500000D02*
X91500000Y-133500000D01*
X91500000Y-133500000D02*
X91500000Y-136300000D01*
X105700000Y-124700000D02*
X105700000Y-133628000D01*
X91500000Y-136300000D02*
X95605000Y-136300000D01*
X91500000Y-127500000D02*
X88000000Y-127500000D01*
X88000000Y-127500000D02*
X88000000Y-133500000D01*
X98600000Y-124700000D02*
X91500000Y-124700000D01*
D13*
X87424000Y-130449000D02*
G75*
G03*
X87424000Y-130449000I-103000J0D01*
G01*
D14*
X120350000Y-108570000D02*
X120350000Y-105830000D01*
X121120000Y-107200000D02*
X120350000Y-107200000D01*
X120350000Y-105830000D02*
X113810000Y-105830000D01*
X113810000Y-105830000D02*
X113810000Y-108570000D01*
X113040000Y-107200000D02*
X113810000Y-107200000D01*
X113810000Y-108570000D02*
X120350000Y-108570000D01*
X113750000Y-99030000D02*
X113750000Y-101770000D01*
X112980000Y-100400000D02*
X113750000Y-100400000D01*
X113750000Y-101770000D02*
X120290000Y-101770000D01*
X120290000Y-101770000D02*
X120290000Y-99030000D01*
X121060000Y-100400000D02*
X120290000Y-100400000D01*
X120290000Y-99030000D02*
X113750000Y-99030000D01*
X113850000Y-102330000D02*
X113850000Y-105070000D01*
X113850000Y-105070000D02*
X120390000Y-105070000D01*
X113080000Y-103700000D02*
X113850000Y-103700000D01*
X120390000Y-105070000D02*
X120390000Y-102330000D01*
X120390000Y-102330000D02*
X113850000Y-102330000D01*
X121160000Y-103700000D02*
X120390000Y-103700000D01*
X109100000Y-121540000D02*
X109100000Y-122310000D01*
X110470000Y-122310000D02*
X107730000Y-122310000D01*
X110470000Y-128850000D02*
X110470000Y-122310000D01*
X107730000Y-122310000D02*
X107730000Y-128850000D01*
X107730000Y-128850000D02*
X110470000Y-128850000D01*
X109100000Y-129620000D02*
X109100000Y-128850000D01*
X111030000Y-128850000D02*
X113770000Y-128850000D01*
X112400000Y-121540000D02*
X112400000Y-122310000D01*
X113770000Y-122310000D02*
X111030000Y-122310000D01*
X113770000Y-128850000D02*
X113770000Y-122310000D01*
X111030000Y-122310000D02*
X111030000Y-128850000D01*
X112400000Y-129620000D02*
X112400000Y-128850000D01*
X95290000Y-111790000D02*
X95290000Y-113120000D01*
X95290000Y-110520000D02*
X95290000Y-107920000D01*
X92630000Y-110520000D02*
X92630000Y-107920000D01*
X95290000Y-110520000D02*
X92630000Y-110520000D01*
X95290000Y-113120000D02*
X93960000Y-113120000D01*
X95290000Y-107920000D02*
X92630000Y-107920000D01*
X99240000Y-109040000D02*
X100010000Y-109040000D01*
X100010000Y-107670000D02*
X100010000Y-110410000D01*
X106550000Y-107670000D02*
X100010000Y-107670000D01*
X107320000Y-109040000D02*
X106550000Y-109040000D01*
X100010000Y-110410000D02*
X106550000Y-110410000D01*
X106550000Y-110410000D02*
X106550000Y-107670000D01*
X106550000Y-110670000D02*
X100010000Y-110670000D01*
X100010000Y-110670000D02*
X100010000Y-113410000D01*
X100010000Y-113410000D02*
X106550000Y-113410000D01*
X99240000Y-112040000D02*
X100010000Y-112040000D01*
X107320000Y-112040000D02*
X106550000Y-112040000D01*
X106550000Y-113410000D02*
X106550000Y-110670000D01*
X99540000Y-81329000D02*
X100914000Y-81329000D01*
X96895000Y-80209000D02*
X97460000Y-80209000D01*
X99540000Y-80489000D02*
X100401000Y-80489000D01*
X96378000Y-80769000D02*
X97460000Y-80769000D01*
X96847000Y-80249000D02*
X97460000Y-80249000D01*
X99540000Y-80729000D02*
X100595000Y-80729000D01*
X99540000Y-80529000D02*
X100437000Y-80529000D01*
X99540000Y-81650000D02*
X101011000Y-81650000D01*
X99540000Y-80929000D02*
X100724000Y-80929000D01*
X96300000Y-80889000D02*
X97460000Y-80889000D01*
X99540000Y-80009000D02*
X99819000Y-80009000D01*
X99540000Y-81249000D02*
X100882000Y-81249000D01*
X99540000Y-81610000D02*
X101001000Y-81610000D01*
X97823000Y-79729000D02*
X99177000Y-79729000D01*
X99540000Y-81169000D02*
X100848000Y-81169000D01*
X96020000Y-81529000D02*
X97460000Y-81529000D01*
X95999000Y-81610000D02*
X97460000Y-81610000D01*
X96496000Y-80609000D02*
X97460000Y-80609000D01*
X96351000Y-80809000D02*
X97460000Y-80809000D01*
X99540000Y-80449000D02*
X100364000Y-80449000D01*
X99540000Y-81049000D02*
X100790000Y-81049000D01*
X97117000Y-80049000D02*
X97460000Y-80049000D01*
X96102000Y-81289000D02*
X97460000Y-81289000D01*
X99540000Y-80249000D02*
X100153000Y-80249000D01*
X95920000Y-82250000D02*
X101080000Y-82250000D01*
X95957000Y-81810000D02*
X97460000Y-81810000D01*
X96009000Y-81570000D02*
X97460000Y-81570000D01*
X95964000Y-81770000D02*
X97460000Y-81770000D01*
X99540000Y-80889000D02*
X100700000Y-80889000D01*
X96801000Y-80289000D02*
X97460000Y-80289000D01*
X95939000Y-81930000D02*
X97460000Y-81930000D01*
X96325000Y-80849000D02*
X97460000Y-80849000D01*
X96232000Y-81009000D02*
X97460000Y-81009000D01*
X97982000Y-79689000D02*
X99018000Y-79689000D01*
X96465000Y-80649000D02*
X97460000Y-80649000D01*
X99540000Y-80809000D02*
X100649000Y-80809000D01*
X99540000Y-80409000D02*
X100326000Y-80409000D01*
X99540000Y-81529000D02*
X100980000Y-81529000D01*
X99540000Y-80129000D02*
X100000000Y-80129000D01*
X96599000Y-80489000D02*
X97460000Y-80489000D01*
X96674000Y-80409000D02*
X97460000Y-80409000D01*
X96190000Y-81089000D02*
X97460000Y-81089000D01*
X96563000Y-80529000D02*
X97460000Y-80529000D01*
X95920000Y-82210000D02*
X101080000Y-82210000D01*
X99540000Y-80209000D02*
X100105000Y-80209000D01*
X99540000Y-80609000D02*
X100504000Y-80609000D01*
X96086000Y-81329000D02*
X97460000Y-81329000D01*
X96135000Y-81209000D02*
X97460000Y-81209000D01*
X95980000Y-81690000D02*
X97460000Y-81690000D01*
X95922000Y-82130000D02*
X101078000Y-82130000D01*
X99540000Y-81770000D02*
X101036000Y-81770000D01*
X97402000Y-79889000D02*
X99598000Y-79889000D01*
X96715000Y-80369000D02*
X97460000Y-80369000D01*
X95927000Y-82050000D02*
X101073000Y-82050000D01*
X99540000Y-80089000D02*
X99943000Y-80089000D01*
X95950000Y-81850000D02*
X97460000Y-81850000D01*
X99540000Y-81690000D02*
X101020000Y-81690000D01*
X99540000Y-81730000D02*
X101028000Y-81730000D01*
X99540000Y-81089000D02*
X100810000Y-81089000D01*
X97322000Y-79929000D02*
X99678000Y-79929000D01*
X99540000Y-81930000D02*
X101061000Y-81930000D01*
X96072000Y-81369000D02*
X97460000Y-81369000D01*
X96405000Y-80729000D02*
X97460000Y-80729000D01*
X99540000Y-80769000D02*
X100622000Y-80769000D01*
X99540000Y-81209000D02*
X100865000Y-81209000D01*
X99540000Y-80969000D02*
X100747000Y-80969000D01*
X99540000Y-82010000D02*
X101069000Y-82010000D01*
X96636000Y-80449000D02*
X97460000Y-80449000D01*
X97000000Y-80129000D02*
X97460000Y-80129000D01*
X99540000Y-81009000D02*
X100768000Y-81009000D01*
X99540000Y-81489000D02*
X100968000Y-81489000D01*
X96276000Y-80929000D02*
X97460000Y-80929000D01*
X99540000Y-81409000D02*
X100942000Y-81409000D01*
X99540000Y-81289000D02*
X100898000Y-81289000D01*
X96775000Y-84804775D02*
X97275000Y-84804775D01*
X99540000Y-80689000D02*
X100565000Y-80689000D01*
X99540000Y-81890000D02*
X101056000Y-81890000D01*
X98216000Y-79649000D02*
X98784000Y-79649000D01*
X99540000Y-80049000D02*
X99883000Y-80049000D01*
X95931000Y-82010000D02*
X97460000Y-82010000D01*
X97181000Y-80009000D02*
X97460000Y-80009000D01*
X95924000Y-82090000D02*
X101076000Y-82090000D01*
X99540000Y-81570000D02*
X100991000Y-81570000D01*
X95921000Y-82170000D02*
X101079000Y-82170000D01*
X96253000Y-80969000D02*
X97460000Y-80969000D01*
X95989000Y-81650000D02*
X97460000Y-81650000D01*
X99540000Y-81850000D02*
X101050000Y-81850000D01*
X96118000Y-81249000D02*
X97460000Y-81249000D01*
X99540000Y-81129000D02*
X100829000Y-81129000D01*
X99540000Y-80169000D02*
X100054000Y-80169000D01*
X95935000Y-81970000D02*
X97460000Y-81970000D01*
X96757000Y-80329000D02*
X97460000Y-80329000D01*
X99540000Y-81810000D02*
X101043000Y-81810000D01*
X96210000Y-81049000D02*
X97460000Y-81049000D01*
X97249000Y-79969000D02*
X97460000Y-79969000D01*
X99540000Y-80569000D02*
X100471000Y-80569000D01*
X95944000Y-81890000D02*
X97460000Y-81890000D01*
X99540000Y-81970000D02*
X101065000Y-81970000D01*
X97489000Y-79849000D02*
X99511000Y-79849000D01*
X96058000Y-81409000D02*
X97460000Y-81409000D01*
X99540000Y-81449000D02*
X100955000Y-81449000D01*
X96946000Y-80169000D02*
X97460000Y-80169000D01*
X99540000Y-80849000D02*
X100675000Y-80849000D01*
X97585000Y-79809000D02*
X99415000Y-79809000D01*
X96171000Y-81129000D02*
X97460000Y-81129000D01*
X96045000Y-81449000D02*
X97460000Y-81449000D01*
X96529000Y-80569000D02*
X97460000Y-80569000D01*
X99540000Y-80369000D02*
X100285000Y-80369000D01*
X96152000Y-81169000D02*
X97460000Y-81169000D01*
X99540000Y-80289000D02*
X100199000Y-80289000D01*
X96435000Y-80689000D02*
X97460000Y-80689000D01*
X99540000Y-81369000D02*
X100928000Y-81369000D01*
X99540000Y-80329000D02*
X100243000Y-80329000D01*
X97695000Y-79769000D02*
X99305000Y-79769000D01*
X99540000Y-80649000D02*
X100535000Y-80649000D01*
X97025000Y-85054775D02*
X97025000Y-84554775D01*
X99540000Y-79969000D02*
X99751000Y-79969000D01*
X96032000Y-81489000D02*
X97460000Y-81489000D01*
X97057000Y-80089000D02*
X97460000Y-80089000D01*
X95972000Y-81730000D02*
X97460000Y-81730000D01*
X101120000Y-82250000D02*
G75*
G03*
X101120000Y-82250000I-2620000J0D01*
G01*
X119270000Y-112000000D02*
X118620000Y-112000000D01*
X115220000Y-110880000D02*
X115220000Y-113120000D01*
X118620000Y-110880000D02*
X114380000Y-110880000D01*
X114380000Y-113120000D02*
X118620000Y-113120000D01*
X118620000Y-113120000D02*
X118620000Y-110880000D01*
X114980000Y-110880000D02*
X114980000Y-113120000D01*
X113730000Y-112000000D02*
X114380000Y-112000000D01*
X115100000Y-110880000D02*
X115100000Y-113120000D01*
X114380000Y-110880000D02*
X114380000Y-113120000D01*
X107285900Y-62040000D02*
X107285900Y-63268000D01*
X108525900Y-60195000D02*
X108525900Y-61805000D01*
X108005900Y-62040000D02*
X108005900Y-62699000D01*
X106724900Y-58509000D02*
X106724900Y-59960000D01*
X107805900Y-62040000D02*
X107805900Y-62901000D01*
X108245900Y-59617000D02*
X108245900Y-59960000D01*
X107605900Y-58935000D02*
X107605900Y-59960000D01*
X108285900Y-62040000D02*
X108285900Y-62319000D01*
X106524900Y-62040000D02*
X106524900Y-63536000D01*
X106684900Y-58499000D02*
X106684900Y-59960000D01*
X107845900Y-59136000D02*
X107845900Y-59960000D01*
X107645900Y-62040000D02*
X107645900Y-63035000D01*
X106564900Y-58472000D02*
X106564900Y-59960000D01*
X107805900Y-59099000D02*
X107805900Y-59960000D01*
X106925900Y-62040000D02*
X106925900Y-63428000D01*
X106805900Y-62040000D02*
X106805900Y-63468000D01*
X108285900Y-59681000D02*
X108285900Y-59960000D01*
X106564900Y-62040000D02*
X106564900Y-63528000D01*
X107125900Y-62040000D02*
X107125900Y-63348000D01*
X108125900Y-59446000D02*
X108125900Y-59960000D01*
X107165900Y-62040000D02*
X107165900Y-63329000D01*
X108085900Y-62040000D02*
X108085900Y-62605000D01*
X107205900Y-58690000D02*
X107205900Y-59960000D01*
X107605900Y-62040000D02*
X107605900Y-63065000D01*
X107485900Y-58851000D02*
X107485900Y-59960000D01*
X108565900Y-60323000D02*
X108565900Y-61677000D01*
X107405900Y-58800000D02*
X107405900Y-59960000D01*
X107325900Y-58753000D02*
X107325900Y-59960000D01*
X108325900Y-62040000D02*
X108325900Y-62251000D01*
X106444900Y-62040000D02*
X106444900Y-63550000D01*
X107285900Y-58732000D02*
X107285900Y-59960000D01*
X106324900Y-62040000D02*
X106324900Y-63565000D01*
X107365900Y-62040000D02*
X107365900Y-63224000D01*
X107365900Y-58776000D02*
X107365900Y-59960000D01*
X107165900Y-58671000D02*
X107165900Y-59960000D01*
X106284900Y-58431000D02*
X106284900Y-59960000D01*
X107045900Y-62040000D02*
X107045900Y-63382000D01*
X107325900Y-62040000D02*
X107325900Y-63247000D01*
X107725900Y-62040000D02*
X107725900Y-62971000D01*
X108205900Y-59557000D02*
X108205900Y-59960000D01*
X106364900Y-62040000D02*
X106364900Y-63561000D01*
X106484900Y-62040000D02*
X106484900Y-63543000D01*
X106364900Y-58439000D02*
X106364900Y-59960000D01*
X106845900Y-62040000D02*
X106845900Y-63455000D01*
X106724900Y-62040000D02*
X106724900Y-63491000D01*
X107765900Y-62040000D02*
X107765900Y-62937000D01*
X108325900Y-59749000D02*
X108325900Y-59960000D01*
X106885900Y-58558000D02*
X106885900Y-59960000D01*
X108365900Y-59822000D02*
X108365900Y-62178000D01*
X107245900Y-62040000D02*
X107245900Y-63290000D01*
X108045900Y-62040000D02*
X108045900Y-62653000D01*
X107485900Y-62040000D02*
X107485900Y-63149000D01*
X107445900Y-62040000D02*
X107445900Y-63175000D01*
X107405900Y-62040000D02*
X107405900Y-63200000D01*
X106084900Y-58420000D02*
X106084900Y-63580000D01*
X107525900Y-58878000D02*
X107525900Y-59960000D01*
X106765900Y-62040000D02*
X106765900Y-63480000D01*
X106925900Y-58572000D02*
X106925900Y-59960000D01*
X106484900Y-58457000D02*
X106484900Y-59960000D01*
X107085900Y-62040000D02*
X107085900Y-63365000D01*
X107885900Y-62040000D02*
X107885900Y-62826000D01*
X106965900Y-62040000D02*
X106965900Y-63414000D01*
X107205900Y-62040000D02*
X107205900Y-63310000D01*
X106644900Y-58489000D02*
X106644900Y-59960000D01*
X108605900Y-60482000D02*
X108605900Y-61518000D01*
X108005900Y-59301000D02*
X108005900Y-59960000D01*
X106284900Y-62040000D02*
X106284900Y-63569000D01*
X107565900Y-58905000D02*
X107565900Y-59960000D01*
X107885900Y-59174000D02*
X107885900Y-59960000D01*
X107685900Y-58996000D02*
X107685900Y-59960000D01*
X106644900Y-62040000D02*
X106644900Y-63511000D01*
X106124900Y-58421000D02*
X106124900Y-63579000D01*
X106404900Y-58444000D02*
X106404900Y-59960000D01*
X106324900Y-58435000D02*
X106324900Y-59960000D01*
X108485900Y-60085000D02*
X108485900Y-61915000D01*
X107645900Y-58965000D02*
X107645900Y-59960000D01*
X108205900Y-62040000D02*
X108205900Y-62443000D01*
X106404900Y-62040000D02*
X106404900Y-63556000D01*
X106524900Y-58464000D02*
X106524900Y-59960000D01*
X107445900Y-58825000D02*
X107445900Y-59960000D01*
X106044900Y-58420000D02*
X106044900Y-63580000D01*
X107965900Y-62040000D02*
X107965900Y-62743000D01*
X106164900Y-58422000D02*
X106164900Y-63578000D01*
X106765900Y-58520000D02*
X106765900Y-59960000D01*
X106885900Y-62040000D02*
X106885900Y-63442000D01*
X106244900Y-58427000D02*
X106244900Y-63573000D01*
X107965900Y-59257000D02*
X107965900Y-59960000D01*
X106684900Y-62040000D02*
X106684900Y-63501000D01*
X107925900Y-59215000D02*
X107925900Y-59960000D01*
X106604900Y-62040000D02*
X106604900Y-63520000D01*
X108405900Y-59902000D02*
X108405900Y-62098000D01*
X107085900Y-58635000D02*
X107085900Y-59960000D01*
X108445900Y-59989000D02*
X108445900Y-62011000D01*
X106444900Y-58450000D02*
X106444900Y-59960000D01*
X107125900Y-58652000D02*
X107125900Y-59960000D01*
X107245900Y-58710000D02*
X107245900Y-59960000D01*
X107845900Y-62040000D02*
X107845900Y-62864000D01*
X107005900Y-62040000D02*
X107005900Y-63398000D01*
X106805900Y-58532000D02*
X106805900Y-59960000D01*
X106204900Y-58424000D02*
X106204900Y-63576000D01*
X106965900Y-58586000D02*
X106965900Y-59960000D01*
X107765900Y-59063000D02*
X107765900Y-59960000D01*
X108245900Y-62040000D02*
X108245900Y-62383000D01*
X108165900Y-59500000D02*
X108165900Y-59960000D01*
X108165900Y-62040000D02*
X108165900Y-62500000D01*
X107725900Y-59029000D02*
X107725900Y-59960000D01*
X107045900Y-58618000D02*
X107045900Y-59960000D01*
X106604900Y-58480000D02*
X106604900Y-59960000D01*
X106845900Y-58545000D02*
X106845900Y-59960000D01*
X107685900Y-62040000D02*
X107685900Y-63004000D01*
X107005900Y-58602000D02*
X107005900Y-59960000D01*
X108085900Y-59395000D02*
X108085900Y-59960000D01*
X108045900Y-59347000D02*
X108045900Y-59960000D01*
X107525900Y-62040000D02*
X107525900Y-63122000D01*
X108645900Y-60716000D02*
X108645900Y-61284000D01*
X107925900Y-62040000D02*
X107925900Y-62785000D01*
X107565900Y-62040000D02*
X107565900Y-63095000D01*
X103490125Y-59275000D02*
X103490125Y-59775000D01*
X108125900Y-62040000D02*
X108125900Y-62554000D01*
X103240125Y-59525000D02*
X103740125Y-59525000D01*
X108664900Y-61000000D02*
G75*
G03*
X108664900Y-61000000I-2620000J0D01*
G01*
X140710000Y-118740000D02*
X140710000Y-108240000D01*
X140650000Y-111240000D02*
X130370000Y-111240000D01*
X130370000Y-114490000D02*
X130370000Y-115740000D01*
X130310000Y-118740000D02*
X140710000Y-118740000D01*
X130310000Y-108240000D02*
X130310000Y-118740000D01*
X140650000Y-115740000D02*
X140650000Y-111240000D01*
X130370000Y-111240000D02*
X130370000Y-112490000D01*
X130370000Y-115740000D02*
X140650000Y-115740000D01*
X140710000Y-108240000D02*
X130310000Y-108240000D01*
X130370000Y-114490000D02*
G75*
G03*
X130370000Y-112490000I0J1000000D01*
G01*
X98985900Y-63540000D02*
X98985900Y-64649000D01*
X99785900Y-63540000D02*
X99785900Y-63819000D01*
X99625900Y-60946000D02*
X99625900Y-61460000D01*
X99945900Y-61489000D02*
X99945900Y-63511000D01*
X97624900Y-59921000D02*
X97624900Y-65079000D01*
X99665900Y-63540000D02*
X99665900Y-64000000D01*
X94740125Y-61025000D02*
X95240125Y-61025000D01*
X98104900Y-59980000D02*
X98104900Y-61460000D01*
X99425900Y-60715000D02*
X99425900Y-61460000D01*
X98144900Y-63540000D02*
X98144900Y-65011000D01*
X98184900Y-63540000D02*
X98184900Y-65001000D01*
X100065900Y-61823000D02*
X100065900Y-63177000D01*
X99665900Y-61000000D02*
X99665900Y-61460000D01*
X99145900Y-60465000D02*
X99145900Y-61460000D01*
X99105900Y-60435000D02*
X99105900Y-61460000D01*
X97864900Y-63540000D02*
X97864900Y-65061000D01*
X99905900Y-61402000D02*
X99905900Y-63598000D01*
X98705900Y-63540000D02*
X98705900Y-64810000D01*
X98305900Y-63540000D02*
X98305900Y-64968000D01*
X97744900Y-59927000D02*
X97744900Y-65073000D01*
X99065900Y-63540000D02*
X99065900Y-64595000D01*
X98224900Y-60009000D02*
X98224900Y-61460000D01*
X100105900Y-61982000D02*
X100105900Y-63018000D01*
X98345900Y-63540000D02*
X98345900Y-64955000D01*
X98585900Y-63540000D02*
X98585900Y-64865000D01*
X99265900Y-60563000D02*
X99265900Y-61460000D01*
X98505900Y-60102000D02*
X98505900Y-61460000D01*
X99185900Y-60496000D02*
X99185900Y-61460000D01*
X99745900Y-61117000D02*
X99745900Y-61460000D01*
X97824900Y-59935000D02*
X97824900Y-61460000D01*
X99425900Y-63540000D02*
X99425900Y-64285000D01*
X98905900Y-60300000D02*
X98905900Y-61460000D01*
X97784900Y-59931000D02*
X97784900Y-61460000D01*
X98305900Y-60032000D02*
X98305900Y-61460000D01*
X98625900Y-63540000D02*
X98625900Y-64848000D01*
X98425900Y-63540000D02*
X98425900Y-64928000D01*
X99265900Y-63540000D02*
X99265900Y-64437000D01*
X99305900Y-63540000D02*
X99305900Y-64401000D01*
X97544900Y-59920000D02*
X97544900Y-65080000D01*
X98985900Y-60351000D02*
X98985900Y-61460000D01*
X98024900Y-59964000D02*
X98024900Y-61460000D01*
X98745900Y-60210000D02*
X98745900Y-61460000D01*
X99705900Y-63540000D02*
X99705900Y-63943000D01*
X97984900Y-59957000D02*
X97984900Y-61460000D01*
X99625900Y-63540000D02*
X99625900Y-64054000D01*
X99345900Y-60636000D02*
X99345900Y-61460000D01*
X98545900Y-63540000D02*
X98545900Y-64882000D01*
X98104900Y-63540000D02*
X98104900Y-65020000D01*
X98385900Y-60058000D02*
X98385900Y-61460000D01*
X99305900Y-60599000D02*
X99305900Y-61460000D01*
X97584900Y-59920000D02*
X97584900Y-65080000D01*
X98545900Y-60118000D02*
X98545900Y-61460000D01*
X99065900Y-60405000D02*
X99065900Y-61460000D01*
X98064900Y-59972000D02*
X98064900Y-61460000D01*
X97864900Y-59939000D02*
X97864900Y-61460000D01*
X98505900Y-63540000D02*
X98505900Y-64898000D01*
X99785900Y-61181000D02*
X99785900Y-61460000D01*
X99465900Y-63540000D02*
X99465900Y-64243000D01*
X98705900Y-60190000D02*
X98705900Y-61460000D01*
X99465900Y-60757000D02*
X99465900Y-61460000D01*
X98665900Y-60171000D02*
X98665900Y-61460000D01*
X97984900Y-63540000D02*
X97984900Y-65043000D01*
X97904900Y-63540000D02*
X97904900Y-65056000D01*
X98144900Y-59989000D02*
X98144900Y-61460000D01*
X99185900Y-63540000D02*
X99185900Y-64504000D01*
X97784900Y-63540000D02*
X97784900Y-65069000D01*
X99105900Y-63540000D02*
X99105900Y-64565000D01*
X98345900Y-60045000D02*
X98345900Y-61460000D01*
X98745900Y-63540000D02*
X98745900Y-64790000D01*
X99705900Y-61057000D02*
X99705900Y-61460000D01*
X98585900Y-60135000D02*
X98585900Y-61460000D01*
X97704900Y-59924000D02*
X97704900Y-65076000D01*
X98184900Y-59999000D02*
X98184900Y-61460000D01*
X99865900Y-61322000D02*
X99865900Y-63678000D01*
X98785900Y-60232000D02*
X98785900Y-61460000D01*
X99585900Y-60895000D02*
X99585900Y-61460000D01*
X98665900Y-63540000D02*
X98665900Y-64829000D01*
X98425900Y-60072000D02*
X98425900Y-61460000D01*
X98865900Y-63540000D02*
X98865900Y-64724000D01*
X99225900Y-60529000D02*
X99225900Y-61460000D01*
X99025900Y-60378000D02*
X99025900Y-61460000D01*
X99745900Y-63540000D02*
X99745900Y-63883000D01*
X99505900Y-63540000D02*
X99505900Y-64199000D01*
X97824900Y-63540000D02*
X97824900Y-65065000D01*
X94990125Y-60775000D02*
X94990125Y-61275000D01*
X97904900Y-59944000D02*
X97904900Y-61460000D01*
X98905900Y-63540000D02*
X98905900Y-64700000D01*
X99385900Y-63540000D02*
X99385900Y-64326000D01*
X98265900Y-63540000D02*
X98265900Y-64980000D01*
X98465900Y-63540000D02*
X98465900Y-64914000D01*
X98625900Y-60152000D02*
X98625900Y-61460000D01*
X99825900Y-61249000D02*
X99825900Y-61460000D01*
X98385900Y-63540000D02*
X98385900Y-64942000D01*
X99585900Y-63540000D02*
X99585900Y-64105000D01*
X99345900Y-63540000D02*
X99345900Y-64364000D01*
X99545900Y-60847000D02*
X99545900Y-61460000D01*
X100025900Y-61695000D02*
X100025900Y-63305000D01*
X98465900Y-60086000D02*
X98465900Y-61460000D01*
X99985900Y-61585000D02*
X99985900Y-63415000D01*
X98945900Y-60325000D02*
X98945900Y-61460000D01*
X99505900Y-60801000D02*
X99505900Y-61460000D01*
X98825900Y-63540000D02*
X98825900Y-64747000D01*
X98945900Y-63540000D02*
X98945900Y-64675000D01*
X99385900Y-60674000D02*
X99385900Y-61460000D01*
X98265900Y-60020000D02*
X98265900Y-61460000D01*
X98865900Y-60276000D02*
X98865900Y-61460000D01*
X99825900Y-63540000D02*
X99825900Y-63751000D01*
X97944900Y-63540000D02*
X97944900Y-65050000D01*
X97944900Y-59950000D02*
X97944900Y-61460000D01*
X99145900Y-63540000D02*
X99145900Y-64535000D01*
X100145900Y-62216000D02*
X100145900Y-62784000D01*
X98224900Y-63540000D02*
X98224900Y-64991000D01*
X98825900Y-60253000D02*
X98825900Y-61460000D01*
X99025900Y-63540000D02*
X99025900Y-64622000D01*
X99225900Y-63540000D02*
X99225900Y-64471000D01*
X98024900Y-63540000D02*
X98024900Y-65036000D01*
X97664900Y-59922000D02*
X97664900Y-65078000D01*
X98064900Y-63540000D02*
X98064900Y-65028000D01*
X99545900Y-63540000D02*
X99545900Y-64153000D01*
X98785900Y-63540000D02*
X98785900Y-64768000D01*
X100164900Y-62500000D02*
G75*
G03*
X100164900Y-62500000I-2620000J0D01*
G01*
X118620000Y-114880000D02*
X114380000Y-114880000D01*
X114380000Y-114880000D02*
X114380000Y-117120000D01*
X113730000Y-116000000D02*
X114380000Y-116000000D01*
X118620000Y-117120000D02*
X118620000Y-114880000D01*
X115220000Y-114880000D02*
X115220000Y-117120000D01*
X115100000Y-114880000D02*
X115100000Y-117120000D01*
X119270000Y-116000000D02*
X118620000Y-116000000D01*
X114380000Y-117120000D02*
X118620000Y-117120000D01*
X114980000Y-114880000D02*
X114980000Y-117120000D01*
D16*
X93380000Y-72300000D03*
D17*
X101880000Y-66900000D03*
X100180000Y-69400000D03*
D16*
X104680000Y-76600000D03*
D17*
X96880000Y-76800000D03*
D16*
X93200000Y-130500000D03*
D17*
X101700000Y-125100000D03*
X100000000Y-127600000D03*
D16*
X104500000Y-134800000D03*
D17*
X96700000Y-135000000D03*
%LPC*%
D18*
X95400000Y-88600000D03*
D19*
X105560000Y-88600000D03*
D18*
X95400000Y-91680000D03*
D19*
X105560000Y-91680000D03*
D18*
X105581000Y-97820000D03*
D19*
X95421000Y-97820000D03*
D18*
X105581000Y-100820000D03*
D19*
X95421000Y-100820000D03*
D18*
X95421300Y-103820000D03*
D19*
X105581300Y-103820000D03*
G36*
G01*
X113425000Y-76565000D02*
X111825000Y-76565000D01*
G75*
G02*
X111625000Y-76365000I0J200000D01*
G01*
X111625000Y-74765000D01*
G75*
G02*
X111825000Y-74565000I200000J0D01*
G01*
X113425000Y-74565000D01*
G75*
G02*
X113625000Y-74765000I0J-200000D01*
G01*
X113625000Y-76365000D01*
G75*
G02*
X113425000Y-76565000I-200000J0D01*
G01*
G37*
X115165000Y-75565000D03*
X117705000Y-75565000D03*
X120245000Y-75565000D03*
X122785000Y-75565000D03*
X125325000Y-75565000D03*
X127865000Y-75565000D03*
X127865000Y-67945000D03*
X125325000Y-67945000D03*
X122785000Y-67945000D03*
X120245000Y-67945000D03*
X117705000Y-67945000D03*
X115165000Y-67945000D03*
X112625000Y-67945000D03*
D20*
X95500000Y-119500000D03*
X184500000Y-119500000D03*
D21*
X173000000Y-103635000D03*
X168120000Y-103635000D03*
D18*
X175310000Y-108350000D03*
X172810000Y-108350000D03*
X165820000Y-108370000D03*
X168320000Y-108370000D03*
X109550000Y-67400000D03*
X109550000Y-69900000D03*
X131730000Y-67400000D03*
X131730000Y-69900000D03*
X109110000Y-79110000D03*
X109110000Y-81610000D03*
X183550000Y-110730000D03*
D19*
X183550000Y-100570000D03*
D18*
X180230000Y-110680000D03*
D19*
X180230000Y-100520000D03*
G36*
G01*
X120300000Y-131900000D02*
X118700000Y-131900000D01*
G75*
G02*
X118500000Y-131700000I0J200000D01*
G01*
X118500000Y-130100000D01*
G75*
G02*
X118700000Y-129900000I200000J0D01*
G01*
X120300000Y-129900000D01*
G75*
G02*
X120500000Y-130100000I0J-200000D01*
G01*
X120500000Y-131700000D01*
G75*
G02*
X120300000Y-131900000I-200000J0D01*
G01*
G37*
X122040000Y-130900000D03*
X124580000Y-130900000D03*
X127120000Y-130900000D03*
X129660000Y-130900000D03*
X132200000Y-130900000D03*
X134740000Y-130900000D03*
X137280000Y-130900000D03*
X137280000Y-123280000D03*
X134740000Y-123280000D03*
X132200000Y-123280000D03*
X129660000Y-123280000D03*
X127120000Y-123280000D03*
X124580000Y-123280000D03*
X122040000Y-123280000D03*
X119500000Y-123280000D03*
D22*
X149550000Y-142910000D03*
X174580000Y-142910000D03*
G36*
G01*
X155500000Y-142300000D02*
X155500000Y-140700000D01*
G75*
G02*
X155700000Y-140500000I200000J0D01*
G01*
X157300000Y-140500000D01*
G75*
G02*
X157500000Y-140700000I0J-200000D01*
G01*
X157500000Y-142300000D01*
G75*
G02*
X157300000Y-142500000I-200000J0D01*
G01*
X155700000Y-142500000D01*
G75*
G02*
X155500000Y-142300000I0J200000D01*
G01*
G37*
D18*
X159270000Y-141500000D03*
X162040000Y-141500000D03*
X164810000Y-141500000D03*
X167580000Y-141500000D03*
X157885000Y-144040000D03*
X160655000Y-144040000D03*
X163425000Y-144040000D03*
X166195000Y-144040000D03*
X116460000Y-122790000D03*
X116460000Y-125290000D03*
X164910000Y-87910000D03*
X164910000Y-90410000D03*
G36*
G01*
X118500000Y-135700000D02*
X118500000Y-134100000D01*
G75*
G02*
X118700000Y-133900000I200000J0D01*
G01*
X120300000Y-133900000D01*
G75*
G02*
X120500000Y-134100000I0J-200000D01*
G01*
X120500000Y-135700000D01*
G75*
G02*
X120300000Y-135900000I-200000J0D01*
G01*
X118700000Y-135900000D01*
G75*
G02*
X118500000Y-135700000I0J200000D01*
G01*
G37*
D19*
X122040000Y-134900000D03*
X124580000Y-134900000D03*
X127120000Y-134900000D03*
X129660000Y-134900000D03*
X132200000Y-134900000D03*
X134740000Y-134900000D03*
X137280000Y-134900000D03*
X139820000Y-134900000D03*
G36*
G01*
X143300000Y-135740000D02*
X143300000Y-134140000D01*
G75*
G02*
X143500000Y-133940000I200000J0D01*
G01*
X145100000Y-133940000D01*
G75*
G02*
X145300000Y-134140000I0J-200000D01*
G01*
X145300000Y-135740000D01*
G75*
G02*
X145100000Y-135940000I-200000J0D01*
G01*
X143500000Y-135940000D01*
G75*
G02*
X143300000Y-135740000I0J200000D01*
G01*
G37*
X146840000Y-134940000D03*
X149380000Y-134940000D03*
X151920000Y-134940000D03*
X154460000Y-134940000D03*
X157000000Y-134940000D03*
X159540000Y-134940000D03*
X162080000Y-134940000D03*
X164620000Y-134940000D03*
D18*
X164820000Y-75940000D03*
X164820000Y-78440000D03*
X142860000Y-122700000D03*
X142860000Y-125200000D03*
D23*
X93380000Y-72300000D03*
D24*
X101880000Y-66900000D03*
X100180000Y-69400000D03*
D23*
X104680000Y-76600000D03*
D24*
X96880000Y-76800000D03*
G36*
G01*
X158850000Y-73050000D02*
X157150000Y-73050000D01*
G75*
G02*
X156950000Y-72850000I0J200000D01*
G01*
X156950000Y-71150000D01*
G75*
G02*
X157150000Y-70950000I200000J0D01*
G01*
X158850000Y-70950000D01*
G75*
G02*
X159050000Y-71150000I0J-200000D01*
G01*
X159050000Y-72850000D01*
G75*
G02*
X158850000Y-73050000I-200000J0D01*
G01*
G37*
D25*
X158000000Y-69460000D03*
X160540000Y-72000000D03*
X160540000Y-69460000D03*
X163080000Y-72000000D03*
X163080000Y-69460000D03*
X165620000Y-72000000D03*
X165620000Y-69460000D03*
X168160000Y-72000000D03*
X168160000Y-69460000D03*
X170700000Y-72000000D03*
X170700000Y-69460000D03*
X173240000Y-72000000D03*
X173240000Y-69460000D03*
X175780000Y-72000000D03*
X175780000Y-69460000D03*
G36*
G01*
X116880000Y-63430000D02*
X115180000Y-63430000D01*
G75*
G02*
X114980000Y-63230000I0J200000D01*
G01*
X114980000Y-61530000D01*
G75*
G02*
X115180000Y-61330000I200000J0D01*
G01*
X116880000Y-61330000D01*
G75*
G02*
X117080000Y-61530000I0J-200000D01*
G01*
X117080000Y-63230000D01*
G75*
G02*
X116880000Y-63430000I-200000J0D01*
G01*
G37*
X116030000Y-59840000D03*
X118570000Y-62380000D03*
X118570000Y-59840000D03*
X121110000Y-62380000D03*
X121110000Y-59840000D03*
X123650000Y-62380000D03*
X123650000Y-59840000D03*
X126190000Y-62380000D03*
X126190000Y-59840000D03*
X128730000Y-62380000D03*
X128730000Y-59840000D03*
X131270000Y-62380000D03*
X131270000Y-59840000D03*
X133810000Y-62380000D03*
X133810000Y-59840000D03*
X136350000Y-62380000D03*
X136350000Y-59840000D03*
X138890000Y-62380000D03*
X138890000Y-59840000D03*
X141430000Y-62380000D03*
X141430000Y-59840000D03*
X143970000Y-62380000D03*
X143970000Y-59840000D03*
X146510000Y-62380000D03*
X146510000Y-59840000D03*
X149050000Y-62380000D03*
X149050000Y-59840000D03*
X151590000Y-62380000D03*
X151590000Y-59840000D03*
X154130000Y-62380000D03*
X154130000Y-59840000D03*
X156670000Y-62380000D03*
X156670000Y-59840000D03*
X159210000Y-62380000D03*
X159210000Y-59840000D03*
X161750000Y-62380000D03*
X161750000Y-59840000D03*
X164290000Y-62380000D03*
X164290000Y-59840000D03*
D18*
X95420000Y-94790000D03*
D19*
X105580000Y-94790000D03*
G36*
G01*
X135480000Y-76480000D02*
X133880000Y-76480000D01*
G75*
G02*
X133680000Y-76280000I0J200000D01*
G01*
X133680000Y-74680000D01*
G75*
G02*
X133880000Y-74480000I200000J0D01*
G01*
X135480000Y-74480000D01*
G75*
G02*
X135680000Y-74680000I0J-200000D01*
G01*
X135680000Y-76280000D01*
G75*
G02*
X135480000Y-76480000I-200000J0D01*
G01*
G37*
X137220000Y-75480000D03*
X139760000Y-75480000D03*
X142300000Y-75480000D03*
X144840000Y-75480000D03*
X147380000Y-75480000D03*
X149920000Y-75480000D03*
X152460000Y-75480000D03*
X152460000Y-67860000D03*
X149920000Y-67860000D03*
X147380000Y-67860000D03*
X144840000Y-67860000D03*
X142300000Y-67860000D03*
X139760000Y-67860000D03*
X137220000Y-67860000D03*
X134680000Y-67860000D03*
G36*
G01*
X168800000Y-97000000D02*
X167200000Y-97000000D01*
G75*
G02*
X167000000Y-96800000I0J200000D01*
G01*
X167000000Y-95200000D01*
G75*
G02*
X167200000Y-95000000I200000J0D01*
G01*
X168800000Y-95000000D01*
G75*
G02*
X169000000Y-95200000I0J-200000D01*
G01*
X169000000Y-96800000D01*
G75*
G02*
X168800000Y-97000000I-200000J0D01*
G01*
G37*
X170540000Y-96000000D03*
X173080000Y-96000000D03*
X175620000Y-96000000D03*
X178160000Y-96000000D03*
X180700000Y-96000000D03*
X183240000Y-96000000D03*
X183240000Y-88380000D03*
X180700000Y-88380000D03*
X178160000Y-88380000D03*
X175620000Y-88380000D03*
X173080000Y-88380000D03*
X170540000Y-88380000D03*
X168000000Y-88380000D03*
G36*
G01*
X146610000Y-131970000D02*
X145010000Y-131970000D01*
G75*
G02*
X144810000Y-131770000I0J200000D01*
G01*
X144810000Y-130170000D01*
G75*
G02*
X145010000Y-129970000I200000J0D01*
G01*
X146610000Y-129970000D01*
G75*
G02*
X146810000Y-130170000I0J-200000D01*
G01*
X146810000Y-131770000D01*
G75*
G02*
X146610000Y-131970000I-200000J0D01*
G01*
G37*
X148350000Y-130970000D03*
X150890000Y-130970000D03*
X153430000Y-130970000D03*
X155970000Y-130970000D03*
X158510000Y-130970000D03*
X161050000Y-130970000D03*
X163590000Y-130970000D03*
X163590000Y-123350000D03*
X161050000Y-123350000D03*
X158510000Y-123350000D03*
X155970000Y-123350000D03*
X153430000Y-123350000D03*
X150890000Y-123350000D03*
X148350000Y-123350000D03*
X145810000Y-123350000D03*
G36*
G01*
X168800000Y-85000000D02*
X167200000Y-85000000D01*
G75*
G02*
X167000000Y-84800000I0J200000D01*
G01*
X167000000Y-83200000D01*
G75*
G02*
X167200000Y-83000000I200000J0D01*
G01*
X168800000Y-83000000D01*
G75*
G02*
X169000000Y-83200000I0J-200000D01*
G01*
X169000000Y-84800000D01*
G75*
G02*
X168800000Y-85000000I-200000J0D01*
G01*
G37*
X170540000Y-84000000D03*
X173080000Y-84000000D03*
X175620000Y-84000000D03*
X178160000Y-84000000D03*
X180700000Y-84000000D03*
X183240000Y-84000000D03*
X183240000Y-76380000D03*
X180700000Y-76380000D03*
X178160000Y-76380000D03*
X175620000Y-76380000D03*
X173080000Y-76380000D03*
X170540000Y-76380000D03*
X168000000Y-76380000D03*
G36*
G01*
X112970000Y-95870000D02*
X111370000Y-95870000D01*
G75*
G02*
X111170000Y-95670000I0J200000D01*
G01*
X111170000Y-94070000D01*
G75*
G02*
X111370000Y-93870000I200000J0D01*
G01*
X112970000Y-93870000D01*
G75*
G02*
X113170000Y-94070000I0J-200000D01*
G01*
X113170000Y-95670000D01*
G75*
G02*
X112970000Y-95870000I-200000J0D01*
G01*
G37*
X114710000Y-94870000D03*
X117250000Y-94870000D03*
X119790000Y-94870000D03*
X122330000Y-94870000D03*
X124870000Y-94870000D03*
X127410000Y-94870000D03*
X129950000Y-94870000D03*
X132490000Y-94870000D03*
X135030000Y-94870000D03*
X137570000Y-94870000D03*
X140110000Y-94870000D03*
X142650000Y-94870000D03*
X145190000Y-94870000D03*
X147730000Y-94870000D03*
X150270000Y-94870000D03*
X152810000Y-94870000D03*
X155350000Y-94870000D03*
X157890000Y-94870000D03*
X160430000Y-94870000D03*
X160430000Y-79630000D03*
X157890000Y-79630000D03*
X155350000Y-79630000D03*
X152810000Y-79630000D03*
X150270000Y-79630000D03*
X147730000Y-79630000D03*
X145190000Y-79630000D03*
X142650000Y-79630000D03*
X140110000Y-79630000D03*
X137570000Y-79630000D03*
X135030000Y-79630000D03*
X132490000Y-79630000D03*
X129950000Y-79630000D03*
X127410000Y-79630000D03*
X124870000Y-79630000D03*
X122330000Y-79630000D03*
X119790000Y-79630000D03*
X117250000Y-79630000D03*
X114710000Y-79630000D03*
X112170000Y-79630000D03*
D22*
X110370000Y-143050000D03*
X135400000Y-143050000D03*
G36*
G01*
X116320000Y-142440000D02*
X116320000Y-140840000D01*
G75*
G02*
X116520000Y-140640000I200000J0D01*
G01*
X118120000Y-140640000D01*
G75*
G02*
X118320000Y-140840000I0J-200000D01*
G01*
X118320000Y-142440000D01*
G75*
G02*
X118120000Y-142640000I-200000J0D01*
G01*
X116520000Y-142640000D01*
G75*
G02*
X116320000Y-142440000I0J200000D01*
G01*
G37*
D18*
X120090000Y-141640000D03*
X122860000Y-141640000D03*
X125630000Y-141640000D03*
X128400000Y-141640000D03*
X118705000Y-144180000D03*
X121475000Y-144180000D03*
X124245000Y-144180000D03*
X127015000Y-144180000D03*
D20*
X184500000Y-54500000D03*
X95500000Y-54500000D03*
D18*
X128100000Y-109200000D03*
X128100000Y-111700000D03*
X102000000Y-122000000D03*
X104500000Y-122000000D03*
D23*
X93200000Y-130500000D03*
D24*
X101700000Y-125100000D03*
X100000000Y-127600000D03*
D23*
X104500000Y-134800000D03*
D24*
X96700000Y-135000000D03*
D20*
X95500000Y-145500000D03*
X184500000Y-145500000D03*
D18*
X112000000Y-107200000D03*
D19*
X122160000Y-107200000D03*
D18*
X122100000Y-100400000D03*
D19*
X111940000Y-100400000D03*
D18*
X122200000Y-103700000D03*
D19*
X112040000Y-103700000D03*
D18*
X109100000Y-120500000D03*
D19*
X109100000Y-130660000D03*
D18*
X112400000Y-120500000D03*
D19*
X112400000Y-130660000D03*
G36*
G01*
X95010000Y-110940000D02*
X95010000Y-112640000D01*
G75*
G02*
X94810000Y-112840000I-200000J0D01*
G01*
X93110000Y-112840000D01*
G75*
G02*
X92910000Y-112640000I0J200000D01*
G01*
X92910000Y-110940000D01*
G75*
G02*
X93110000Y-110740000I200000J0D01*
G01*
X94810000Y-110740000D01*
G75*
G02*
X95010000Y-110940000I0J-200000D01*
G01*
G37*
D25*
X93960000Y-109250000D03*
D18*
X108360000Y-109040000D03*
D19*
X98200000Y-109040000D03*
D18*
X108360000Y-112040000D03*
D19*
X98200000Y-112040000D03*
G36*
G01*
X99300000Y-84500000D02*
X97700000Y-84500000D01*
G75*
G02*
X97500000Y-84300000I0J200000D01*
G01*
X97500000Y-82700000D01*
G75*
G02*
X97700000Y-82500000I200000J0D01*
G01*
X99300000Y-82500000D01*
G75*
G02*
X99500000Y-82700000I0J-200000D01*
G01*
X99500000Y-84300000D01*
G75*
G02*
X99300000Y-84500000I-200000J0D01*
G01*
G37*
D18*
X98500000Y-81000000D03*
G36*
G01*
X111690000Y-112800000D02*
X111690000Y-111200000D01*
G75*
G02*
X111890000Y-111000000I200000J0D01*
G01*
X113490000Y-111000000D01*
G75*
G02*
X113690000Y-111200000I0J-200000D01*
G01*
X113690000Y-112800000D01*
G75*
G02*
X113490000Y-113000000I-200000J0D01*
G01*
X111890000Y-113000000D01*
G75*
G02*
X111690000Y-112800000I0J200000D01*
G01*
G37*
D19*
X120310000Y-112000000D03*
G36*
G01*
X103794900Y-61800000D02*
X103794900Y-60200000D01*
G75*
G02*
X103994900Y-60000000I200000J0D01*
G01*
X105594900Y-60000000D01*
G75*
G02*
X105794900Y-60200000I0J-200000D01*
G01*
X105794900Y-61800000D01*
G75*
G02*
X105594900Y-62000000I-200000J0D01*
G01*
X103994900Y-62000000D01*
G75*
G02*
X103794900Y-61800000I0J200000D01*
G01*
G37*
D18*
X107294900Y-61000000D03*
G36*
G01*
X132500000Y-118700000D02*
X130900000Y-118700000D01*
G75*
G02*
X130700000Y-118500000I0J200000D01*
G01*
X130700000Y-116100000D01*
G75*
G02*
X130900000Y-115900000I200000J0D01*
G01*
X132500000Y-115900000D01*
G75*
G02*
X132700000Y-116100000I0J-200000D01*
G01*
X132700000Y-118500000D01*
G75*
G02*
X132500000Y-118700000I-200000J0D01*
G01*
G37*
D26*
X134240000Y-117300000D03*
X136780000Y-117300000D03*
X139320000Y-117300000D03*
X139320000Y-109680000D03*
X136780000Y-109680000D03*
X134240000Y-109680000D03*
X131700000Y-109680000D03*
G36*
G01*
X95294900Y-63300000D02*
X95294900Y-61700000D01*
G75*
G02*
X95494900Y-61500000I200000J0D01*
G01*
X97094900Y-61500000D01*
G75*
G02*
X97294900Y-61700000I0J-200000D01*
G01*
X97294900Y-63300000D01*
G75*
G02*
X97094900Y-63500000I-200000J0D01*
G01*
X95494900Y-63500000D01*
G75*
G02*
X95294900Y-63300000I0J200000D01*
G01*
G37*
D18*
X98794900Y-62500000D03*
G36*
G01*
X111690000Y-116800000D02*
X111690000Y-115200000D01*
G75*
G02*
X111890000Y-115000000I200000J0D01*
G01*
X113490000Y-115000000D01*
G75*
G02*
X113690000Y-115200000I0J-200000D01*
G01*
X113690000Y-116800000D01*
G75*
G02*
X113490000Y-117000000I-200000J0D01*
G01*
X111890000Y-117000000D01*
G75*
G02*
X111690000Y-116800000I0J200000D01*
G01*
G37*
D19*
X120310000Y-116000000D03*
M02*
