G04 #@! TF.GenerationSoftware,KiCad,Pcbnew,(5.0.0-3-g5ebb6b6)*
G04 #@! TF.CreationDate,2019-08-10T22:52:30+09:00*
G04 #@! TF.ProjectId,KZ80-YM2149,4B5A38302D594D323134392E6B696361,rev?*
G04 #@! TF.SameCoordinates,Original*
G04 #@! TF.FileFunction,Soldermask,Bot*
G04 #@! TF.FilePolarity,Negative*
%FSLAX46Y46*%
G04 Gerber Fmt 4.6, Leading zero omitted, Abs format (unit mm)*
G04 Created by KiCad (PCBNEW (5.0.0-3-g5ebb6b6)) date 2019 August 10, Saturday 22:52:30*
%MOMM*%
%LPD*%
G01*
G04 APERTURE LIST*
%ADD10R,2.000000X2.000000*%
%ADD11C,2.000000*%
%ADD12O,2.000000X2.000000*%
%ADD13C,6.400000*%
%ADD14C,1.900000*%
%ADD15C,3.600000*%
%ADD16O,2.400000X3.400000*%
%ADD17O,3.400000X2.400000*%
%ADD18R,2.100000X2.100000*%
%ADD19O,2.100000X2.100000*%
G04 APERTURE END LIST*
D10*
G04 #@! TO.C,C12*
X105500000Y-62000000D03*
D11*
X105500000Y-59500000D03*
G04 #@! TD*
D12*
G04 #@! TO.C,RN1*
X160620000Y-110440000D03*
X158080000Y-110440000D03*
X155540000Y-110440000D03*
X153000000Y-110440000D03*
X150460000Y-110440000D03*
X147920000Y-110440000D03*
X145380000Y-110440000D03*
X142840000Y-110440000D03*
D10*
X140300000Y-110440000D03*
G04 #@! TD*
G04 #@! TO.C,RN2*
X115500000Y-110400000D03*
D12*
X118040000Y-110400000D03*
X120580000Y-110400000D03*
X123120000Y-110400000D03*
X125660000Y-110400000D03*
X128200000Y-110400000D03*
X130740000Y-110400000D03*
X133280000Y-110400000D03*
X135820000Y-110400000D03*
G04 #@! TD*
D11*
G04 #@! TO.C,J5*
X164695000Y-117540000D03*
X161925000Y-117540000D03*
X159155000Y-117540000D03*
X156385000Y-117540000D03*
X166080000Y-115000000D03*
X163310000Y-115000000D03*
X160540000Y-115000000D03*
X157770000Y-115000000D03*
D10*
X155000000Y-115000000D03*
D13*
X148050000Y-116410000D03*
X173080000Y-116410000D03*
G04 #@! TD*
D11*
G04 #@! TO.C,C9*
X164910000Y-90410000D03*
X164910000Y-87910000D03*
G04 #@! TD*
G04 #@! TO.C,C10*
X112460000Y-98290000D03*
X112460000Y-100790000D03*
G04 #@! TD*
D10*
G04 #@! TO.C,U7*
X115500000Y-106400000D03*
D12*
X133280000Y-98780000D03*
X118040000Y-106400000D03*
X130740000Y-98780000D03*
X120580000Y-106400000D03*
X128200000Y-98780000D03*
X123120000Y-106400000D03*
X125660000Y-98780000D03*
X125660000Y-106400000D03*
X123120000Y-98780000D03*
X128200000Y-106400000D03*
X120580000Y-98780000D03*
X130740000Y-106400000D03*
X118040000Y-98780000D03*
X133280000Y-106400000D03*
X115500000Y-98780000D03*
G04 #@! TD*
G04 #@! TO.C,R8*
X180230000Y-100520000D03*
D11*
X180230000Y-110680000D03*
G04 #@! TD*
G04 #@! TO.C,R7*
X183550000Y-110730000D03*
D12*
X183550000Y-100570000D03*
G04 #@! TD*
D11*
G04 #@! TO.C,C7*
X109110000Y-79110000D03*
X109110000Y-81610000D03*
G04 #@! TD*
G04 #@! TO.C,C6*
X131730000Y-69900000D03*
X131730000Y-67400000D03*
G04 #@! TD*
G04 #@! TO.C,C5*
X109550000Y-67400000D03*
X109550000Y-69900000D03*
G04 #@! TD*
G04 #@! TO.C,C4*
X168320000Y-108370000D03*
X165820000Y-108370000D03*
G04 #@! TD*
G04 #@! TO.C,C3*
X175310000Y-108350000D03*
X172810000Y-108350000D03*
G04 #@! TD*
D14*
G04 #@! TO.C,Y1*
X173000000Y-103635000D03*
X168120000Y-103635000D03*
G04 #@! TD*
D15*
G04 #@! TO.C,MH4*
X184500000Y-119500000D03*
G04 #@! TD*
G04 #@! TO.C,MH3*
X95500000Y-119500000D03*
G04 #@! TD*
G04 #@! TO.C,MH2*
X184500000Y-54500000D03*
G04 #@! TD*
G04 #@! TO.C,MH1*
X95500000Y-54500000D03*
G04 #@! TD*
D12*
G04 #@! TO.C,U3*
X112625000Y-67945000D03*
X127865000Y-75565000D03*
X115165000Y-67945000D03*
X125325000Y-75565000D03*
X117705000Y-67945000D03*
X122785000Y-75565000D03*
X120245000Y-67945000D03*
X120245000Y-75565000D03*
X122785000Y-67945000D03*
X117705000Y-75565000D03*
X125325000Y-67945000D03*
X115165000Y-75565000D03*
X127865000Y-67945000D03*
D10*
X112625000Y-75565000D03*
G04 #@! TD*
D12*
G04 #@! TO.C,R6*
X105581300Y-103820000D03*
D11*
X95421300Y-103820000D03*
G04 #@! TD*
G04 #@! TO.C,R5*
X105581000Y-100820000D03*
D12*
X95421000Y-100820000D03*
G04 #@! TD*
G04 #@! TO.C,R4*
X95421000Y-97820000D03*
D11*
X105581000Y-97820000D03*
G04 #@! TD*
D12*
G04 #@! TO.C,R2*
X105560000Y-91680000D03*
D11*
X95400000Y-91680000D03*
G04 #@! TD*
G04 #@! TO.C,R1*
X95400000Y-88600000D03*
D12*
X105560000Y-88600000D03*
G04 #@! TD*
D10*
G04 #@! TO.C,C1*
X94000000Y-62000000D03*
D11*
X96500000Y-62000000D03*
G04 #@! TD*
G04 #@! TO.C,C2*
X96500000Y-82500000D03*
D10*
X94000000Y-82500000D03*
G04 #@! TD*
D11*
G04 #@! TO.C,C8*
X164820000Y-75940000D03*
X164820000Y-78440000D03*
G04 #@! TD*
G04 #@! TO.C,C11*
X138860000Y-100700000D03*
X138860000Y-98200000D03*
G04 #@! TD*
D16*
G04 #@! TO.C,J1*
X93380000Y-72300000D03*
D17*
X101880000Y-66900000D03*
X100180000Y-69400000D03*
D16*
X104680000Y-76600000D03*
D17*
X96880000Y-76800000D03*
G04 #@! TD*
D18*
G04 #@! TO.C,J2*
X158000000Y-72000000D03*
D19*
X158000000Y-69460000D03*
X160540000Y-72000000D03*
X160540000Y-69460000D03*
X163080000Y-72000000D03*
X163080000Y-69460000D03*
X165620000Y-72000000D03*
X165620000Y-69460000D03*
X168160000Y-72000000D03*
X168160000Y-69460000D03*
X170700000Y-72000000D03*
X170700000Y-69460000D03*
X173240000Y-72000000D03*
X173240000Y-69460000D03*
X175780000Y-72000000D03*
X175780000Y-69460000D03*
G04 #@! TD*
D13*
G04 #@! TO.C,J3*
X133900000Y-116550000D03*
X108870000Y-116550000D03*
D10*
X115820000Y-115140000D03*
D11*
X118590000Y-115140000D03*
X121360000Y-115140000D03*
X124130000Y-115140000D03*
X126900000Y-115140000D03*
X117205000Y-117680000D03*
X119975000Y-117680000D03*
X122745000Y-117680000D03*
X125515000Y-117680000D03*
G04 #@! TD*
D18*
G04 #@! TO.C,J4*
X116030000Y-62380000D03*
D19*
X116030000Y-59840000D03*
X118570000Y-62380000D03*
X118570000Y-59840000D03*
X121110000Y-62380000D03*
X121110000Y-59840000D03*
X123650000Y-62380000D03*
X123650000Y-59840000D03*
X126190000Y-62380000D03*
X126190000Y-59840000D03*
X128730000Y-62380000D03*
X128730000Y-59840000D03*
X131270000Y-62380000D03*
X131270000Y-59840000D03*
X133810000Y-62380000D03*
X133810000Y-59840000D03*
X136350000Y-62380000D03*
X136350000Y-59840000D03*
X138890000Y-62380000D03*
X138890000Y-59840000D03*
X141430000Y-62380000D03*
X141430000Y-59840000D03*
X143970000Y-62380000D03*
X143970000Y-59840000D03*
X146510000Y-62380000D03*
X146510000Y-59840000D03*
X149050000Y-62380000D03*
X149050000Y-59840000D03*
X151590000Y-62380000D03*
X151590000Y-59840000D03*
X154130000Y-62380000D03*
X154130000Y-59840000D03*
X156670000Y-62380000D03*
X156670000Y-59840000D03*
X159210000Y-62380000D03*
X159210000Y-59840000D03*
X161750000Y-62380000D03*
X161750000Y-59840000D03*
X164290000Y-62380000D03*
X164290000Y-59840000D03*
G04 #@! TD*
D11*
G04 #@! TO.C,R3*
X95420000Y-94790000D03*
D12*
X105580000Y-94790000D03*
G04 #@! TD*
D10*
G04 #@! TO.C,U1*
X134680000Y-75480000D03*
D12*
X152460000Y-67860000D03*
X137220000Y-75480000D03*
X149920000Y-67860000D03*
X139760000Y-75480000D03*
X147380000Y-67860000D03*
X142300000Y-75480000D03*
X144840000Y-67860000D03*
X144840000Y-75480000D03*
X142300000Y-67860000D03*
X147380000Y-75480000D03*
X139760000Y-67860000D03*
X149920000Y-75480000D03*
X137220000Y-67860000D03*
X152460000Y-75480000D03*
X134680000Y-67860000D03*
G04 #@! TD*
G04 #@! TO.C,U2*
X168000000Y-88380000D03*
X183240000Y-96000000D03*
X170540000Y-88380000D03*
X180700000Y-96000000D03*
X173080000Y-88380000D03*
X178160000Y-96000000D03*
X175620000Y-88380000D03*
X175620000Y-96000000D03*
X178160000Y-88380000D03*
X173080000Y-96000000D03*
X180700000Y-88380000D03*
X170540000Y-96000000D03*
X183240000Y-88380000D03*
D10*
X168000000Y-96000000D03*
G04 #@! TD*
D12*
G04 #@! TO.C,U4*
X141810000Y-98850000D03*
X159590000Y-106470000D03*
X144350000Y-98850000D03*
X157050000Y-106470000D03*
X146890000Y-98850000D03*
X154510000Y-106470000D03*
X149430000Y-98850000D03*
X151970000Y-106470000D03*
X151970000Y-98850000D03*
X149430000Y-106470000D03*
X154510000Y-98850000D03*
X146890000Y-106470000D03*
X157050000Y-98850000D03*
X144350000Y-106470000D03*
X159590000Y-98850000D03*
D10*
X141810000Y-106470000D03*
G04 #@! TD*
G04 #@! TO.C,U5*
X168000000Y-84000000D03*
D12*
X183240000Y-76380000D03*
X170540000Y-84000000D03*
X180700000Y-76380000D03*
X173080000Y-84000000D03*
X178160000Y-76380000D03*
X175620000Y-84000000D03*
X175620000Y-76380000D03*
X178160000Y-84000000D03*
X173080000Y-76380000D03*
X180700000Y-84000000D03*
X170540000Y-76380000D03*
X183240000Y-84000000D03*
X168000000Y-76380000D03*
G04 #@! TD*
D10*
G04 #@! TO.C,U6*
X112170000Y-94870000D03*
D12*
X160430000Y-79630000D03*
X114710000Y-94870000D03*
X157890000Y-79630000D03*
X117250000Y-94870000D03*
X155350000Y-79630000D03*
X119790000Y-94870000D03*
X152810000Y-79630000D03*
X122330000Y-94870000D03*
X150270000Y-79630000D03*
X124870000Y-94870000D03*
X147730000Y-79630000D03*
X127410000Y-94870000D03*
X145190000Y-79630000D03*
X129950000Y-94870000D03*
X142650000Y-79630000D03*
X132490000Y-94870000D03*
X140110000Y-79630000D03*
X135030000Y-94870000D03*
X137570000Y-79630000D03*
X137570000Y-94870000D03*
X135030000Y-79630000D03*
X140110000Y-94870000D03*
X132490000Y-79630000D03*
X142650000Y-94870000D03*
X129950000Y-79630000D03*
X145190000Y-94870000D03*
X127410000Y-79630000D03*
X147730000Y-94870000D03*
X124870000Y-79630000D03*
X150270000Y-94870000D03*
X122330000Y-79630000D03*
X152810000Y-94870000D03*
X119790000Y-79630000D03*
X155350000Y-94870000D03*
X117250000Y-79630000D03*
X157890000Y-94870000D03*
X114710000Y-79630000D03*
X160430000Y-94870000D03*
X112170000Y-79630000D03*
G04 #@! TD*
M02*
